<svg width="280" height="280" version="1.1" xmlns="http://www.w3.org/2000/svg" desc="Created with ImageTracer.java version 1.1.2" ><path desc="l 0 p 0" fill="rgb(0,0,0)" stroke="rgb(0,0,0)" stroke-width="1" opacity="0.0" d="M 0.5 0.0 L 129.0 0.5 L 47.0 46.5 L 26.0 58.5 Q 17.5 61.0 13.0 67.5 Q 9.9 71.9 11.0 80.5 L 11.0 105.5 L 11.0 205.5 Q 12.8 212.7 18.5 216.0 L 132.0 279.5 L 0.5 280.0 L 0.5 0.0 Z" /><path desc="l 5 p 0" fill="rgb(91,105,190)" stroke="rgb(91,105,190)" stroke-width="1" opacity="0.996078431372549" d="M 131.5 0.0 L 143.5 0.0 L 148.5 1.0 L 156.5 6.0 L 170.0 12.5 L 181.0 18.5 L 181.5 20.0 L 199.0 28.5 L 199.5 30.0 L 215.5 38.0 L 233.0 47.5 L 233.5 49.0 Q 235.0 46.5 236.5 50.0 L 260.0 62.5 L 260.5 64.0 Q 264.5 63.5 265.0 66.5 L 222.5 90.0 L 209.5 73.0 L 207.0 71.5 L 206.5 70.0 L 203.0 67.5 L 202.5 66.0 L 201.0 66.5 L 200.5 65.0 L 196.0 62.5 L 195.5 61.0 L 191.0 58.5 L 190.5 57.0 L 188.5 57.0 L 184.5 54.0 Q 183.0 56.5 181.5 53.0 L 167.5 48.0 Q 162.3 48.2 160.5 45.0 L 158.5 46.0 L 155.5 45.0 L 146.5 44.0 L 130.5 44.0 L 120.5 46.0 Q 106.3 48.3 96.5 55.0 L 95.0 54.5 L 92.5 57.0 L 87.5 60.0 L 86.0 59.5 L 83.5 63.0 L 67.0 77.5 L 54.5 97.0 Q 51.4 98.4 52.0 103.5 Q 46.5 113.0 45.5 127.0 L 45.0 151.5 L 49.0 167.5 L 56.0 185.5 L 13.5 209.0 L 13.0 207.5 L 13.5 206.0 L 12.0 205.5 L 13.0 202.5 L 12.0 199.5 L 12.0 193.5 L 12.0 169.5 L 12.0 72.5 L 17.5 64.0 L 79.5 29.0 L 81.0 29.5 L 81.5 28.0 L 131.0 1.5 L 131.5 0.0 Z" /><path desc="l 0 p 1" fill="rgb(0,0,0)" stroke="rgb(0,0,0)" stroke-width="1" opacity="0.0" d="M 150.5 0.0 L 280.0 0.5 L 279.5 280.0 L 148.0 279.5 L 232.0 232.5 L 252.5 221.0 L 266.0 212.5 Q 270.3 208.3 269.0 198.5 L 269.0 173.5 L 269.0 72.5 Q 267.5 66.0 262.5 63.0 L 180.5 17.0 L 158.5 5.0 L 153.5 2.0 Q 149.8 1.8 150.5 0.0 Z" /><path desc="l 9 p 0" fill="rgb(108,119,190)" stroke="rgb(108,119,190)" stroke-width="1" opacity="0.996078431372549" d="M 168.5 13.0 L 169.5 15.0 L 168.5 13.0 Z" /><path desc="l 9 p 1" fill="rgb(108,119,190)" stroke="rgb(108,119,190)" stroke-width="1" opacity="0.996078431372549" d="M 70.5 35.0 L 69.5 37.0 L 70.5 35.0 Z" /><path desc="l 9 p 2" fill="rgb(108,119,190)" stroke="rgb(108,119,190)" stroke-width="1" opacity="0.996078431372549" d="M 130.5 44.0 L 152.0 44.5 L 130.5 45.0 L 130.5 44.0 Z" /><path desc="l 9 p 3" fill="rgb(108,119,190)" stroke="rgb(108,119,190)" stroke-width="1" opacity="0.996078431372549" d="M 122.5 45.0 L 127.0 45.5 L 118.5 47.0 L 118.5 46.0 L 122.5 45.0 Z" /><path desc="l 3 p 0" fill="rgb(251,252,252)" stroke="rgb(251,252,252)" stroke-width="1" opacity="1.0" d="M 127.5 45.0 L 145.5 45.0 L 153.0 45.5 L 160.5 47.0 Q 173.8 48.7 182.5 55.0 Q 201.9 63.6 214.0 79.5 L 219.0 86.5 L 221.0 91.5 L 190.5 109.0 L 180.5 114.0 L 168.5 101.0 L 156.5 95.0 L 147.0 92.5 L 133.5 92.0 Q 113.3 95.8 103.0 109.5 L 95.5 123.0 Q 91.2 132.2 93.0 147.5 Q 96.7 167.3 110.5 177.0 L 123.5 184.0 L 133.0 186.5 L 146.5 187.0 Q 167.5 183.0 178.0 168.5 L 180.5 164.0 L 192.0 169.5 L 222.0 186.5 Q 214.1 201.6 201.5 212.0 Q 191.5 221.5 177.0 226.5 Q 167.6 231.6 154.5 233.0 L 150.0 233.5 L 130.5 234.0 L 122.5 232.0 Q 104.7 229.8 93.0 221.5 Q 78.9 214.1 69.0 202.5 Q 60.1 192.4 54.0 179.5 Q 49.3 171.3 47.5 160.0 L 45.5 146.0 L 45.0 133.5 L 50.0 108.5 Q 59.7 82.2 79.5 66.0 Q 98.0 50.0 127.5 45.0 Z" /><path desc="l 9 p 4" fill="rgb(108,119,190)" stroke="rgb(108,119,190)" stroke-width="1" opacity="0.996078431372549" d="M 153.5 45.0 L 158.0 45.5 L 153.5 46.0 L 153.5 45.0 Z" /><path desc="l 9 p 5" fill="rgb(108,119,190)" stroke="rgb(108,119,190)" stroke-width="1" opacity="0.996078431372549" d="M 160.5 45.0 L 161.5 47.0 L 159.0 46.5 L 160.5 45.0 Z" /><path desc="l 9 p 6" fill="rgb(108,119,190)" stroke="rgb(108,119,190)" stroke-width="1" opacity="0.996078431372549" d="M 100.5 51.0 L 101.5 53.0 L 100.5 51.0 Z" /><path desc="l 9 p 7" fill="rgb(108,119,190)" stroke="rgb(108,119,190)" stroke-width="1" opacity="0.996078431372549" d="M 179.5 51.0 L 178.5 53.0 L 179.5 51.0 Z" /><path desc="l 9 p 8" fill="rgb(108,119,190)" stroke="rgb(108,119,190)" stroke-width="1" opacity="0.996078431372549" d="M 237.5 51.0 L 238.5 53.0 L 237.5 51.0 Z" /><path desc="l 9 p 9" fill="rgb(108,119,190)" stroke="rgb(108,119,190)" stroke-width="1" opacity="0.996078431372549" d="M 98.5 53.0 L 100.0 53.5 L 97.5 55.0 L 98.5 53.0 Z" /><path desc="l 9 p 10" fill="rgb(108,119,190)" stroke="rgb(108,119,190)" stroke-width="1" opacity="0.996078431372549" d="M 180.5 53.0 L 183.0 54.5 L 181.5 54.0 L 180.5 53.0 Z" /><path desc="l 9 p 11" fill="rgb(108,119,190)" stroke="rgb(108,119,190)" stroke-width="1" opacity="0.996078431372549" d="M 95.5 54.0 L 96.0 55.5 L 93.5 57.0 L 95.5 54.0 Z" /><path desc="l 9 p 12" fill="rgb(108,119,190)" stroke="rgb(108,119,190)" stroke-width="1" opacity="0.996078431372549" d="M 184.5 54.0 L 186.5 57.0 L 184.0 55.5 L 184.5 54.0 Z" /><path desc="l 9 p 13" fill="rgb(108,119,190)" stroke="rgb(108,119,190)" stroke-width="1" opacity="0.996078431372549" d="M 89.5 57.0 L 92.0 57.5 Q 89.9 60.8 89.5 57.0 Z" /><path desc="l 9 p 14" fill="rgb(108,119,190)" stroke="rgb(108,119,190)" stroke-width="1" opacity="0.996078431372549" d="M 188.5 57.0 L 191.0 57.5 L 192.0 59.5 L 190.5 59.0 L 188.5 57.0 Z" /><path desc="l 9 p 15" fill="rgb(108,119,190)" stroke="rgb(108,119,190)" stroke-width="1" opacity="0.996078431372549" d="M 86.5 59.0 L 89.0 59.5 L 84.5 63.0 L 86.0 60.5 L 86.5 59.0 Z" /><path desc="l 9 p 16" fill="rgb(108,119,190)" stroke="rgb(108,119,190)" stroke-width="1" opacity="0.996078431372549" d="M 82.5 60.0 L 81.5 62.0 L 82.5 60.0 Z" /><path desc="l 9 p 17" fill="rgb(108,119,190)" stroke="rgb(108,119,190)" stroke-width="1" opacity="0.996078431372549" d="M 193.5 60.0 L 196.0 61.5 L 194.5 62.0 L 193.5 60.0 Z" /><path desc="l 9 p 18" fill="rgb(108,119,190)" stroke="rgb(108,119,190)" stroke-width="1" opacity="0.996078431372549" d="M 82.5 63.0 L 80.5 66.0 L 82.5 63.0 Z" /><path desc="l 9 p 19" fill="rgb(108,119,190)" stroke="rgb(108,119,190)" stroke-width="1" opacity="0.996078431372549" d="M 197.5 63.0 L 198.5 65.0 L 197.5 63.0 Z" /><path desc="l 14 p 0" fill="rgb(63,70,132)" stroke="rgb(63,70,132)" stroke-width="1" opacity="0.592156862745098" d="M 16.5 64.0 L 14.5 67.0 L 16.5 64.0 Z" /><path desc="l 10 p 0" fill="rgb(82,89,145)" stroke="rgb(82,89,145)" stroke-width="1" opacity="0.34509803921568627" d="M 263.5 64.0 L 265.5 67.0 L 263.5 64.0 Z" /><path desc="l 9 p 20" fill="rgb(108,119,190)" stroke="rgb(108,119,190)" stroke-width="1" opacity="0.996078431372549" d="M 202.5 66.0 L 205.5 70.0 L 207.0 70.5 L 208.5 73.0 L 210.0 73.5 L 213.0 77.5 L 202.0 67.5 L 202.5 66.0 Z" /><path desc="l 9 p 21" fill="rgb(108,119,190)" stroke="rgb(108,119,190)" stroke-width="1" opacity="0.996078431372549" d="M 77.5 67.0 L 67.5 78.0 L 77.5 67.0 Z" /><path desc="l 7 p 0" fill="rgb(55,70,168)" stroke="rgb(55,70,168)" stroke-width="1" opacity="0.996078431372549" d="M 263.5 67.0 L 266.0 67.5 Q 269.3 71.2 268.0 79.5 L 268.0 103.5 L 268.0 201.5 L 268.0 203.5 L 266.5 210.0 L 232.0 191.5 L 215.0 181.5 L 181.5 163.0 L 180.0 163.5 L 177.5 161.0 L 136.5 140.0 L 133.5 142.0 L 134.5 140.0 L 194.5 107.0 L 196.5 107.0 L 199.5 104.0 L 222.0 91.5 L 222.5 90.0 L 263.5 67.0 Z" /><path desc="l 14 p 1" fill="rgb(63,70,132)" stroke="rgb(63,70,132)" stroke-width="1" opacity="0.592156862745098" d="M 268.5 74.0 L 269.0 189.5 L 268.0 189.5 L 268.5 74.0 Z" /><path desc="l 14 p 2" fill="rgb(63,70,132)" stroke="rgb(63,70,132)" stroke-width="1" opacity="0.592156862745098" d="M 11.5 75.0 L 12.0 104.5 L 11.0 104.5 L 11.5 75.0 Z" /><path desc="l 9 p 22" fill="rgb(108,119,190)" stroke="rgb(108,119,190)" stroke-width="1" opacity="0.996078431372549" d="M 66.5 79.0 L 64.0 82.5 L 61.5 86.0 L 63.0 83.5 L 66.5 79.0 Z" /><path desc="l 9 p 23" fill="rgb(108,119,190)" stroke="rgb(108,119,190)" stroke-width="1" opacity="0.996078431372549" d="M 214.5 80.0 L 216.5 83.0 L 214.5 80.0 Z" /><path desc="l 9 p 24" fill="rgb(108,119,190)" stroke="rgb(108,119,190)" stroke-width="1" opacity="0.996078431372549" d="M 218.5 83.0 Q 216.9 84.8 220.0 86.5 L 222.0 91.5 L 221.0 91.5 L 220.0 88.5 L 217.0 84.5 L 218.5 83.0 Z" /><path desc="l 9 p 25" fill="rgb(108,119,190)" stroke="rgb(108,119,190)" stroke-width="1" opacity="0.996078431372549" d="M 60.5 87.0 L 59.5 89.0 L 60.5 87.0 Z" /><path desc="l 9 p 26" fill="rgb(108,119,190)" stroke="rgb(108,119,190)" stroke-width="1" opacity="0.996078431372549" d="M 57.5 89.0 L 58.5 91.0 L 57.5 89.0 Z" /><path desc="l 9 p 27" fill="rgb(108,119,190)" stroke="rgb(108,119,190)" stroke-width="1" opacity="0.996078431372549" d="M 57.5 92.0 L 57.0 93.5 L 52.5 103.0 L 52.0 100.5 L 57.5 92.0 Z" /><path desc="l 9 p 28" fill="rgb(108,119,190)" stroke="rgb(108,119,190)" stroke-width="1" opacity="0.996078431372549" d="M 133.5 92.0 L 147.0 92.5 L 138.5 93.0 L 133.5 94.0 L 133.5 92.0 Z" /><path desc="l 9 p 29" fill="rgb(108,119,190)" stroke="rgb(108,119,190)" stroke-width="1" opacity="0.996078431372549" d="M 128.5 93.0 L 131.0 93.5 L 128.5 94.0 L 128.5 93.0 Z" /><path desc="l 5 p 1" fill="rgb(91,105,190)" stroke="rgb(91,105,190)" stroke-width="1" opacity="0.996078431372549" d="M 131.5 93.0 L 133.5 94.0 L 137.5 93.0 L 148.5 93.0 L 161.5 98.0 L 171.0 104.5 L 172.5 107.0 L 174.0 106.5 L 178.0 111.5 L 177.0 113.5 L 180.0 114.5 L 119.0 149.5 L 106.5 157.0 L 102.5 159.0 L 98.5 160.0 L 95.0 152.5 Q 97.5 151.0 94.0 149.5 L 93.0 134.5 L 94.5 128.0 Q 97.2 116.2 104.5 109.0 L 106.0 108.5 L 107.5 106.0 L 109.0 105.5 L 111.5 102.0 Q 119.6 95.6 131.5 93.0 Z" /><path desc="l 9 p 30" fill="rgb(108,119,190)" stroke="rgb(108,119,190)" stroke-width="1" opacity="0.996078431372549" d="M 149.5 93.0 L 152.0 93.5 L 149.5 94.0 L 149.5 93.0 Z" /><path desc="l 9 p 31" fill="rgb(108,119,190)" stroke="rgb(108,119,190)" stroke-width="1" opacity="0.996078431372549" d="M 122.5 95.0 L 124.0 95.5 L 116.0 99.5 Q 118.3 100.8 115.5 102.0 L 115.5 100.0 L 112.5 102.0 L 114.5 99.0 L 122.5 95.0 Z" /><path desc="l 9 p 32" fill="rgb(108,119,190)" stroke="rgb(108,119,190)" stroke-width="1" opacity="0.996078431372549" d="M 156.5 95.0 L 160.0 96.5 L 158.5 97.0 L 156.5 95.0 Z" /><path desc="l 9 p 33" fill="rgb(108,119,190)" stroke="rgb(108,119,190)" stroke-width="1" opacity="0.996078431372549" d="M 165.5 99.0 L 173.0 105.5 L 172.5 107.0 L 168.5 102.0 L 165.5 100.0 L 164.0 100.5 L 165.5 99.0 Z" /><path desc="l 9 p 34" fill="rgb(108,119,190)" stroke="rgb(108,119,190)" stroke-width="1" opacity="0.996078431372549" d="M 110.5 102.0 L 109.0 104.5 L 108.5 106.0 L 106.0 107.5 L 105.5 109.0 L 103.5 110.0 L 110.5 102.0 Z" /><path desc="l 2 p 0" fill="rgb(76,83,148)" stroke="rgb(76,83,148)" stroke-width="1" opacity="0.7333333333333333" d="M 11.5 105.0 L 12.0 107.5 L 11.0 107.5 L 11.5 105.0 Z" /><path desc="l 1 p 0" fill="rgb(39,52,145)" stroke="rgb(39,52,145)" stroke-width="1" opacity="0.996078431372549" d="M 196.5 106.0 L 195.5 108.0 L 196.5 106.0 Z" /><path desc="l 9 p 35" fill="rgb(108,119,190)" stroke="rgb(108,119,190)" stroke-width="1" opacity="0.996078431372549" d="M 174.5 107.0 L 177.5 111.0 L 175.0 110.5 L 175.5 109.0 L 174.5 107.0 Z" /><path desc="l 14 p 3" fill="rgb(63,70,132)" stroke="rgb(63,70,132)" stroke-width="1" opacity="0.592156862745098" d="M 11.5 108.0 L 12.0 116.5 L 11.0 116.5 L 11.5 108.0 Z" /><path desc="l 9 p 36" fill="rgb(108,119,190)" stroke="rgb(108,119,190)" stroke-width="1" opacity="0.996078431372549" d="M 102.5 111.0 L 100.5 114.0 L 102.5 111.0 Z" /><path desc="l 9 p 37" fill="rgb(108,119,190)" stroke="rgb(108,119,190)" stroke-width="1" opacity="0.996078431372549" d="M 177.5 112.0 L 182.0 114.5 L 180.5 115.0 Q 178.8 111.9 177.0 113.5 L 177.5 112.0 Z" /><path desc="l 9 p 38" fill="rgb(108,119,190)" stroke="rgb(108,119,190)" stroke-width="1" opacity="0.996078431372549" d="M 99.5 115.0 L 100.5 117.0 L 99.5 115.0 Z" /><path desc="l 9 p 39" fill="rgb(108,119,190)" stroke="rgb(108,119,190)" stroke-width="1" opacity="0.996078431372549" d="M 47.5 116.0 L 48.0 118.5 L 47.0 118.5 L 47.5 116.0 Z" /><path desc="l 2 p 1" fill="rgb(76,83,148)" stroke="rgb(76,83,148)" stroke-width="1" opacity="0.7333333333333333" d="M 11.5 117.0 L 12.0 122.5 L 11.0 122.5 L 11.5 117.0 Z" /><path desc="l 9 p 40" fill="rgb(108,119,190)" stroke="rgb(108,119,190)" stroke-width="1" opacity="0.996078431372549" d="M 98.5 117.0 L 99.5 119.0 L 98.0 118.5 L 97.5 120.0 L 97.0 118.5 L 98.5 117.0 Z" /><path desc="l 9 p 41" fill="rgb(108,119,190)" stroke="rgb(108,119,190)" stroke-width="1" opacity="0.996078431372549" d="M 46.5 121.0 L 47.0 123.5 L 46.0 123.5 L 46.5 121.0 Z" /><path desc="l 14 p 4" fill="rgb(63,70,132)" stroke="rgb(63,70,132)" stroke-width="1" opacity="0.592156862745098" d="M 11.5 123.0 L 12.0 129.5 L 11.0 129.5 L 11.5 123.0 Z" /><path desc="l 9 p 42" fill="rgb(108,119,190)" stroke="rgb(108,119,190)" stroke-width="1" opacity="0.996078431372549" d="M 45.5 127.0 L 46.0 132.5 L 45.0 132.5 L 45.5 127.0 Z" /><path desc="l 2 p 2" fill="rgb(76,83,148)" stroke="rgb(76,83,148)" stroke-width="1" opacity="0.7333333333333333" d="M 11.5 130.0 L 12.0 135.5 L 11.0 135.5 L 11.5 130.0 Z" /><path desc="l 9 p 43" fill="rgb(108,119,190)" stroke="rgb(108,119,190)" stroke-width="1" opacity="0.996078431372549" d="M 93.5 131.0 L 94.0 133.5 L 93.0 133.5 L 93.5 131.0 Z" /><path desc="l 14 p 5" fill="rgb(63,70,132)" stroke="rgb(63,70,132)" stroke-width="1" opacity="0.592156862745098" d="M 11.5 136.0 L 12.0 142.5 L 11.0 142.5 L 11.5 136.0 Z" /><path desc="l 1 p 1" fill="rgb(39,52,145)" stroke="rgb(39,52,145)" stroke-width="1" opacity="0.996078431372549" d="M 136.5 140.0 Q 159.9 150.1 180.0 163.5 Q 176.0 173.0 167.5 178.0 L 153.5 184.0 Q 150.6 186.6 144.5 186.0 L 131.5 186.0 Q 111.9 181.6 102.0 167.5 L 99.0 161.5 L 136.5 140.0 Z" /><path desc="l 7 p 1" fill="rgb(55,70,168)" stroke="rgb(55,70,168)" stroke-width="1" opacity="0.996078431372549" d="M 131.5 142.0 L 130.5 144.0 L 128.5 145.0 L 129.5 143.0 L 131.5 142.0 Z" /><path desc="l 2 p 3" fill="rgb(76,83,148)" stroke="rgb(76,83,148)" stroke-width="1" opacity="0.7333333333333333" d="M 11.5 143.0 L 12.0 148.5 L 11.0 148.5 L 11.5 143.0 Z" /><path desc="l 9 p 44" fill="rgb(108,119,190)" stroke="rgb(108,119,190)" stroke-width="1" opacity="0.996078431372549" d="M 93.5 145.0 L 94.0 147.5 L 93.0 147.5 L 93.5 145.0 Z" /><path desc="l 9 p 45" fill="rgb(108,119,190)" stroke="rgb(108,119,190)" stroke-width="1" opacity="0.996078431372549" d="M 45.5 146.0 L 46.0 151.5 L 45.0 151.5 L 45.5 146.0 Z" /><path desc="l 7 p 2" fill="rgb(55,70,168)" stroke="rgb(55,70,168)" stroke-width="1" opacity="0.996078431372549" d="M 124.5 146.0 L 123.5 148.0 L 121.5 149.0 L 122.5 147.0 L 124.5 146.0 Z" /><path desc="l 14 p 6" fill="rgb(63,70,132)" stroke="rgb(63,70,132)" stroke-width="1" opacity="0.592156862745098" d="M 11.5 149.0 L 12.0 157.5 L 11.0 157.5 L 11.5 149.0 Z" /><path desc="l 7 p 3" fill="rgb(55,70,168)" stroke="rgb(55,70,168)" stroke-width="1" opacity="0.996078431372549" d="M 119.5 149.0 L 118.5 151.0 L 112.5 154.0 L 112.5 153.0 L 119.5 149.0 Z" /><path desc="l 9 p 46" fill="rgb(108,119,190)" stroke="rgb(108,119,190)" stroke-width="1" opacity="0.996078431372549" d="M 94.5 150.0 L 95.5 152.0 L 94.0 151.5 L 94.5 150.0 Z" /><path desc="l 9 p 47" fill="rgb(108,119,190)" stroke="rgb(108,119,190)" stroke-width="1" opacity="0.996078431372549" d="M 95.5 154.0 L 97.0 157.5 L 96.0 157.5 L 95.5 154.0 Z" /><path desc="l 9 p 48" fill="rgb(108,119,190)" stroke="rgb(108,119,190)" stroke-width="1" opacity="0.996078431372549" d="M 46.5 155.0 L 47.0 158.5 L 46.0 158.5 L 46.5 155.0 Z" /><path desc="l 2 p 4" fill="rgb(76,83,148)" stroke="rgb(76,83,148)" stroke-width="1" opacity="0.7333333333333333" d="M 11.5 158.0 L 12.0 160.5 L 11.0 160.5 L 11.5 158.0 Z" /><path desc="l 9 p 49" fill="rgb(108,119,190)" stroke="rgb(108,119,190)" stroke-width="1" opacity="0.996078431372549" d="M 97.5 159.0 L 98.5 161.0 L 97.5 159.0 Z" /><path desc="l 14 p 7" fill="rgb(63,70,132)" stroke="rgb(63,70,132)" stroke-width="1" opacity="0.592156862745098" d="M 11.5 161.0 L 12.0 189.5 L 11.0 189.5 L 11.5 161.0 Z" /><path desc="l 9 p 50" fill="rgb(108,119,190)" stroke="rgb(108,119,190)" stroke-width="1" opacity="0.996078431372549" d="M 98.5 162.0 L 99.5 164.0 L 98.5 162.0 Z" /><path desc="l 9 p 51" fill="rgb(108,119,190)" stroke="rgb(108,119,190)" stroke-width="1" opacity="0.996078431372549" d="M 48.5 164.0 L 49.0 166.5 L 48.0 166.5 L 48.5 164.0 Z" /><path desc="l 9 p 52" fill="rgb(108,119,190)" stroke="rgb(108,119,190)" stroke-width="1" opacity="0.996078431372549" d="M 103.5 169.0 L 104.5 171.0 L 103.5 169.0 Z" /><path desc="l 5 p 2" fill="rgb(91,105,190)" stroke="rgb(91,105,190)" stroke-width="1" opacity="0.996078431372549" d="M 176.5 169.0 L 175.5 171.0 L 176.5 169.0 Z" /><path desc="l 5 p 3" fill="rgb(91,105,190)" stroke="rgb(91,105,190)" stroke-width="1" opacity="0.996078431372549" d="M 105.5 171.0 L 107.5 174.0 L 105.5 171.0 Z" /><path desc="l 7 p 4" fill="rgb(55,70,168)" stroke="rgb(55,70,168)" stroke-width="1" opacity="0.996078431372549" d="M 174.5 171.0 L 171.5 175.0 L 174.5 171.0 Z" /><path desc="l 9 p 53" fill="rgb(108,119,190)" stroke="rgb(108,119,190)" stroke-width="1" opacity="0.996078431372549" d="M 108.5 174.0 L 110.5 177.0 L 108.5 174.0 Z" /><path desc="l 9 p 54" fill="rgb(108,119,190)" stroke="rgb(108,119,190)" stroke-width="1" opacity="0.996078431372549" d="M 169.5 176.0 L 168.5 178.0 L 169.5 176.0 Z" /><path desc="l 9 p 55" fill="rgb(108,119,190)" stroke="rgb(108,119,190)" stroke-width="1" opacity="0.996078431372549" d="M 53.5 178.0 L 56.0 182.5 L 54.0 181.5 L 53.5 178.0 Z" /><path desc="l 9 p 56" fill="rgb(108,119,190)" stroke="rgb(108,119,190)" stroke-width="1" opacity="0.996078431372549" d="M 113.5 178.0 L 114.5 180.0 L 113.5 178.0 Z" /><path desc="l 9 p 57" fill="rgb(108,119,190)" stroke="rgb(108,119,190)" stroke-width="1" opacity="0.996078431372549" d="M 221.5 185.0 L 222.5 187.0 L 221.5 185.0 Z" /><path desc="l 1 p 2" fill="rgb(39,52,145)" stroke="rgb(39,52,145)" stroke-width="1" opacity="0.996078431372549" d="M 55.5 186.0 L 58.0 187.5 Q 64.7 200.8 75.5 210.0 L 95.5 224.0 L 109.0 229.5 L 117.5 232.0 L 129.5 234.0 L 145.5 235.0 L 155.5 233.0 Q 175.0 231.0 187.5 222.0 Q 201.9 214.4 212.0 202.5 L 222.5 187.0 L 243.0 197.5 L 266.0 210.5 L 263.5 214.0 L 149.5 278.0 L 148.0 277.5 L 147.5 279.0 L 142.5 280.0 L 134.5 280.0 L 15.0 212.5 L 14.0 210.5 L 55.5 186.0 Z" /><path desc="l 9 p 58" fill="rgb(108,119,190)" stroke="rgb(108,119,190)" stroke-width="1" opacity="0.996078431372549" d="M 133.5 186.0 L 137.0 186.5 L 133.5 187.0 L 133.5 186.0 Z" /><path desc="l 7 p 5" fill="rgb(55,70,168)" stroke="rgb(55,70,168)" stroke-width="1" opacity="0.996078431372549" d="M 139.5 186.0 L 142.0 186.5 L 139.5 187.0 L 139.5 186.0 Z" /><path desc="l 9 p 59" fill="rgb(108,119,190)" stroke="rgb(108,119,190)" stroke-width="1" opacity="0.996078431372549" d="M 143.5 186.0 L 147.0 186.5 L 143.5 187.0 L 143.5 186.0 Z" /><path desc="l 7 p 6" fill="rgb(55,70,168)" stroke="rgb(55,70,168)" stroke-width="1" opacity="0.996078431372549" d="M 52.5 187.0 L 51.5 189.0 L 52.5 187.0 Z" /><path desc="l 10 p 1" fill="rgb(82,89,145)" stroke="rgb(82,89,145)" stroke-width="1" opacity="0.34509803921568627" d="M 11.5 190.0 L 12.0 196.5 L 11.0 196.5 L 11.5 190.0 Z" /><path desc="l 7 p 7" fill="rgb(55,70,168)" stroke="rgb(55,70,168)" stroke-width="1" opacity="0.996078431372549" d="M 47.5 190.0 L 46.5 192.0 L 42.5 194.0 L 43.5 192.0 L 47.5 190.0 Z" /><path desc="l 2 p 5" fill="rgb(76,83,148)" stroke="rgb(76,83,148)" stroke-width="1" opacity="0.7333333333333333" d="M 268.5 190.0 L 269.0 203.5 L 268.0 203.5 L 268.5 190.0 Z" /><path desc="l 9 p 60" fill="rgb(108,119,190)" stroke="rgb(108,119,190)" stroke-width="1" opacity="0.996078431372549" d="M 217.5 194.0 L 216.5 196.0 L 217.5 194.0 Z" /><path desc="l 7 p 8" fill="rgb(55,70,168)" stroke="rgb(55,70,168)" stroke-width="1" opacity="0.996078431372549" d="M 38.5 195.0 L 37.5 197.0 L 38.5 195.0 Z" /><path desc="l 9 p 61" fill="rgb(108,119,190)" stroke="rgb(108,119,190)" stroke-width="1" opacity="0.996078431372549" d="M 63.5 195.0 L 64.5 197.0 L 63.5 195.0 Z" /><path desc="l 14 p 8" fill="rgb(63,70,132)" stroke="rgb(63,70,132)" stroke-width="1" opacity="0.592156862745098" d="M 11.5 197.0 L 12.0 201.5 L 11.0 201.5 L 11.5 197.0 Z" /><path desc="l 7 p 9" fill="rgb(55,70,168)" stroke="rgb(55,70,168)" stroke-width="1" opacity="0.996078431372549" d="M 64.5 197.0 L 65.5 199.0 L 64.5 197.0 Z" /><path desc="l 9 p 62" fill="rgb(108,119,190)" stroke="rgb(108,119,190)" stroke-width="1" opacity="0.996078431372549" d="M 214.5 198.0 L 212.5 201.0 L 214.5 198.0 Z" /><path desc="l 7 p 10" fill="rgb(55,70,168)" stroke="rgb(55,70,168)" stroke-width="1" opacity="0.996078431372549" d="M 31.5 199.0 L 30.5 201.0 L 28.5 202.0 L 29.5 200.0 L 31.5 199.0 Z" /><path desc="l 9 p 63" fill="rgb(108,119,190)" stroke="rgb(108,119,190)" stroke-width="1" opacity="0.996078431372549" d="M 66.5 199.0 L 68.5 202.0 L 66.5 199.0 Z" /><path desc="l 7 p 11" fill="rgb(55,70,168)" stroke="rgb(55,70,168)" stroke-width="1" opacity="0.996078431372549" d="M 26.5 202.0 L 25.5 204.0 L 24.0 203.5 L 26.5 202.0 Z" /><path desc="l 7 p 12" fill="rgb(55,70,168)" stroke="rgb(55,70,168)" stroke-width="1" opacity="0.996078431372549" d="M 211.5 202.0 L 209.5 205.0 L 211.5 202.0 Z" /><path desc="l 7 p 13" fill="rgb(55,70,168)" stroke="rgb(55,70,168)" stroke-width="1" opacity="0.996078431372549" d="M 70.5 204.0 L 75.5 210.0 L 70.5 204.0 Z" /><path desc="l 5 p 4" fill="rgb(91,105,190)" stroke="rgb(91,105,190)" stroke-width="1" opacity="0.996078431372549" d="M 208.5 205.0 L 206.5 208.0 L 208.5 205.0 Z" /><path desc="l 7 p 14" fill="rgb(55,70,168)" stroke="rgb(55,70,168)" stroke-width="1" opacity="0.996078431372549" d="M 17.5 207.0 L 17.5 210.0 L 15.5 209.0 L 14.0 209.5 L 17.5 207.0 Z" /><path desc="l 7 p 15" fill="rgb(55,70,168)" stroke="rgb(55,70,168)" stroke-width="1" opacity="0.996078431372549" d="M 205.5 208.0 L 202.5 212.0 L 205.5 208.0 Z" /><path desc="l 9 p 64" fill="rgb(108,119,190)" stroke="rgb(108,119,190)" stroke-width="1" opacity="0.996078431372549" d="M 77.5 210.0 L 79.5 213.0 L 77.5 210.0 Z" /><path desc="l 9 p 65" fill="rgb(108,119,190)" stroke="rgb(108,119,190)" stroke-width="1" opacity="0.996078431372549" d="M 200.5 212.0 L 199.5 214.0 L 200.5 212.0 Z" /><path desc="l 13 p 0" fill="rgb(64,69,121)" stroke="rgb(64,69,121)" stroke-width="1" opacity="0.09411764705882353" d="M 265.5 212.0 L 264.5 214.0 L 265.5 212.0 Z" /><path desc="l 9 p 66" fill="rgb(108,119,190)" stroke="rgb(108,119,190)" stroke-width="1" opacity="0.996078431372549" d="M 126.5 233.0 L 130.0 233.5 L 126.5 234.0 L 126.5 233.0 Z" /><path desc="l 9 p 67" fill="rgb(108,119,190)" stroke="rgb(108,119,190)" stroke-width="1" opacity="0.996078431372549" d="M 150.5 233.0 L 154.0 233.5 L 150.5 234.0 L 150.5 233.0 Z" /><path desc="l 5 p 5" fill="rgb(91,105,190)" stroke="rgb(91,105,190)" stroke-width="1" opacity="0.996078431372549" d="M 136.5 234.0 L 144.0 234.5 L 136.5 235.0 L 136.5 234.0 Z" /></svg>