<svg width="469" height="532" version="1.1" xmlns="http://www.w3.org/2000/svg" desc="Created with ImageTracer.java version 1.1.2" ><path desc="l 10 p 0" fill="rgb(208,184,58)" stroke="rgb(208,184,58)" stroke-width="1" opacity="0.996078431372549" d="M 1.5 0.0 L 3.0 0.5 L 3.0 13.5 L 4.0 20.5 Q 6.7 24.3 5.0 32.5 Q 3.0 42.0 7.0 45.5 L 7.0 47.5 L 7.5 66.0 L 9.0 65.5 L 8.5 85.0 L 5.0 48.5 L 1.5 0.0 Z" /><path desc="l 2 p 0" fill="rgb(211,183,47)" stroke="rgb(211,183,47)" stroke-width="1" opacity="0.996078431372549" d="M 3.5 0.0 L 4.5 2.0 L 5.5 0.0 L 467.0 0.5 L 466.0 9.5 L 465.0 21.5 L 465.0 28.5 L 464.0 32.5 L 464.5 34.0 L 463.0 34.5 L 463.0 49.5 L 462.0 56.5 L 460.0 62.5 Q 462.3 63.8 461.0 68.5 L 459.0 71.5 Q 462.3 72.8 461.0 78.5 L 459.0 82.5 L 459.0 90.5 L 459.0 97.5 L 458.0 101.5 L 457.0 109.5 L 456.0 114.5 Q 458.8 116.3 457.0 122.5 L 455.0 126.5 L 455.0 135.5 L 455.0 143.5 L 454.0 147.5 Q 451.5 149.0 453.0 154.5 L 452.0 169.5 L 451.0 174.5 L 451.0 183.5 Q 452.8 189.8 450.0 191.5 L 448.0 198.5 L 449.0 202.5 L 449.0 212.5 Q 445.7 216.2 447.0 224.5 L 447.0 234.5 Q 448.0 239.0 445.5 240.0 L 443.5 239.0 L 443.0 240.5 L 445.0 241.5 L 445.0 256.5 Q 446.3 261.3 444.0 262.5 Q 441.5 266.0 443.0 273.5 L 443.0 279.5 L 442.0 283.5 L 440.0 289.5 L 441.0 292.5 L 441.0 299.5 L 439.0 303.5 L 439.0 311.5 L 439.0 319.5 L 438.0 324.5 L 436.0 339.5 Q 438.5 341.0 437.0 346.5 L 435.0 347.5 L 435.0 363.5 Q 436.1 370.6 432.0 372.5 L 433.0 374.5 L 433.0 376.5 L 433.0 386.5 L 432.0 392.5 Q 429.3 396.3 431.0 404.5 L 431.0 411.5 L 430.0 415.5 L 429.0 424.5 Q 430.3 429.3 428.0 430.5 Q 430.3 431.8 429.0 436.5 Q 425.2 439.7 427.0 448.5 Q 428.3 456.8 426.0 461.5 L 424.0 473.5 L 425.0 476.5 L 410.5 481.0 L 406.5 482.0 L 401.5 483.0 L 399.5 482.0 L 397.5 485.0 L 390.0 485.5 L 390.5 487.0 Q 385.8 485.8 384.5 488.0 L 380.5 489.0 L 377.5 490.0 L 369.0 491.5 L 369.5 493.0 L 365.5 492.0 L 359.5 495.0 L 352.5 497.0 L 341.5 499.0 L 340.0 498.5 L 339.5 500.0 L 332.5 502.0 L 326.5 503.0 L 324.5 502.0 L 324.0 503.5 L 324.5 505.0 L 321.5 506.0 L 319.5 505.0 L 318.5 507.0 L 301.5 511.0 L 287.5 515.0 L 282.5 516.0 L 275.5 519.0 L 262.5 521.0 L 260.5 520.0 L 261.0 521.5 L 260.5 523.0 Q 252.8 521.8 249.5 525.0 L 238.5 529.0 L 234.5 529.0 Q 229.8 530.3 228.5 528.0 L 219.5 525.0 L 217.5 525.0 L 211.0 522.5 L 210.5 521.0 L 209.5 523.0 L 208.0 522.5 L 207.5 521.0 L 205.5 521.0 Q 200.8 522.3 199.5 520.0 L 188.5 517.0 L 172.5 513.0 L 164.0 509.5 L 162.5 507.0 L 156.5 509.0 Q 155.8 506.3 151.5 507.0 Q 146.9 507.6 145.5 505.0 Q 144.1 502.4 139.5 503.0 L 129.0 500.5 L 128.5 499.0 L 126.5 499.0 L 112.5 496.0 L 93.0 490.5 L 92.5 488.0 L 85.5 489.0 L 80.5 487.0 L 72.5 485.0 L 65.5 483.0 L 61.5 481.0 L 59.5 481.0 L 52.5 479.0 Q 48.8 479.8 48.0 477.5 L 47.5 476.0 L 46.0 476.5 L 43.0 473.5 L 43.0 457.5 L 42.0 449.5 L 41.0 438.5 L 41.0 431.5 L 40.0 427.5 L 39.0 419.5 L 39.0 410.5 L 38.0 405.5 L 37.0 399.5 L 37.0 388.5 L 37.0 386.5 L 35.0 379.5 L 37.0 378.5 L 36.0 376.5 L 37.0 371.5 L 36.0 371.5 L 35.5 374.0 L 35.0 364.5 L 34.0 359.5 L 33.0 351.5 L 32.5 336.0 L 31.0 335.5 L 31.0 328.5 L 32.0 325.5 Q 29.8 324.3 31.0 319.5 L 29.0 306.5 L 29.0 304.5 Q 30.7 294.8 27.0 290.5 L 27.0 288.5 L 27.0 279.5 L 26.0 273.5 Q 23.5 270.0 25.0 262.5 L 25.0 254.5 L 24.0 250.5 Q 21.5 249.0 23.0 243.5 L 23.0 232.5 L 22.0 227.5 L 24.0 226.5 L 22.0 225.5 L 21.0 220.5 L 21.0 208.5 L 22.0 206.5 L 20.5 204.0 L 19.0 203.5 L 19.0 188.5 L 18.0 181.5 Q 15.7 178.3 17.0 171.5 L 17.0 163.5 L 16.0 159.5 Q 13.5 158.0 15.0 152.5 L 15.0 142.5 L 14.0 136.5 L 13.0 122.5 L 12.0 114.5 L 11.0 105.5 L 11.0 88.5 L 12.0 83.5 L 10.0 82.5 L 9.5 89.0 L 8.5 65.0 L 7.0 65.5 L 7.0 52.5 Q 8.3 47.8 6.0 46.5 L 6.0 44.5 L 5.0 36.5 L 5.0 26.5 L 4.0 20.5 L 3.0 13.5 L 3.5 0.0 Z" /><path desc="l 10 p 1" fill="rgb(208,184,58)" stroke="rgb(208,184,58)" stroke-width="1" opacity="0.996078431372549" d="M 467.5 0.0 L 468.0 3.5 L 467.0 3.5 L 467.5 0.0 Z" /><path desc="l 9 p 0" fill="rgb(232,220,155)" stroke="rgb(232,220,155)" stroke-width="1" opacity="0.2549019607843137" d="M 0.5 1.0 L 1.0 4.5 L 0.0 4.5 L 0.5 1.0 Z" /><path desc="l 12 p 0" fill="rgb(201,182,86)" stroke="rgb(201,182,86)" stroke-width="1" opacity="0.8431372549019608" d="M 467.5 4.0 L 468.0 6.5 L 467.0 6.5 L 467.5 4.0 Z" /><path desc="l 15 p 0" fill="rgb(249,243,199)" stroke="rgb(249,243,199)" stroke-width="1" opacity="0.07058823529411765" d="M 0.5 5.0 L 1.0 7.5 L 0.0 7.5 L 0.5 5.0 Z" /><path desc="l 13 p 0" fill="rgb(198,182,91)" stroke="rgb(198,182,91)" stroke-width="1" opacity="0.6941176470588235" d="M 1.5 6.0 L 2.0 10.5 L 1.0 10.5 L 1.5 6.0 Z" /><path desc="l 10 p 2" fill="rgb(208,184,58)" stroke="rgb(208,184,58)" stroke-width="1" opacity="0.996078431372549" d="M 464.5 6.0 L 466.0 6.5 Q 468.7 10.3 467.0 18.5 L 466.0 21.5 L 465.5 28.0 L 465.0 12.5 L 466.0 8.5 L 464.0 7.5 L 464.5 6.0 Z" /><path desc="l 13 p 1" fill="rgb(198,182,91)" stroke="rgb(198,182,91)" stroke-width="1" opacity="0.6941176470588235" d="M 467.5 7.0 L 468.0 10.5 L 467.0 10.5 L 467.5 7.0 Z" /><path desc="l 3 p 0" fill="rgb(0,0,0)" stroke="rgb(0,0,0)" stroke-width="1" opacity="0.0" d="M 0.5 8.0 L 2.0 27.5 L 5.0 61.5 L 9.0 104.5 L 13.0 147.5 L 16.0 187.5 L 19.0 215.5 L 22.0 250.5 L 24.0 273.5 L 24.5 282.0 L 26.0 290.5 L 27.0 313.5 L 28.5 323.0 L 29.0 330.5 Q 27.7 337.3 30.0 340.5 L 33.0 376.5 L 38.0 432.5 Q 40.5 434.0 39.0 439.5 L 40.0 455.5 L 42.0 474.5 Q 41.0 479.0 43.5 480.0 Q 48.3 478.8 49.5 481.0 L 56.5 483.0 L 87.5 491.0 L 108.5 497.0 L 113.5 499.0 L 124.5 502.0 L 130.5 503.0 L 185.0 518.5 L 233.0 531.5 L 0.5 532.0 L 0.5 8.0 Z" /><path desc="l 3 p 1" fill="rgb(0,0,0)" stroke="rgb(0,0,0)" stroke-width="1" opacity="0.0" d="M 468.5 8.0 L 469.0 531.5 L 235.5 532.0 L 235.5 531.0 Q 240.3 532.3 241.5 530.0 L 245.5 529.0 L 250.5 527.0 L 258.0 525.5 L 273.5 521.0 Q 278.9 517.9 287.5 518.0 L 313.5 510.0 L 337.0 503.5 L 364.5 496.0 L 427.0 478.5 L 429.5 447.0 L 430.0 435.5 L 431.0 427.5 L 432.0 416.5 L 436.0 375.5 L 437.0 364.5 L 438.5 344.0 L 439.5 339.0 L 440.0 331.5 L 441.0 319.5 L 444.0 283.5 L 447.0 252.5 L 448.0 238.5 L 450.0 216.5 L 453.5 178.0 L 454.0 170.5 L 455.0 165.5 L 456.0 147.5 L 457.0 136.5 L 460.0 104.5 L 464.0 62.5 L 467.0 27.5 L 468.5 8.0 Z" /><path desc="l 7 p 0" fill="rgb(216,202,131)" stroke="rgb(216,202,131)" stroke-width="1" opacity="0.7333333333333333" d="M 467.5 11.0 L 468.0 14.5 L 467.0 14.5 L 467.5 11.0 Z" /><path desc="l 6 p 0" fill="rgb(227,215,152)" stroke="rgb(227,215,152)" stroke-width="1" opacity="0.4196078431372549" d="M 1.5 12.0 L 2.0 15.5 L 1.0 15.5 L 1.5 12.0 Z" /><path desc="l 15 p 1" fill="rgb(249,243,199)" stroke="rgb(249,243,199)" stroke-width="1" opacity="0.07058823529411765" d="M 1.5 17.0 L 2.0 23.5 L 1.0 23.5 L 1.5 17.0 Z" /><path desc="l 15 p 2" fill="rgb(249,243,199)" stroke="rgb(249,243,199)" stroke-width="1" opacity="0.07058823529411765" d="M 467.5 18.0 L 468.0 23.5 L 467.0 23.5 L 467.5 18.0 Z" /><path desc="l 12 p 1" fill="rgb(201,182,86)" stroke="rgb(201,182,86)" stroke-width="1" opacity="0.8431372549019608" d="M 466.5 19.0 L 467.0 22.5 L 466.0 22.5 L 466.5 19.0 Z" /><path desc="l 6 p 1" fill="rgb(227,215,152)" stroke="rgb(227,215,152)" stroke-width="1" opacity="0.4196078431372549" d="M 2.5 24.0 L 3.0 26.5 L 2.0 26.5 L 2.5 24.0 Z" /><path desc="l 6 p 2" fill="rgb(227,215,152)" stroke="rgb(227,215,152)" stroke-width="1" opacity="0.4196078431372549" d="M 466.5 24.0 L 467.0 26.5 L 466.0 26.5 L 466.5 24.0 Z" /><path desc="l 15 p 3" fill="rgb(249,243,199)" stroke="rgb(249,243,199)" stroke-width="1" opacity="0.07058823529411765" d="M 2.5 28.0 L 3.0 30.5 L 2.0 30.5 L 2.5 28.0 Z" /><path desc="l 15 p 4" fill="rgb(249,243,199)" stroke="rgb(249,243,199)" stroke-width="1" opacity="0.07058823529411765" d="M 466.5 28.0 L 467.0 30.5 L 466.0 30.5 L 466.5 28.0 Z" /><path desc="l 13 p 2" fill="rgb(198,182,91)" stroke="rgb(198,182,91)" stroke-width="1" opacity="0.6941176470588235" d="M 465.5 30.0 L 466.0 33.5 L 465.0 33.5 L 465.5 30.0 Z" /><path desc="l 7 p 1" fill="rgb(216,202,131)" stroke="rgb(216,202,131)" stroke-width="1" opacity="0.7333333333333333" d="M 3.5 33.0 L 4.0 38.5 L 3.0 38.5 L 3.5 33.0 Z" /><path desc="l 10 p 3" fill="rgb(208,184,58)" stroke="rgb(208,184,58)" stroke-width="1" opacity="0.996078431372549" d="M 463.5 34.0 L 465.0 34.5 L 463.5 51.0 L 463.5 34.0 Z" /><path desc="l 6 p 3" fill="rgb(227,215,152)" stroke="rgb(227,215,152)" stroke-width="1" opacity="0.4196078431372549" d="M 465.5 36.0 L 466.0 38.5 L 465.0 38.5 L 465.5 36.0 Z" /><path desc="l 5 p 0" fill="rgb(252,217,61)" stroke="rgb(252,217,61)" stroke-width="1" opacity="1.0" d="M 235.5 39.0 L 426.0 39.5 L 423.0 80.5 L 422.0 85.5 L 421.0 97.5 L 420.0 114.5 L 419.0 118.5 L 419.0 126.5 Q 416.8 127.8 418.0 132.5 L 416.0 147.5 Q 417.5 153.0 415.0 154.5 L 415.0 156.5 L 408.0 239.5 L 406.0 262.5 Q 407.3 267.3 405.0 268.5 L 405.0 270.5 L 404.0 285.5 L 402.0 303.5 L 401.5 315.0 L 400.0 331.5 L 395.0 388.5 L 392.5 418.0 L 390.0 439.5 Q 390.8 445.3 388.5 448.0 L 302.5 472.0 L 270.5 481.0 L 235.5 491.0 L 235.5 39.0 Z" /><path desc="l 15 p 5" fill="rgb(249,243,199)" stroke="rgb(249,243,199)" stroke-width="1" opacity="0.07058823529411765" d="M 3.5 41.0 L 4.0 46.5 L 3.0 46.5 L 3.5 41.0 Z" /><path desc="l 15 p 6" fill="rgb(249,243,199)" stroke="rgb(249,243,199)" stroke-width="1" opacity="0.07058823529411765" d="M 465.5 41.0 L 466.0 46.5 L 465.0 46.5 L 465.5 41.0 Z" /><path desc="l 10 p 4" fill="rgb(208,184,58)" stroke="rgb(208,184,58)" stroke-width="1" opacity="0.996078431372549" d="M 9.5 45.0 L 10.0 47.5 L 9.0 47.5 L 9.5 45.0 Z" /><path desc="l 6 p 4" fill="rgb(227,215,152)" stroke="rgb(227,215,152)" stroke-width="1" opacity="0.4196078431372549" d="M 4.5 46.0 L 5.0 49.5 L 4.0 49.5 L 4.5 46.0 Z" /><path desc="l 6 p 5" fill="rgb(227,215,152)" stroke="rgb(227,215,152)" stroke-width="1" opacity="0.4196078431372549" d="M 464.5 46.0 L 465.0 49.5 L 464.0 49.5 L 464.5 46.0 Z" /><path desc="l 10 p 5" fill="rgb(208,184,58)" stroke="rgb(208,184,58)" stroke-width="1" opacity="0.996078431372549" d="M 460.5 48.0 L 461.5 50.0 L 460.0 49.5 L 460.5 48.0 Z" /><path desc="l 10 p 6" fill="rgb(208,184,58)" stroke="rgb(208,184,58)" stroke-width="1" opacity="0.996078431372549" d="M 11.5 49.0 L 12.0 51.5 L 11.0 51.5 L 11.5 49.0 Z" /><path desc="l 12 p 2" fill="rgb(201,182,86)" stroke="rgb(201,182,86)" stroke-width="1" opacity="0.8431372549019608" d="M 5.5 51.0 L 6.0 54.5 L 5.0 54.5 L 5.5 51.0 Z" /><path desc="l 10 p 7" fill="rgb(208,184,58)" stroke="rgb(208,184,58)" stroke-width="1" opacity="0.996078431372549" d="M 453.5 51.0 L 455.0 51.5 L 457.0 57.5 L 455.5 58.0 Q 451.8 56.0 453.5 51.0 Z" /><path desc="l 12 p 3" fill="rgb(201,182,86)" stroke="rgb(201,182,86)" stroke-width="1" opacity="0.8431372549019608" d="M 463.5 51.0 L 464.0 54.5 L 463.0 54.5 L 463.5 51.0 Z" /><path desc="l 15 p 7" fill="rgb(249,243,199)" stroke="rgb(249,243,199)" stroke-width="1" opacity="0.07058823529411765" d="M 464.5 51.0 L 465.0 53.5 L 464.0 53.5 L 464.5 51.0 Z" /><path desc="l 10 p 8" fill="rgb(208,184,58)" stroke="rgb(208,184,58)" stroke-width="1" opacity="0.996078431372549" d="M 462.5 55.0 L 463.0 64.5 L 461.5 73.0 L 459.0 71.5 Q 462.0 69.5 461.0 63.5 L 461.0 61.5 L 462.5 55.0 Z" /><path desc="l 1 p 0" fill="rgb(238,226,166)" stroke="rgb(238,226,166)" stroke-width="1" opacity="0.18823529411764706" d="M 463.5 58.0 L 464.0 60.5 L 463.0 60.5 L 463.5 58.0 Z" /><path desc="l 15 p 8" fill="rgb(249,243,199)" stroke="rgb(249,243,199)" stroke-width="1" opacity="0.07058823529411765" d="M 5.5 61.0 L 6.0 69.5 L 5.0 69.5 L 5.5 61.0 Z" /><path desc="l 15 p 9" fill="rgb(249,243,199)" stroke="rgb(249,243,199)" stroke-width="1" opacity="0.07058823529411765" d="M 463.5 61.0 L 464.0 69.5 L 463.0 69.5 L 463.5 61.0 Z" /><path desc="l 12 p 4" fill="rgb(201,182,86)" stroke="rgb(201,182,86)" stroke-width="1" opacity="0.8431372549019608" d="M 462.5 65.0 L 463.0 67.5 L 462.0 67.5 L 462.5 65.0 Z" /><path desc="l 6 p 6" fill="rgb(227,215,152)" stroke="rgb(227,215,152)" stroke-width="1" opacity="0.4196078431372549" d="M 462.5 69.0 L 463.0 72.5 L 462.0 72.5 L 462.5 69.0 Z" /><path desc="l 6 p 7" fill="rgb(227,215,152)" stroke="rgb(227,215,152)" stroke-width="1" opacity="0.4196078431372549" d="M 6.5 70.0 L 7.0 72.5 L 6.0 72.5 L 6.5 70.0 Z" /><path desc="l 12 p 5" fill="rgb(201,182,86)" stroke="rgb(201,182,86)" stroke-width="1" opacity="0.8431372549019608" d="M 7.5 73.0 L 8.0 78.5 L 7.0 78.5 L 7.5 73.0 Z" /><path desc="l 12 p 6" fill="rgb(201,182,86)" stroke="rgb(201,182,86)" stroke-width="1" opacity="0.8431372549019608" d="M 461.5 73.0 L 462.0 77.5 L 461.0 77.5 L 461.5 73.0 Z" /><path desc="l 15 p 10" fill="rgb(249,243,199)" stroke="rgb(249,243,199)" stroke-width="1" opacity="0.07058823529411765" d="M 6.5 74.0 L 7.0 76.5 L 6.0 76.5 L 6.5 74.0 Z" /><path desc="l 15 p 11" fill="rgb(249,243,199)" stroke="rgb(249,243,199)" stroke-width="1" opacity="0.07058823529411765" d="M 462.5 74.0 L 463.0 76.5 L 462.0 76.5 L 462.5 74.0 Z" /><path desc="l 10 p 9" fill="rgb(208,184,58)" stroke="rgb(208,184,58)" stroke-width="1" opacity="0.996078431372549" d="M 460.5 79.0 L 461.0 84.5 L 460.0 88.5 L 459.5 97.0 L 459.0 80.5 L 460.5 79.0 Z" /><path desc="l 1 p 1" fill="rgb(238,226,166)" stroke="rgb(238,226,166)" stroke-width="1" opacity="0.18823529411764706" d="M 461.5 81.0 L 462.0 84.5 L 461.0 84.5 L 461.5 81.0 Z" /><path desc="l 1 p 2" fill="rgb(238,226,166)" stroke="rgb(238,226,166)" stroke-width="1" opacity="0.18823529411764706" d="M 7.5 82.0 L 8.0 84.5 L 7.0 84.5 L 7.5 82.0 Z" /><path desc="l 10 p 10" fill="rgb(208,184,58)" stroke="rgb(208,184,58)" stroke-width="1" opacity="0.996078431372549" d="M 10.5 82.0 Q 13.0 83.0 12.0 87.5 Q 9.8 88.8 11.0 93.5 L 10.5 108.0 L 9.0 89.5 L 10.5 82.0 Z" /><path desc="l 10 p 11" fill="rgb(208,184,58)" stroke="rgb(208,184,58)" stroke-width="1" opacity="0.996078431372549" d="M 90.5 83.0 L 92.0 83.5 L 91.5 86.0 L 90.5 83.0 Z" /><path desc="l 15 p 12" fill="rgb(249,243,199)" stroke="rgb(249,243,199)" stroke-width="1" opacity="0.07058823529411765" d="M 7.5 85.0 L 8.0 87.5 L 7.0 87.5 L 7.5 85.0 Z" /><path desc="l 15 p 13" fill="rgb(249,243,199)" stroke="rgb(249,243,199)" stroke-width="1" opacity="0.07058823529411765" d="M 461.5 85.0 L 462.0 87.5 L 461.0 87.5 L 461.5 85.0 Z" /><path desc="l 8 p 0" fill="rgb(200,181,83)" stroke="rgb(200,181,83)" stroke-width="1" opacity="0.49411764705882355" d="M 8.5 86.0 L 9.0 91.5 L 8.0 91.5 L 8.5 86.0 Z" /><path desc="l 10 p 12" fill="rgb(208,184,58)" stroke="rgb(208,184,58)" stroke-width="1" opacity="0.996078431372549" d="M 86.5 87.0 L 87.5 89.0 L 86.0 88.5 L 86.5 87.0 Z" /><path desc="l 8 p 1" fill="rgb(200,181,83)" stroke="rgb(200,181,83)" stroke-width="1" opacity="0.49411764705882355" d="M 460.5 87.0 L 461.0 91.5 L 460.0 91.5 L 460.5 87.0 Z" /><path desc="l 10 p 13" fill="rgb(208,184,58)" stroke="rgb(208,184,58)" stroke-width="1" opacity="0.996078431372549" d="M 82.5 90.0 L 84.0 90.5 L 83.5 92.0 L 82.0 91.5 L 82.5 90.0 Z" /><path desc="l 10 p 14" fill="rgb(208,184,58)" stroke="rgb(208,184,58)" stroke-width="1" opacity="0.996078431372549" d="M 452.5 90.0 L 454.0 94.5 L 452.5 95.0 L 452.5 90.0 Z" /><path desc="l 10 p 15" fill="rgb(208,184,58)" stroke="rgb(208,184,58)" stroke-width="1" opacity="0.996078431372549" d="M 88.5 91.0 L 93.5 92.0 Q 95.3 89.3 101.5 91.0 L 124.5 91.0 L 214.5 91.0 L 216.5 92.0 L 220.0 91.5 L 222.0 95.5 Q 219.8 96.8 221.0 101.5 L 221.0 116.5 L 221.0 177.5 L 221.0 419.5 L 223.0 422.5 L 222.0 422.5 L 221.5 421.0 L 220.0 421.5 L 219.5 423.0 L 216.5 424.0 L 211.0 421.5 Q 212.3 418.8 213.5 421.0 L 216.5 422.0 L 219.0 421.5 L 218.5 93.0 L 121.5 93.0 L 96.5 93.0 L 90.5 93.0 L 87.5 94.0 L 88.0 92.5 L 88.5 91.0 Z" /><path desc="l 6 p 8" fill="rgb(227,215,152)" stroke="rgb(227,215,152)" stroke-width="1" opacity="0.4196078431372549" d="M 8.5 92.0 L 9.0 95.5 L 8.0 95.5 L 8.5 92.0 Z" /><path desc="l 6 p 9" fill="rgb(227,215,152)" stroke="rgb(227,215,152)" stroke-width="1" opacity="0.4196078431372549" d="M 460.5 92.0 L 461.0 95.5 L 460.0 95.5 L 460.5 92.0 Z" /><path desc="l 0 p 0" fill="rgb(76,78,74)" stroke="rgb(76,78,74)" stroke-width="1" opacity="1.0" d="M 89.5 93.0 L 92.0 93.5 L 89.5 94.0 L 89.5 93.0 Z" /><path desc="l 2 p 1" fill="rgb(211,183,47)" stroke="rgb(211,183,47)" stroke-width="1" opacity="0.996078431372549" d="M 92.5 93.0 L 212.0 93.5 L 92.5 94.0 L 92.5 93.0 Z" /><path desc="l 0 p 1" fill="rgb(76,78,74)" stroke="rgb(76,78,74)" stroke-width="1" opacity="1.0" d="M 212.5 93.0 L 215.0 93.5 L 212.5 94.0 L 212.5 93.0 Z" /><path desc="l 2 p 2" fill="rgb(211,183,47)" stroke="rgb(211,183,47)" stroke-width="1" opacity="0.996078431372549" d="M 215.5 93.0 L 219.0 93.5 L 215.5 94.0 L 215.5 93.0 Z" /><path desc="l 10 p 16" fill="rgb(208,184,58)" stroke="rgb(208,184,58)" stroke-width="1" opacity="0.996078431372549" d="M 252.5 93.0 L 404.0 93.5 L 252.5 94.0 L 252.5 93.0 Z" /><path desc="l 10 p 17" fill="rgb(208,184,58)" stroke="rgb(208,184,58)" stroke-width="1" opacity="0.996078431372549" d="M 14.5 94.0 L 16.0 94.5 L 15.5 96.0 L 14.5 94.0 Z" /><path desc="l 11 p 0" fill="rgb(0,0,0)" stroke="rgb(0,0,0)" stroke-width="1" opacity="1.0" d="M 88.5 94.0 L 219.0 94.5 L 218.5 421.0 L 168.5 412.0 L 136.5 405.0 L 72.0 392.5 L 64.0 300.5 L 122.5 300.0 L 124.5 319.0 L 125.0 330.5 Q 127.3 331.8 126.0 336.5 L 127.5 347.0 L 159.5 352.0 L 160.0 152.5 L 158.5 153.0 L 93.0 152.5 L 88.5 94.0 Z" /><path desc="l 0 p 2" fill="rgb(76,78,74)" stroke="rgb(76,78,74)" stroke-width="1" opacity="1.0" d="M 251.5 94.0 L 405.0 94.5 L 402.0 129.5 L 399.5 153.0 Q 394.0 154.5 392.5 152.0 L 389.5 153.0 L 386.5 152.0 L 384.5 152.0 L 382.5 153.0 L 380.5 153.0 L 377.5 152.0 L 375.5 152.0 L 373.5 153.0 L 371.5 152.0 L 369.5 152.0 L 366.5 153.0 L 364.5 152.0 L 362.5 153.0 L 360.5 152.0 L 358.5 152.0 L 355.5 153.0 L 352.5 152.0 L 350.5 153.0 L 348.5 153.0 L 345.5 152.0 L 343.5 152.0 L 340.5 153.0 L 338.5 152.0 L 336.5 153.0 L 334.5 152.0 L 332.5 152.0 L 330.5 153.0 L 328.5 152.0 L 326.5 152.0 L 323.5 153.0 L 320.5 152.0 L 318.5 153.0 L 316.5 152.0 L 314.5 153.0 Q 313.3 150.8 312.0 153.5 L 312.5 212.0 L 316.5 213.0 L 321.5 212.0 L 333.5 212.0 L 382.5 212.0 L 385.5 213.0 L 389.5 212.0 L 391.5 213.0 L 393.5 213.0 L 395.0 213.5 L 391.0 254.5 L 383.0 341.5 L 381.0 364.5 L 380.0 380.5 Q 377.8 381.8 379.0 386.5 Q 379.8 391.3 377.5 393.0 L 251.5 421.0 L 251.0 360.5 L 301.5 351.0 L 316.0 348.5 L 324.0 346.5 L 329.0 290.5 L 330.0 279.5 L 331.0 271.5 L 251.0 270.5 L 251.5 94.0 Z" /><path desc="l 10 p 18" fill="rgb(208,184,58)" stroke="rgb(208,184,58)" stroke-width="1" opacity="0.996078431372549" d="M 87.5 96.0 L 89.0 104.5 L 88.0 107.5 L 90.0 115.5 L 87.0 113.5 L 87.5 96.0 Z" /><path desc="l 12 p 7" fill="rgb(201,182,86)" stroke="rgb(201,182,86)" stroke-width="1" opacity="0.8431372549019608" d="M 9.5 97.0 L 10.0 101.5 L 9.0 101.5 L 9.5 97.0 Z" /><path desc="l 12 p 8" fill="rgb(201,182,86)" stroke="rgb(201,182,86)" stroke-width="1" opacity="0.8431372549019608" d="M 459.5 97.0 L 460.0 101.5 L 459.0 101.5 L 459.5 97.0 Z" /><path desc="l 0 p 3" fill="rgb(76,78,74)" stroke="rgb(76,78,74)" stroke-width="1" opacity="1.0" d="M 88.5 100.0 L 89.0 102.5 L 88.0 102.5 L 88.5 100.0 Z" /><path desc="l 10 p 19" fill="rgb(208,184,58)" stroke="rgb(208,184,58)" stroke-width="1" opacity="0.996078431372549" d="M 458.5 101.0 L 459.0 106.5 L 458.0 111.5 L 457.5 121.0 L 456.0 114.5 Q 458.5 113.0 457.0 107.5 Q 456.3 102.8 458.5 101.0 Z" /><path desc="l 9 p 1" fill="rgb(232,220,155)" stroke="rgb(232,220,155)" stroke-width="1" opacity="0.2549019607843137" d="M 9.5 104.0 L 10.0 106.5 L 9.0 106.5 L 9.5 104.0 Z" /><path desc="l 5 p 1" fill="rgb(252,217,61)" stroke="rgb(252,217,61)" stroke-width="1" opacity="1.0" d="M 88.5 105.0 L 89.0 107.5 L 88.0 107.5 L 88.5 105.0 Z" /><path desc="l 15 p 14" fill="rgb(249,243,199)" stroke="rgb(249,243,199)" stroke-width="1" opacity="0.07058823529411765" d="M 459.5 107.0 L 460.0 109.5 L 459.0 109.5 L 459.5 107.0 Z" /><path desc="l 15 p 15" fill="rgb(249,243,199)" stroke="rgb(249,243,199)" stroke-width="1" opacity="0.07058823529411765" d="M 9.5 108.0 L 10.0 111.5 L 9.0 111.5 L 9.5 108.0 Z" /><path desc="l 13 p 3" fill="rgb(198,182,91)" stroke="rgb(198,182,91)" stroke-width="1" opacity="0.6941176470588235" d="M 10.5 108.0 L 11.0 113.5 L 10.0 113.5 L 10.5 108.0 Z" /><path desc="l 13 p 4" fill="rgb(198,182,91)" stroke="rgb(198,182,91)" stroke-width="1" opacity="0.6941176470588235" d="M 458.5 108.0 L 459.0 110.5 L 458.0 110.5 L 458.5 108.0 Z" /><path desc="l 8 p 2" fill="rgb(200,181,83)" stroke="rgb(200,181,83)" stroke-width="1" opacity="0.49411764705882355" d="M 458.5 111.0 L 459.0 114.5 L 458.0 114.5 L 458.5 111.0 Z" /><path desc="l 10 p 20" fill="rgb(208,184,58)" stroke="rgb(208,184,58)" stroke-width="1" opacity="0.996078431372549" d="M 11.5 112.0 Q 14.8 118.8 13.0 130.5 L 12.0 130.5 L 11.5 112.0 Z" /><path desc="l 6 p 10" fill="rgb(227,215,152)" stroke="rgb(227,215,152)" stroke-width="1" opacity="0.4196078431372549" d="M 10.5 115.0 L 11.0 118.5 L 10.0 118.5 L 10.5 115.0 Z" /><path desc="l 10 p 21" fill="rgb(208,184,58)" stroke="rgb(208,184,58)" stroke-width="1" opacity="0.996078431372549" d="M 450.5 115.0 Q 452.8 115.8 452.0 119.5 L 450.0 118.5 L 450.5 115.0 Z" /><path desc="l 6 p 11" fill="rgb(227,215,152)" stroke="rgb(227,215,152)" stroke-width="1" opacity="0.4196078431372549" d="M 458.5 115.0 L 459.0 118.5 L 458.0 118.5 L 458.5 115.0 Z" /><path desc="l 5 p 2" fill="rgb(252,217,61)" stroke="rgb(252,217,61)" stroke-width="1" opacity="1.0" d="M 89.5 116.0 L 90.0 118.5 L 89.0 118.5 L 89.5 116.0 Z" /><path desc="l 10 p 22" fill="rgb(208,184,58)" stroke="rgb(208,184,58)" stroke-width="1" opacity="0.996078431372549" d="M 83.5 119.0 L 84.0 123.5 L 82.0 124.5 Q 81.0 120.0 83.5 119.0 Z" /><path desc="l 10 p 23" fill="rgb(208,184,58)" stroke="rgb(208,184,58)" stroke-width="1" opacity="0.996078431372549" d="M 89.5 119.0 L 91.0 125.5 L 90.0 128.5 L 91.0 131.5 L 92.0 137.5 L 90.5 138.0 Q 88.0 137.0 89.0 132.5 L 88.0 124.5 L 89.5 119.0 Z" /><path desc="l 12 p 9" fill="rgb(201,182,86)" stroke="rgb(201,182,86)" stroke-width="1" opacity="0.8431372549019608" d="M 457.5 121.0 L 458.0 124.5 L 457.0 124.5 L 457.5 121.0 Z" /><path desc="l 10 p 24" fill="rgb(208,184,58)" stroke="rgb(208,184,58)" stroke-width="1" opacity="0.996078431372549" d="M 456.5 123.0 L 457.0 130.5 L 456.0 135.5 L 455.5 145.0 L 455.0 124.5 L 456.5 123.0 Z" /><path desc="l 5 p 3" fill="rgb(252,217,61)" stroke="rgb(252,217,61)" stroke-width="1" opacity="1.0" d="M 90.5 126.0 L 91.0 128.5 L 90.0 128.5 L 90.5 126.0 Z" /><path desc="l 9 p 2" fill="rgb(232,220,155)" stroke="rgb(232,220,155)" stroke-width="1" opacity="0.2549019607843137" d="M 11.5 127.0 L 12.0 130.5 L 11.0 130.5 L 11.5 127.0 Z" /><path desc="l 9 p 3" fill="rgb(232,220,155)" stroke="rgb(232,220,155)" stroke-width="1" opacity="0.2549019607843137" d="M 457.5 127.0 L 458.0 130.5 L 457.0 130.5 L 457.5 127.0 Z" /><path desc="l 13 p 5" fill="rgb(198,182,91)" stroke="rgb(198,182,91)" stroke-width="1" opacity="0.6941176470588235" d="M 12.5 131.0 L 13.0 135.5 L 12.0 135.5 L 12.5 131.0 Z" /><path desc="l 13 p 6" fill="rgb(198,182,91)" stroke="rgb(198,182,91)" stroke-width="1" opacity="0.6941176470588235" d="M 456.5 131.0 L 457.0 134.5 L 456.0 134.5 L 456.5 131.0 Z" /><path desc="l 10 p 25" fill="rgb(208,184,58)" stroke="rgb(208,184,58)" stroke-width="1" opacity="0.996078431372549" d="M 13.5 133.0 Q 16.6 140.9 15.0 153.5 L 14.0 153.5 L 13.5 133.0 Z" /><path desc="l 10 p 26" fill="rgb(208,184,58)" stroke="rgb(208,184,58)" stroke-width="1" opacity="0.996078431372549" d="M 91.5 140.0 L 93.0 148.5 L 92.0 150.5 L 93.5 153.0 L 159.0 153.5 L 158.5 155.0 L 111.5 155.0 L 99.5 155.0 L 94.5 156.0 Q 93.3 153.3 89.0 153.5 L 91.0 152.5 Q 92.5 146.5 89.5 145.0 L 88.5 147.0 L 86.0 145.5 L 86.5 143.0 L 91.0 144.5 L 91.5 140.0 Z" /><path desc="l 12 p 10" fill="rgb(201,182,86)" stroke="rgb(201,182,86)" stroke-width="1" opacity="0.8431372549019608" d="M 13.5 145.0 L 14.0 147.5 L 13.0 147.5 L 13.5 145.0 Z" /><path desc="l 10 p 27" fill="rgb(208,184,58)" stroke="rgb(208,184,58)" stroke-width="1" opacity="0.996078431372549" d="M 451.5 145.0 L 452.0 151.5 L 451.0 151.5 L 451.5 145.0 Z" /><path desc="l 10 p 28" fill="rgb(208,184,58)" stroke="rgb(208,184,58)" stroke-width="1" opacity="0.996078431372549" d="M 80.5 147.0 L 84.0 148.5 L 80.5 150.0 L 80.5 147.0 Z" /><path desc="l 10 p 29" fill="rgb(208,184,58)" stroke="rgb(208,184,58)" stroke-width="1" opacity="0.996078431372549" d="M 454.5 147.0 L 455.0 152.5 L 454.0 155.5 L 454.0 163.5 Q 451.8 164.8 453.0 169.5 L 451.5 187.0 L 451.0 171.5 L 452.5 164.0 L 453.0 156.5 L 453.0 150.5 L 454.5 147.0 Z" /><path desc="l 9 p 4" fill="rgb(232,220,155)" stroke="rgb(232,220,155)" stroke-width="1" opacity="0.2549019607843137" d="M 455.5 149.0 L 456.0 152.5 L 455.0 152.5 L 455.5 149.0 Z" /><path desc="l 9 p 5" fill="rgb(232,220,155)" stroke="rgb(232,220,155)" stroke-width="1" opacity="0.2549019607843137" d="M 13.5 150.0 L 14.0 153.5 L 13.0 153.5 L 13.5 150.0 Z" /><path desc="l 5 p 4" fill="rgb(252,217,61)" stroke="rgb(252,217,61)" stroke-width="1" opacity="1.0" d="M 159.5 153.0 L 160.0 176.5 L 159.0 176.5 L 159.5 153.0 Z" /><path desc="l 10 p 30" fill="rgb(208,184,58)" stroke="rgb(208,184,58)" stroke-width="1" opacity="0.996078431372549" d="M 84.5 154.0 L 87.0 154.5 L 85.5 159.0 L 84.0 158.5 L 84.5 154.0 Z" /><path desc="l 13 p 7" fill="rgb(198,182,91)" stroke="rgb(198,182,91)" stroke-width="1" opacity="0.6941176470588235" d="M 454.5 154.0 L 455.0 157.5 L 454.0 157.5 L 454.5 154.0 Z" /><path desc="l 13 p 8" fill="rgb(198,182,91)" stroke="rgb(198,182,91)" stroke-width="1" opacity="0.6941176470588235" d="M 14.5 155.0 L 15.0 158.5 L 14.0 158.5 L 14.5 155.0 Z" /><path desc="l 10 p 31" fill="rgb(208,184,58)" stroke="rgb(208,184,58)" stroke-width="1" opacity="0.996078431372549" d="M 90.5 158.0 L 91.5 160.0 L 90.5 158.0 Z" /><path desc="l 10 p 32" fill="rgb(208,184,58)" stroke="rgb(208,184,58)" stroke-width="1" opacity="0.996078431372549" d="M 15.5 159.0 Q 18.0 160.0 17.0 164.5 L 17.0 176.5 L 16.0 176.5 L 15.5 159.0 Z" /><path desc="l 15 p 16" fill="rgb(249,243,199)" stroke="rgb(249,243,199)" stroke-width="1" opacity="0.07058823529411765" d="M 14.5 161.0 L 15.0 166.5 L 14.0 166.5 L 14.5 161.0 Z" /><path desc="l 15 p 17" fill="rgb(249,243,199)" stroke="rgb(249,243,199)" stroke-width="1" opacity="0.07058823529411765" d="M 454.5 161.0 L 455.0 165.5 L 454.0 165.5 L 454.5 161.0 Z" /><path desc="l 8 p 3" fill="rgb(200,181,83)" stroke="rgb(200,181,83)" stroke-width="1" opacity="0.49411764705882355" d="M 453.5 165.0 L 454.0 169.5 L 453.0 169.5 L 453.5 165.0 Z" /><path desc="l 8 p 4" fill="rgb(200,181,83)" stroke="rgb(200,181,83)" stroke-width="1" opacity="0.49411764705882355" d="M 15.5 166.0 L 16.0 168.5 L 15.0 168.5 L 15.5 166.0 Z" /><path desc="l 6 p 12" fill="rgb(227,215,152)" stroke="rgb(227,215,152)" stroke-width="1" opacity="0.4196078431372549" d="M 15.5 169.0 L 16.0 174.5 L 15.0 174.5 L 15.5 169.0 Z" /><path desc="l 6 p 13" fill="rgb(227,215,152)" stroke="rgb(227,215,152)" stroke-width="1" opacity="0.4196078431372549" d="M 453.5 170.0 L 454.0 172.5 L 453.0 172.5 L 453.5 170.0 Z" /><path desc="l 9 p 6" fill="rgb(232,220,155)" stroke="rgb(232,220,155)" stroke-width="1" opacity="0.2549019607843137" d="M 453.5 173.0 L 454.0 175.5 L 453.0 175.5 L 453.5 173.0 Z" /><path desc="l 10 p 33" fill="rgb(208,184,58)" stroke="rgb(208,184,58)" stroke-width="1" opacity="0.996078431372549" d="M 158.5 176.0 Q 161.5 177.5 160.0 183.5 L 160.0 202.5 L 159.0 202.5 L 159.0 183.5 Q 159.5 177.5 158.5 176.0 Z" /><path desc="l 13 p 9" fill="rgb(198,182,91)" stroke="rgb(198,182,91)" stroke-width="1" opacity="0.6941176470588235" d="M 452.5 177.0 L 453.0 181.5 L 452.0 181.5 L 452.5 177.0 Z" /><path desc="l 13 p 10" fill="rgb(198,182,91)" stroke="rgb(198,182,91)" stroke-width="1" opacity="0.6941176470588235" d="M 16.5 178.0 L 17.0 181.5 L 16.0 181.5 L 16.5 178.0 Z" /><path desc="l 10 p 34" fill="rgb(208,184,58)" stroke="rgb(208,184,58)" stroke-width="1" opacity="0.996078431372549" d="M 17.5 180.0 L 19.0 186.5 L 19.0 198.5 L 18.0 198.5 L 17.5 180.0 Z" /><path desc="l 15 p 18" fill="rgb(249,243,199)" stroke="rgb(249,243,199)" stroke-width="1" opacity="0.07058823529411765" d="M 16.5 185.0 L 17.0 190.5 L 16.0 190.5 L 16.5 185.0 Z" /><path desc="l 15 p 19" fill="rgb(249,243,199)" stroke="rgb(249,243,199)" stroke-width="1" opacity="0.07058823529411765" d="M 452.5 185.0 L 453.0 189.5 L 452.0 189.5 L 452.5 185.0 Z" /><path desc="l 10 p 35" fill="rgb(208,184,58)" stroke="rgb(208,184,58)" stroke-width="1" opacity="0.996078431372549" d="M 23.5 187.0 L 24.0 190.5 L 22.5 191.0 L 23.0 189.5 L 23.5 187.0 Z" /><path desc="l 8 p 5" fill="rgb(200,181,83)" stroke="rgb(200,181,83)" stroke-width="1" opacity="0.49411764705882355" d="M 451.5 188.0 L 452.0 192.5 L 451.0 192.5 L 451.5 188.0 Z" /><path desc="l 8 p 6" fill="rgb(200,181,83)" stroke="rgb(200,181,83)" stroke-width="1" opacity="0.49411764705882355" d="M 17.5 190.0 L 18.0 193.5 L 17.0 193.5 L 17.5 190.0 Z" /><path desc="l 10 p 36" fill="rgb(208,184,58)" stroke="rgb(208,184,58)" stroke-width="1" opacity="0.996078431372549" d="M 450.5 191.0 L 451.0 197.5 L 450.0 201.5 L 449.5 209.0 L 448.0 196.5 L 450.5 191.0 Z" /><path desc="l 6 p 14" fill="rgb(227,215,152)" stroke="rgb(227,215,152)" stroke-width="1" opacity="0.4196078431372549" d="M 451.5 193.0 L 452.0 197.5 L 451.0 197.5 L 451.5 193.0 Z" /><path desc="l 6 p 15" fill="rgb(227,215,152)" stroke="rgb(227,215,152)" stroke-width="1" opacity="0.4196078431372549" d="M 17.5 194.0 L 18.0 197.5 L 17.0 197.5 L 17.5 194.0 Z" /><path desc="l 10 p 37" fill="rgb(208,184,58)" stroke="rgb(208,184,58)" stroke-width="1" opacity="0.996078431372549" d="M 21.5 196.0 L 23.0 199.5 L 21.0 198.5 L 21.5 196.0 Z" /><path desc="l 12 p 11" fill="rgb(201,182,86)" stroke="rgb(201,182,86)" stroke-width="1" opacity="0.8431372549019608" d="M 450.5 198.0 L 451.0 200.5 L 450.0 200.5 L 450.5 198.0 Z" /><path desc="l 15 p 20" fill="rgb(249,243,199)" stroke="rgb(249,243,199)" stroke-width="1" opacity="0.07058823529411765" d="M 17.5 199.0 L 18.0 201.5 L 17.0 201.5 L 17.5 199.0 Z" /><path desc="l 12 p 12" fill="rgb(201,182,86)" stroke="rgb(201,182,86)" stroke-width="1" opacity="0.8431372549019608" d="M 18.5 199.0 L 19.0 202.5 L 18.0 202.5 L 18.5 199.0 Z" /><path desc="l 10 p 38" fill="rgb(208,184,58)" stroke="rgb(208,184,58)" stroke-width="1" opacity="0.996078431372549" d="M 30.5 200.0 L 32.0 200.5 L 30.0 201.5 L 30.5 200.0 Z" /><path desc="l 13 p 11" fill="rgb(198,182,91)" stroke="rgb(198,182,91)" stroke-width="1" opacity="0.6941176470588235" d="M 450.5 201.0 L 451.0 204.5 L 450.0 204.5 L 450.5 201.0 Z" /><path desc="l 5 p 5" fill="rgb(252,217,61)" stroke="rgb(252,217,61)" stroke-width="1" opacity="1.0" d="M 159.5 203.0 L 160.0 227.5 L 159.0 227.5 L 159.5 203.0 Z" /><path desc="l 10 p 39" fill="rgb(208,184,58)" stroke="rgb(208,184,58)" stroke-width="1" opacity="0.996078431372549" d="M 19.5 204.0 L 21.0 204.5 L 22.0 207.5 L 21.0 210.5 L 20.5 217.0 L 19.5 211.0 L 19.5 204.0 Z" /><path desc="l 10 p 40" fill="rgb(208,184,58)" stroke="rgb(208,184,58)" stroke-width="1" opacity="0.996078431372549" d="M 26.5 205.0 Q 29.5 206.5 26.5 208.0 L 25.0 207.5 L 26.5 205.0 Z" /><path desc="l 1 p 3" fill="rgb(238,226,166)" stroke="rgb(238,226,166)" stroke-width="1" opacity="0.18823529411764706" d="M 18.5 207.0 L 19.0 210.5 L 18.0 210.5 L 18.5 207.0 Z" /><path desc="l 15 p 21" fill="rgb(249,243,199)" stroke="rgb(249,243,199)" stroke-width="1" opacity="0.07058823529411765" d="M 450.5 208.0 L 451.0 212.5 L 450.0 212.5 L 450.5 208.0 Z" /><path desc="l 8 p 7" fill="rgb(200,181,83)" stroke="rgb(200,181,83)" stroke-width="1" opacity="0.49411764705882355" d="M 449.5 211.0 L 450.0 215.5 L 449.0 215.5 L 449.5 211.0 Z" /><path desc="l 8 p 8" fill="rgb(200,181,83)" stroke="rgb(200,181,83)" stroke-width="1" opacity="0.49411764705882355" d="M 19.5 212.0 L 20.0 215.5 L 19.0 215.5 L 19.5 212.0 Z" /><path desc="l 10 p 41" fill="rgb(208,184,58)" stroke="rgb(208,184,58)" stroke-width="1" opacity="0.996078431372549" d="M 314.5 212.0 L 317.0 212.5 L 314.5 213.0 L 314.5 212.0 Z" /><path desc="l 10 p 42" fill="rgb(208,184,58)" stroke="rgb(208,184,58)" stroke-width="1" opacity="0.996078431372549" d="M 448.5 213.0 L 449.0 215.5 L 448.0 220.5 L 447.5 232.0 L 447.0 216.5 L 448.5 213.0 Z" /><path desc="l 12 p 13" fill="rgb(201,182,86)" stroke="rgb(201,182,86)" stroke-width="1" opacity="0.8431372549019608" d="M 448.5 216.0 L 449.0 223.5 L 448.0 223.5 L 448.5 216.0 Z" /><path desc="l 12 p 14" fill="rgb(201,182,86)" stroke="rgb(201,182,86)" stroke-width="1" opacity="0.8431372549019608" d="M 20.5 217.0 L 21.0 225.5 L 20.0 225.5 L 20.5 217.0 Z" /><path desc="l 10 p 43" fill="rgb(208,184,58)" stroke="rgb(208,184,58)" stroke-width="1" opacity="0.996078431372549" d="M 21.5 224.0 L 22.5 226.0 L 24.0 226.5 L 22.0 227.5 L 23.0 230.5 L 23.0 239.5 L 22.0 239.5 L 21.5 224.0 Z" /><path desc="l 13 p 12" fill="rgb(198,182,91)" stroke="rgb(198,182,91)" stroke-width="1" opacity="0.6941176470588235" d="M 448.5 224.0 L 449.0 226.5 L 448.0 226.5 L 448.5 224.0 Z" /><path desc="l 10 p 44" fill="rgb(208,184,58)" stroke="rgb(208,184,58)" stroke-width="1" opacity="0.996078431372549" d="M 25.5 228.0 L 26.0 230.5 L 25.0 230.5 L 25.5 228.0 Z" /><path desc="l 10 p 45" fill="rgb(208,184,58)" stroke="rgb(208,184,58)" stroke-width="1" opacity="0.996078431372549" d="M 159.5 228.0 L 160.0 252.5 L 159.0 252.5 L 159.5 228.0 Z" /><path desc="l 1 p 4" fill="rgb(238,226,166)" stroke="rgb(238,226,166)" stroke-width="1" opacity="0.18823529411764706" d="M 448.5 228.0 L 449.0 230.5 L 448.0 230.5 L 448.5 228.0 Z" /><path desc="l 1 p 5" fill="rgb(238,226,166)" stroke="rgb(238,226,166)" stroke-width="1" opacity="0.18823529411764706" d="M 20.5 230.0 L 21.0 232.5 L 20.0 232.5 L 20.5 230.0 Z" /><path desc="l 15 p 22" fill="rgb(249,243,199)" stroke="rgb(249,243,199)" stroke-width="1" opacity="0.07058823529411765" d="M 448.5 231.0 L 449.0 234.5 L 448.0 234.5 L 448.5 231.0 Z" /><path desc="l 15 p 23" fill="rgb(249,243,199)" stroke="rgb(249,243,199)" stroke-width="1" opacity="0.07058823529411765" d="M 20.5 233.0 L 21.0 235.5 L 20.0 235.5 L 20.5 233.0 Z" /><path desc="l 8 p 9" fill="rgb(200,181,83)" stroke="rgb(200,181,83)" stroke-width="1" opacity="0.49411764705882355" d="M 21.5 235.0 L 22.0 239.5 L 21.0 239.5 L 21.5 235.0 Z" /><path desc="l 8 p 10" fill="rgb(200,181,83)" stroke="rgb(200,181,83)" stroke-width="1" opacity="0.49411764705882355" d="M 447.5 235.0 L 448.0 238.5 L 447.0 238.5 L 447.5 235.0 Z" /><path desc="l 10 p 46" fill="rgb(208,184,58)" stroke="rgb(208,184,58)" stroke-width="1" opacity="0.996078431372549" d="M 443.5 239.0 L 446.0 240.5 L 445.5 255.0 L 444.5 241.0 L 443.0 240.5 L 443.5 239.0 Z" /><path desc="l 12 p 15" fill="rgb(201,182,86)" stroke="rgb(201,182,86)" stroke-width="1" opacity="0.8431372549019608" d="M 446.5 239.0 L 447.0 248.5 L 446.0 248.5 L 446.5 239.0 Z" /><path desc="l 12 p 16" fill="rgb(201,182,86)" stroke="rgb(201,182,86)" stroke-width="1" opacity="0.8431372549019608" d="M 22.5 240.0 L 23.0 249.5 L 22.0 249.5 L 22.5 240.0 Z" /><path desc="l 10 p 47" fill="rgb(208,184,58)" stroke="rgb(208,184,58)" stroke-width="1" opacity="0.996078431372549" d="M 24.5 240.0 L 26.0 240.5 L 25.5 245.0 L 24.0 244.5 L 24.5 240.0 Z" /><path desc="l 10 p 48" fill="rgb(208,184,58)" stroke="rgb(208,184,58)" stroke-width="1" opacity="0.996078431372549" d="M 29.5 245.0 L 30.0 248.5 L 28.5 249.0 L 28.0 246.5 L 29.5 245.0 Z" /><path desc="l 10 p 49" fill="rgb(208,184,58)" stroke="rgb(208,184,58)" stroke-width="1" opacity="0.996078431372549" d="M 23.5 250.0 Q 26.0 251.0 25.0 255.5 L 25.0 266.5 L 24.0 266.5 L 23.5 250.0 Z" /><path desc="l 10 p 50" fill="rgb(208,184,58)" stroke="rgb(208,184,58)" stroke-width="1" opacity="0.996078431372549" d="M 434.5 251.0 L 435.0 255.5 L 434.0 255.5 L 434.5 251.0 Z" /><path desc="l 5 p 6" fill="rgb(252,217,61)" stroke="rgb(252,217,61)" stroke-width="1" opacity="1.0" d="M 159.5 253.0 L 160.0 278.5 L 159.0 278.5 L 159.5 253.0 Z" /><path desc="l 1 p 6" fill="rgb(238,226,166)" stroke="rgb(238,226,166)" stroke-width="1" opacity="0.18823529411764706" d="M 446.5 253.0 L 447.0 255.5 L 446.0 255.5 L 446.5 253.0 Z" /><path desc="l 1 p 7" fill="rgb(238,226,166)" stroke="rgb(238,226,166)" stroke-width="1" opacity="0.18823529411764706" d="M 22.5 254.0 L 23.0 256.5 L 22.0 256.5 L 22.5 254.0 Z" /><path desc="l 10 p 51" fill="rgb(208,184,58)" stroke="rgb(208,184,58)" stroke-width="1" opacity="0.996078431372549" d="M 440.5 254.0 L 442.0 254.5 L 443.0 258.5 L 440.0 256.5 L 440.5 254.0 Z" /><path desc="l 8 p 11" fill="rgb(200,181,83)" stroke="rgb(200,181,83)" stroke-width="1" opacity="0.49411764705882355" d="M 445.5 257.0 L 446.0 261.5 L 445.0 261.5 L 445.5 257.0 Z" /><path desc="l 8 p 12" fill="rgb(200,181,83)" stroke="rgb(200,181,83)" stroke-width="1" opacity="0.49411764705882355" d="M 23.5 259.0 L 24.0 261.5 L 23.0 261.5 L 23.5 259.0 Z" /><path desc="l 10 p 52" fill="rgb(208,184,58)" stroke="rgb(208,184,58)" stroke-width="1" opacity="0.996078431372549" d="M 29.5 259.0 L 30.0 261.5 L 29.0 261.5 L 29.5 259.0 Z" /><path desc="l 10 p 53" fill="rgb(208,184,58)" stroke="rgb(208,184,58)" stroke-width="1" opacity="0.996078431372549" d="M 444.5 262.0 L 445.0 264.5 L 444.0 268.5 L 443.5 277.0 L 443.0 264.5 L 444.5 262.0 Z" /><path desc="l 10 p 54" fill="rgb(208,184,58)" stroke="rgb(208,184,58)" stroke-width="1" opacity="0.996078431372549" d="M 440.5 265.0 L 442.0 265.5 L 441.5 268.0 L 440.0 267.5 L 440.5 265.0 Z" /><path desc="l 8 p 13" fill="rgb(200,181,83)" stroke="rgb(200,181,83)" stroke-width="1" opacity="0.49411764705882355" d="M 24.5 268.0 L 25.0 270.5 L 24.0 270.5 L 24.5 268.0 Z" /><path desc="l 10 p 55" fill="rgb(208,184,58)" stroke="rgb(208,184,58)" stroke-width="1" opacity="0.996078431372549" d="M 389.5 268.0 L 390.0 270.5 L 389.0 270.5 L 389.5 268.0 Z" /><path desc="l 9 p 7" fill="rgb(232,220,155)" stroke="rgb(232,220,155)" stroke-width="1" opacity="0.2549019607843137" d="M 444.5 270.0 L 445.0 276.5 L 444.0 276.5 L 444.5 270.0 Z" /><path desc="l 9 p 8" fill="rgb(232,220,155)" stroke="rgb(232,220,155)" stroke-width="1" opacity="0.2549019607843137" d="M 24.5 271.0 L 25.0 278.5 L 24.0 278.5 L 24.5 271.0 Z" /><path desc="l 10 p 56" fill="rgb(208,184,58)" stroke="rgb(208,184,58)" stroke-width="1" opacity="0.996078431372549" d="M 25.5 272.0 Q 27.8 274.8 27.0 280.5 L 27.0 286.5 L 28.0 289.5 L 26.0 288.5 L 25.5 272.0 Z" /><path desc="l 10 p 57" fill="rgb(208,184,58)" stroke="rgb(208,184,58)" stroke-width="1" opacity="0.996078431372549" d="M 438.5 273.0 L 440.0 273.5 L 439.5 277.0 L 438.0 276.5 L 438.5 273.0 Z" /><path desc="l 15 p 24" fill="rgb(249,243,199)" stroke="rgb(249,243,199)" stroke-width="1" opacity="0.07058823529411765" d="M 444.5 278.0 L 445.0 280.5 L 444.0 280.5 L 444.5 278.0 Z" /><path desc="l 10 p 58" fill="rgb(208,184,58)" stroke="rgb(208,184,58)" stroke-width="1" opacity="0.996078431372549" d="M 159.5 279.0 L 160.0 303.5 L 159.0 303.5 L 159.5 279.0 Z" /><path desc="l 13 p 13" fill="rgb(198,182,91)" stroke="rgb(198,182,91)" stroke-width="1" opacity="0.6941176470588235" d="M 443.5 279.0 L 444.0 281.5 L 443.0 281.5 L 443.5 279.0 Z" /><path desc="l 13 p 14" fill="rgb(198,182,91)" stroke="rgb(198,182,91)" stroke-width="1" opacity="0.6941176470588235" d="M 25.5 280.0 L 26.0 283.5 L 25.0 283.5 L 25.5 280.0 Z" /><path desc="l 10 p 59" fill="rgb(208,184,58)" stroke="rgb(208,184,58)" stroke-width="1" opacity="0.996078431372549" d="M 442.5 283.0 L 443.0 287.5 L 441.5 296.0 L 440.0 288.5 L 442.5 283.0 Z" /><path desc="l 10 p 60" fill="rgb(208,184,58)" stroke="rgb(208,184,58)" stroke-width="1" opacity="0.996078431372549" d="M 124.5 288.0 L 126.0 288.5 L 124.5 292.0 Q 121.8 290.8 124.0 289.5 L 124.5 288.0 Z" /><path desc="l 10 p 61" fill="rgb(208,184,58)" stroke="rgb(208,184,58)" stroke-width="1" opacity="0.996078431372549" d="M 434.5 288.0 L 436.0 295.5 L 434.0 296.5 L 434.5 288.0 Z" /><path desc="l 10 p 62" fill="rgb(208,184,58)" stroke="rgb(208,184,58)" stroke-width="1" opacity="0.996078431372549" d="M 117.5 290.0 L 118.5 292.0 L 117.0 291.5 L 117.5 290.0 Z" /><path desc="l 10 p 63" fill="rgb(208,184,58)" stroke="rgb(208,184,58)" stroke-width="1" opacity="0.996078431372549" d="M 27.5 291.0 L 29.0 298.5 Q 27.5 304.0 30.0 305.5 Q 27.8 306.8 29.0 311.5 Q 31.8 313.2 31.0 318.5 Q 29.5 324.0 32.0 325.5 L 31.0 328.5 L 31.0 335.5 L 33.0 336.5 L 33.0 351.5 Q 31.5 357.0 34.0 358.5 L 35.0 364.5 L 35.5 374.0 L 36.5 371.0 L 37.0 375.5 L 37.0 377.5 L 36.5 379.0 L 35.0 378.5 L 33.0 362.5 L 32.0 350.5 L 29.0 316.5 L 27.5 291.0 Z" /><path desc="l 9 p 9" fill="rgb(232,220,155)" stroke="rgb(232,220,155)" stroke-width="1" opacity="0.2549019607843137" d="M 26.5 293.0 L 27.0 296.5 L 26.0 296.5 L 26.5 293.0 Z" /><path desc="l 9 p 10" fill="rgb(232,220,155)" stroke="rgb(232,220,155)" stroke-width="1" opacity="0.2549019607843137" d="M 442.5 293.0 L 443.0 295.5 L 442.0 295.5 L 442.5 293.0 Z" /><path desc="l 10 p 64" fill="rgb(208,184,58)" stroke="rgb(208,184,58)" stroke-width="1" opacity="0.996078431372549" d="M 115.5 294.0 L 125.0 294.5 Q 123.3 297.8 116.5 296.0 L 115.5 294.0 Z" /><path desc="l 15 p 25" fill="rgb(249,243,199)" stroke="rgb(249,243,199)" stroke-width="1" opacity="0.07058823529411765" d="M 26.5 297.0 L 27.0 299.5 L 26.0 299.5 L 26.5 297.0 Z" /><path desc="l 13 p 15" fill="rgb(198,182,91)" stroke="rgb(198,182,91)" stroke-width="1" opacity="0.6941176470588235" d="M 441.5 297.0 L 442.0 301.5 L 441.0 301.5 L 441.5 297.0 Z" /><path desc="l 13 p 16" fill="rgb(198,182,91)" stroke="rgb(198,182,91)" stroke-width="1" opacity="0.6941176470588235" d="M 27.5 298.0 L 28.0 302.5 L 27.0 302.5 L 27.5 298.0 Z" /><path desc="l 10 p 65" fill="rgb(208,184,58)" stroke="rgb(208,184,58)" stroke-width="1" opacity="0.996078431372549" d="M 66.5 298.0 L 71.5 299.0 L 82.5 299.0 L 112.5 299.0 L 120.5 299.0 L 124.5 300.0 L 127.5 298.0 L 126.5 300.0 L 125.0 300.5 L 125.0 302.5 L 126.0 306.5 L 124.5 312.0 L 123.0 303.5 L 124.0 301.5 Q 123.3 299.3 119.5 300.0 L 108.5 300.0 L 63.5 300.0 L 64.0 301.5 L 65.0 307.5 L 64.0 311.5 L 66.0 316.5 L 66.0 318.5 L 65.5 320.0 L 64.5 318.0 L 63.0 317.5 L 63.0 305.5 L 62.0 300.5 L 66.5 298.0 Z" /><path desc="l 10 p 66" fill="rgb(208,184,58)" stroke="rgb(208,184,58)" stroke-width="1" opacity="0.996078431372549" d="M 440.5 300.0 L 441.0 310.5 L 439.5 319.0 L 439.0 301.5 L 440.5 300.0 Z" /><path desc="l 10 p 67" fill="rgb(208,184,58)" stroke="rgb(208,184,58)" stroke-width="1" opacity="0.996078431372549" d="M 432.5 301.0 L 434.0 303.5 L 432.5 304.0 L 432.5 301.0 Z" /><path desc="l 7 p 2" fill="rgb(216,202,131)" stroke="rgb(216,202,131)" stroke-width="1" opacity="0.7333333333333333" d="M 441.5 302.0 L 442.0 304.5 L 441.0 304.5 L 441.5 302.0 Z" /><path desc="l 7 p 3" fill="rgb(216,202,131)" stroke="rgb(216,202,131)" stroke-width="1" opacity="0.7333333333333333" d="M 27.5 303.0 L 28.0 306.5 L 27.0 306.5 L 27.5 303.0 Z" /><path desc="l 0 p 4" fill="rgb(76,78,74)" stroke="rgb(76,78,74)" stroke-width="1" opacity="1.0" d="M 64.5 303.0 L 65.0 305.5 L 64.0 305.5 L 64.5 303.0 Z" /><path desc="l 5 p 7" fill="rgb(252,217,61)" stroke="rgb(252,217,61)" stroke-width="1" opacity="1.0" d="M 159.5 304.0 L 160.0 328.5 L 159.0 328.5 L 159.5 304.0 Z" /><path desc="l 6 p 16" fill="rgb(227,215,152)" stroke="rgb(227,215,152)" stroke-width="1" opacity="0.4196078431372549" d="M 441.5 305.0 L 442.0 307.5 L 441.0 307.5 L 441.5 305.0 Z" /><path desc="l 5 p 8" fill="rgb(252,217,61)" stroke="rgb(252,217,61)" stroke-width="1" opacity="1.0" d="M 64.5 308.0 L 65.0 311.5 L 64.0 311.5 L 64.5 308.0 Z" /><path desc="l 10 p 68" fill="rgb(208,184,58)" stroke="rgb(208,184,58)" stroke-width="1" opacity="0.996078431372549" d="M 126.5 308.0 L 127.5 310.0 L 126.5 308.0 Z" /><path desc="l 15 p 26" fill="rgb(249,243,199)" stroke="rgb(249,243,199)" stroke-width="1" opacity="0.07058823529411765" d="M 441.5 308.0 L 442.0 314.5 L 441.0 314.5 L 441.5 308.0 Z" /><path desc="l 15 p 27" fill="rgb(249,243,199)" stroke="rgb(249,243,199)" stroke-width="1" opacity="0.07058823529411765" d="M 27.5 309.0 L 28.0 314.5 L 27.0 314.5 L 27.5 309.0 Z" /><path desc="l 12 p 17" fill="rgb(201,182,86)" stroke="rgb(201,182,86)" stroke-width="1" opacity="0.8431372549019608" d="M 440.5 311.0 L 441.0 313.5 L 440.0 313.5 L 440.5 311.0 Z" /><path desc="l 5 p 9" fill="rgb(252,217,61)" stroke="rgb(252,217,61)" stroke-width="1" opacity="1.0" d="M 124.5 312.0 L 125.0 314.5 L 124.0 314.5 L 124.5 312.0 Z" /><path desc="l 10 p 69" fill="rgb(208,184,58)" stroke="rgb(208,184,58)" stroke-width="1" opacity="0.996078431372549" d="M 385.5 313.0 L 386.0 315.5 L 385.0 315.5 L 385.5 313.0 Z" /><path desc="l 6 p 17" fill="rgb(227,215,152)" stroke="rgb(227,215,152)" stroke-width="1" opacity="0.4196078431372549" d="M 440.5 314.0 L 441.0 318.5 L 440.0 318.5 L 440.5 314.0 Z" /><path desc="l 6 p 18" fill="rgb(227,215,152)" stroke="rgb(227,215,152)" stroke-width="1" opacity="0.4196078431372549" d="M 28.5 315.0 L 29.0 318.5 L 28.0 318.5 L 28.5 315.0 Z" /><path desc="l 10 p 70" fill="rgb(208,184,58)" stroke="rgb(208,184,58)" stroke-width="1" opacity="0.996078431372549" d="M 124.5 315.0 L 127.0 315.5 L 126.0 317.5 L 127.0 322.5 L 127.0 334.5 L 126.0 334.5 L 125.0 326.5 L 126.0 323.5 L 124.5 315.0 Z" /><path desc="l 15 p 28" fill="rgb(249,243,199)" stroke="rgb(249,243,199)" stroke-width="1" opacity="0.07058823529411765" d="M 28.5 319.0 L 29.0 322.5 L 28.0 322.5 L 28.5 319.0 Z" /><path desc="l 12 p 18" fill="rgb(201,182,86)" stroke="rgb(201,182,86)" stroke-width="1" opacity="0.8431372549019608" d="M 29.5 319.0 L 30.0 321.5 L 29.0 321.5 L 29.5 319.0 Z" /><path desc="l 5 p 10" fill="rgb(252,217,61)" stroke="rgb(252,217,61)" stroke-width="1" opacity="1.0" d="M 65.5 320.0 L 66.0 322.5 L 65.0 322.5 L 65.5 320.0 Z" /><path desc="l 13 p 17" fill="rgb(198,182,91)" stroke="rgb(198,182,91)" stroke-width="1" opacity="0.6941176470588235" d="M 439.5 321.0 L 440.0 324.5 L 439.0 324.5 L 439.5 321.0 Z" /><path desc="l 13 p 18" fill="rgb(198,182,91)" stroke="rgb(198,182,91)" stroke-width="1" opacity="0.6941176470588235" d="M 29.5 322.0 L 30.0 324.5 L 29.0 324.5 L 29.5 322.0 Z" /><path desc="l 10 p 71" fill="rgb(208,184,58)" stroke="rgb(208,184,58)" stroke-width="1" opacity="0.996078431372549" d="M 65.5 323.0 L 67.0 330.5 L 66.0 332.5 L 67.0 335.5 L 68.0 342.5 L 66.0 341.5 L 65.0 335.5 L 65.5 323.0 Z" /><path desc="l 5 p 11" fill="rgb(252,217,61)" stroke="rgb(252,217,61)" stroke-width="1" opacity="1.0" d="M 125.5 323.0 L 126.0 325.5 L 125.0 325.5 L 125.5 323.0 Z" /><path desc="l 10 p 72" fill="rgb(208,184,58)" stroke="rgb(208,184,58)" stroke-width="1" opacity="0.996078431372549" d="M 434.5 323.0 L 436.0 323.5 L 434.5 326.0 L 434.5 323.0 Z" /><path desc="l 10 p 73" fill="rgb(208,184,58)" stroke="rgb(208,184,58)" stroke-width="1" opacity="0.996078431372549" d="M 438.5 323.0 L 439.0 333.5 L 437.5 342.0 L 436.0 336.5 L 437.0 331.5 Q 436.3 325.8 438.5 323.0 Z" /><path desc="l 7 p 4" fill="rgb(216,202,131)" stroke="rgb(216,202,131)" stroke-width="1" opacity="0.7333333333333333" d="M 29.5 325.0 L 30.0 329.5 L 29.0 329.5 L 29.5 325.0 Z" /><path desc="l 7 p 5" fill="rgb(216,202,131)" stroke="rgb(216,202,131)" stroke-width="1" opacity="0.7333333333333333" d="M 439.5 325.0 L 440.0 328.5 L 439.0 328.5 L 439.5 325.0 Z" /><path desc="l 0 p 5" fill="rgb(76,78,74)" stroke="rgb(76,78,74)" stroke-width="1" opacity="1.0" d="M 66.5 326.0 L 67.0 328.5 L 66.0 328.5 L 66.5 326.0 Z" /><path desc="l 0 p 6" fill="rgb(76,78,74)" stroke="rgb(76,78,74)" stroke-width="1" opacity="1.0" d="M 125.5 328.0 L 126.0 330.5 L 125.0 330.5 L 125.5 328.0 Z" /><path desc="l 10 p 74" fill="rgb(208,184,58)" stroke="rgb(208,184,58)" stroke-width="1" opacity="0.996078431372549" d="M 158.5 328.0 Q 161.3 329.3 160.0 334.5 L 160.0 351.5 L 158.5 351.0 L 153.5 350.0 L 151.5 350.0 L 148.0 349.5 L 150.0 348.5 L 149.5 347.0 Q 150.9 349.6 155.5 349.0 L 156.5 347.0 L 157.5 349.0 L 159.0 348.5 L 159.0 342.5 L 158.0 338.5 L 159.0 335.5 L 159.0 329.5 L 158.5 328.0 Z" /><path desc="l 15 p 29" fill="rgb(249,243,199)" stroke="rgb(249,243,199)" stroke-width="1" opacity="0.07058823529411765" d="M 439.5 332.0 L 440.0 338.5 L 439.0 338.5 L 439.5 332.0 Z" /><path desc="l 15 p 30" fill="rgb(249,243,199)" stroke="rgb(249,243,199)" stroke-width="1" opacity="0.07058823529411765" d="M 29.5 333.0 L 30.0 338.5 L 29.0 338.5 L 29.5 333.0 Z" /><path desc="l 5 p 12" fill="rgb(252,217,61)" stroke="rgb(252,217,61)" stroke-width="1" opacity="1.0" d="M 126.5 335.0 L 127.0 337.5 L 126.0 337.5 L 126.5 335.0 Z" /><path desc="l 6 p 19" fill="rgb(227,215,152)" stroke="rgb(227,215,152)" stroke-width="1" opacity="0.4196078431372549" d="M 30.5 338.0 L 31.0 341.5 L 30.0 341.5 L 30.5 338.0 Z" /><path desc="l 10 p 75" fill="rgb(208,184,58)" stroke="rgb(208,184,58)" stroke-width="1" opacity="0.996078431372549" d="M 126.5 338.0 L 129.5 342.0 L 131.0 342.5 L 131.5 344.0 Q 135.3 343.3 136.0 345.5 L 132.0 346.5 L 131.5 348.0 L 127.0 345.5 L 126.5 338.0 Z" /><path desc="l 10 p 76" fill="rgb(208,184,58)" stroke="rgb(208,184,58)" stroke-width="1" opacity="0.996078431372549" d="M 146.5 338.0 L 148.0 338.5 L 147.5 340.0 L 146.0 339.5 L 146.5 338.0 Z" /><path desc="l 10 p 77" fill="rgb(208,184,58)" stroke="rgb(208,184,58)" stroke-width="1" opacity="0.996078431372549" d="M 152.5 338.0 L 155.0 338.5 L 154.5 340.0 L 152.0 339.5 L 152.5 338.0 Z" /><path desc="l 6 p 20" fill="rgb(227,215,152)" stroke="rgb(227,215,152)" stroke-width="1" opacity="0.4196078431372549" d="M 438.5 338.0 L 439.0 341.5 L 438.0 341.5 L 438.5 338.0 Z" /><path desc="l 12 p 19" fill="rgb(201,182,86)" stroke="rgb(201,182,86)" stroke-width="1" opacity="0.8431372549019608" d="M 31.5 342.0 L 32.0 346.5 L 31.0 346.5 L 31.5 342.0 Z" /><path desc="l 12 p 20" fill="rgb(201,182,86)" stroke="rgb(201,182,86)" stroke-width="1" opacity="0.8431372549019608" d="M 437.5 342.0 L 438.0 344.5 L 437.0 344.5 L 437.5 342.0 Z" /><path desc="l 10 p 78" fill="rgb(208,184,58)" stroke="rgb(208,184,58)" stroke-width="1" opacity="0.996078431372549" d="M 142.5 344.0 L 146.0 349.5 L 144.5 349.0 L 139.5 348.0 L 137.5 348.0 L 135.0 347.5 L 140.5 346.0 L 143.5 347.0 L 142.5 344.0 Z" /><path desc="l 10 p 79" fill="rgb(208,184,58)" stroke="rgb(208,184,58)" stroke-width="1" opacity="0.996078431372549" d="M 67.5 345.0 L 69.0 352.5 L 68.0 357.5 L 70.0 364.5 L 67.0 362.5 L 67.0 356.5 L 66.0 353.5 L 67.5 345.0 Z" /><path desc="l 5 p 13" fill="rgb(252,217,61)" stroke="rgb(252,217,61)" stroke-width="1" opacity="1.0" d="M 132.5 347.0 L 135.0 347.5 L 132.5 348.0 L 132.5 347.0 Z" /><path desc="l 10 p 80" fill="rgb(208,184,58)" stroke="rgb(208,184,58)" stroke-width="1" opacity="0.996078431372549" d="M 435.5 347.0 L 437.0 347.5 L 435.5 365.0 L 435.5 347.0 Z" /><path desc="l 15 p 31" fill="rgb(249,243,199)" stroke="rgb(249,243,199)" stroke-width="1" opacity="0.07058823529411765" d="M 437.5 350.0 L 438.0 360.5 L 437.0 360.5 L 437.5 350.0 Z" /><path desc="l 15 p 32" fill="rgb(249,243,199)" stroke="rgb(249,243,199)" stroke-width="1" opacity="0.07058823529411765" d="M 31.5 351.0 L 32.0 361.5 L 31.0 361.5 L 31.5 351.0 Z" /><path desc="l 5 p 14" fill="rgb(252,217,61)" stroke="rgb(252,217,61)" stroke-width="1" opacity="1.0" d="M 68.5 353.0 L 69.0 357.5 L 68.0 357.5 L 68.5 353.0 Z" /><path desc="l 12 p 21" fill="rgb(201,182,86)" stroke="rgb(201,182,86)" stroke-width="1" opacity="0.8431372549019608" d="M 436.5 354.0 L 437.0 358.5 L 436.0 358.5 L 436.5 354.0 Z" /><path desc="l 10 p 81" fill="rgb(208,184,58)" stroke="rgb(208,184,58)" stroke-width="1" opacity="0.996078431372549" d="M 381.5 359.0 L 382.0 361.5 L 381.0 361.5 L 381.5 359.0 Z" /><path desc="l 6 p 21" fill="rgb(227,215,152)" stroke="rgb(227,215,152)" stroke-width="1" opacity="0.4196078431372549" d="M 436.5 359.0 L 437.0 363.5 L 436.0 363.5 L 436.5 359.0 Z" /><path desc="l 6 p 22" fill="rgb(227,215,152)" stroke="rgb(227,215,152)" stroke-width="1" opacity="0.4196078431372549" d="M 32.5 362.0 L 33.0 364.5 L 32.0 364.5 L 32.5 362.0 Z" /><path desc="l 10 p 82" fill="rgb(208,184,58)" stroke="rgb(208,184,58)" stroke-width="1" opacity="0.996078431372549" d="M 38.5 362.0 Q 41.0 363.0 40.0 367.5 L 39.0 367.5 L 38.0 364.5 L 38.5 362.0 Z" /><path desc="l 12 p 22" fill="rgb(201,182,86)" stroke="rgb(201,182,86)" stroke-width="1" opacity="0.8431372549019608" d="M 33.5 365.0 L 34.0 369.5 L 33.0 369.5 L 33.5 365.0 Z" /><path desc="l 5 p 15" fill="rgb(252,217,61)" stroke="rgb(252,217,61)" stroke-width="1" opacity="1.0" d="M 69.5 365.0 L 70.0 368.5 L 69.0 368.5 L 69.5 365.0 Z" /><path desc="l 12 p 23" fill="rgb(201,182,86)" stroke="rgb(201,182,86)" stroke-width="1" opacity="0.8431372549019608" d="M 435.5 365.0 L 436.0 369.5 L 435.0 369.5 L 435.5 365.0 Z" /><path desc="l 10 p 83" fill="rgb(208,184,58)" stroke="rgb(208,184,58)" stroke-width="1" opacity="0.996078431372549" d="M 42.5 369.0 L 44.0 369.5 L 43.5 371.0 L 42.5 369.0 Z" /><path desc="l 10 p 84" fill="rgb(208,184,58)" stroke="rgb(208,184,58)" stroke-width="1" opacity="0.996078431372549" d="M 69.5 369.0 L 71.0 376.5 L 70.0 379.5 L 72.0 387.5 L 69.5 386.0 L 67.0 385.5 L 69.0 384.5 L 68.0 380.5 L 69.0 376.5 L 69.5 369.0 Z" /><path desc="l 10 p 85" fill="rgb(208,184,58)" stroke="rgb(208,184,58)" stroke-width="1" opacity="0.996078431372549" d="M 434.5 369.0 L 435.0 374.5 L 434.0 378.5 L 433.5 387.0 L 433.0 379.5 L 432.0 375.5 L 433.0 373.5 Q 430.5 372.0 434.0 370.5 L 434.5 369.0 Z" /><path desc="l 0 p 7" fill="rgb(76,78,74)" stroke="rgb(76,78,74)" stroke-width="1" opacity="1.0" d="M 70.5 372.0 L 71.0 374.5 L 70.0 374.5 L 70.5 372.0 Z" /><path desc="l 1 p 8" fill="rgb(238,226,166)" stroke="rgb(238,226,166)" stroke-width="1" opacity="0.18823529411764706" d="M 33.5 373.0 L 34.0 375.5 L 33.0 375.5 L 33.5 373.0 Z" /><path desc="l 1 p 9" fill="rgb(238,226,166)" stroke="rgb(238,226,166)" stroke-width="1" opacity="0.18823529411764706" d="M 435.5 373.0 L 436.0 375.5 L 435.0 375.5 L 435.5 373.0 Z" /><path desc="l 15 p 33" fill="rgb(249,243,199)" stroke="rgb(249,243,199)" stroke-width="1" opacity="0.07058823529411765" d="M 33.5 376.0 L 34.0 379.5 L 33.0 379.5 L 33.5 376.0 Z" /><path desc="l 15 p 34" fill="rgb(249,243,199)" stroke="rgb(249,243,199)" stroke-width="1" opacity="0.07058823529411765" d="M 435.5 376.0 L 436.0 378.5 L 435.0 378.5 L 435.5 376.0 Z" /><path desc="l 5 p 16" fill="rgb(252,217,61)" stroke="rgb(252,217,61)" stroke-width="1" opacity="1.0" d="M 70.5 377.0 L 71.0 379.5 L 70.0 379.5 L 70.5 377.0 Z" /><path desc="l 8 p 14" fill="rgb(200,181,83)" stroke="rgb(200,181,83)" stroke-width="1" opacity="0.49411764705882355" d="M 34.5 379.0 L 35.0 383.5 L 34.0 383.5 L 34.5 379.0 Z" /><path desc="l 8 p 15" fill="rgb(200,181,83)" stroke="rgb(200,181,83)" stroke-width="1" opacity="0.49411764705882355" d="M 434.5 379.0 L 435.0 382.5 L 434.0 382.5 L 434.5 379.0 Z" /><path desc="l 10 p 86" fill="rgb(208,184,58)" stroke="rgb(208,184,58)" stroke-width="1" opacity="0.996078431372549" d="M 379.5 381.0 L 380.0 383.5 L 379.0 383.5 L 379.5 381.0 Z" /><path desc="l 10 p 87" fill="rgb(208,184,58)" stroke="rgb(208,184,58)" stroke-width="1" opacity="0.996078431372549" d="M 35.5 383.0 L 38.0 387.5 L 37.0 391.5 L 36.5 399.0 L 35.5 383.0 Z" /><path desc="l 6 p 23" fill="rgb(227,215,152)" stroke="rgb(227,215,152)" stroke-width="1" opacity="0.4196078431372549" d="M 434.5 383.0 L 435.0 386.5 L 434.0 386.5 L 434.5 383.0 Z" /><path desc="l 6 p 24" fill="rgb(227,215,152)" stroke="rgb(227,215,152)" stroke-width="1" opacity="0.4196078431372549" d="M 34.5 384.0 L 35.0 387.5 L 34.0 387.5 L 34.5 384.0 Z" /><path desc="l 12 p 24" fill="rgb(201,182,86)" stroke="rgb(201,182,86)" stroke-width="1" opacity="0.8431372549019608" d="M 433.5 387.0 L 434.0 391.5 L 433.0 391.5 L 433.5 387.0 Z" /><path desc="l 15 p 35" fill="rgb(249,243,199)" stroke="rgb(249,243,199)" stroke-width="1" opacity="0.07058823529411765" d="M 34.5 388.0 L 35.0 390.5 L 34.0 390.5 L 34.5 388.0 Z" /><path desc="l 12 p 25" fill="rgb(201,182,86)" stroke="rgb(201,182,86)" stroke-width="1" opacity="0.8431372549019608" d="M 35.5 388.0 L 36.0 392.5 L 35.0 392.5 L 35.5 388.0 Z" /><path desc="l 10 p 88" fill="rgb(208,184,58)" stroke="rgb(208,184,58)" stroke-width="1" opacity="0.996078431372549" d="M 69.5 390.0 L 72.0 390.5 Q 69.8 391.8 72.5 393.0 L 74.5 394.0 L 76.5 394.0 L 80.0 394.5 L 72.5 395.0 L 69.5 390.0 Z" /><path desc="l 10 p 89" fill="rgb(208,184,58)" stroke="rgb(208,184,58)" stroke-width="1" opacity="0.996078431372549" d="M 432.5 391.0 L 433.0 398.5 L 432.0 402.5 L 431.5 411.0 L 431.0 394.5 L 432.5 391.0 Z" /><path desc="l 10 p 90" fill="rgb(208,184,58)" stroke="rgb(208,184,58)" stroke-width="1" opacity="0.996078431372549" d="M 65.5 392.0 L 66.5 394.0 L 64.0 393.5 L 65.5 392.0 Z" /><path desc="l 10 p 91" fill="rgb(208,184,58)" stroke="rgb(208,184,58)" stroke-width="1" opacity="0.996078431372549" d="M 81.5 394.0 L 85.0 396.5 L 80.5 398.0 L 77.0 396.5 L 79.5 396.0 L 81.0 395.5 L 81.5 394.0 Z" /><path desc="l 10 p 92" fill="rgb(208,184,58)" stroke="rgb(208,184,58)" stroke-width="1" opacity="0.996078431372549" d="M 86.5 395.0 L 89.0 396.5 L 86.5 397.0 L 86.5 395.0 Z" /><path desc="l 10 p 93" fill="rgb(208,184,58)" stroke="rgb(208,184,58)" stroke-width="1" opacity="0.996078431372549" d="M 70.5 396.0 L 73.5 397.0 Q 74.8 394.8 76.0 397.5 L 72.5 400.0 L 72.5 398.0 L 70.5 396.0 Z" /><path desc="l 10 p 94" fill="rgb(208,184,58)" stroke="rgb(208,184,58)" stroke-width="1" opacity="0.996078431372549" d="M 91.5 396.0 L 95.5 398.0 L 97.5 398.0 L 100.5 399.0 L 102.5 399.0 L 106.5 400.0 L 108.5 400.0 L 111.5 401.0 L 113.5 401.0 L 116.5 402.0 L 118.5 402.0 L 121.0 402.5 L 112.5 403.0 Q 111.5 400.0 106.5 401.0 L 90.0 397.5 L 91.5 396.0 Z" /><path desc="l 15 p 36" fill="rgb(249,243,199)" stroke="rgb(249,243,199)" stroke-width="1" opacity="0.07058823529411765" d="M 35.5 399.0 L 36.0 401.5 L 35.0 401.5 L 35.5 399.0 Z" /><path desc="l 15 p 37" fill="rgb(249,243,199)" stroke="rgb(249,243,199)" stroke-width="1" opacity="0.07058823529411765" d="M 433.5 399.0 L 434.0 401.5 L 433.0 401.5 L 433.5 399.0 Z" /><path desc="l 8 p 16" fill="rgb(200,181,83)" stroke="rgb(200,181,83)" stroke-width="1" opacity="0.49411764705882355" d="M 432.5 401.0 L 433.0 404.5 L 432.0 404.5 L 432.5 401.0 Z" /><path desc="l 8 p 17" fill="rgb(200,181,83)" stroke="rgb(200,181,83)" stroke-width="1" opacity="0.49411764705882355" d="M 36.5 402.0 L 37.0 406.5 L 36.0 406.5 L 36.5 402.0 Z" /><path desc="l 10 p 95" fill="rgb(208,184,58)" stroke="rgb(208,184,58)" stroke-width="1" opacity="0.996078431372549" d="M 122.5 402.0 L 126.5 404.0 L 128.5 404.0 L 131.0 404.5 L 124.5 407.0 L 123.0 404.5 L 122.5 402.0 Z" /><path desc="l 10 p 96" fill="rgb(208,184,58)" stroke="rgb(208,184,58)" stroke-width="1" opacity="0.996078431372549" d="M 37.5 404.0 L 39.0 410.5 L 39.0 421.5 L 38.0 421.5 L 37.5 404.0 Z" /><path desc="l 10 p 97" fill="rgb(208,184,58)" stroke="rgb(208,184,58)" stroke-width="1" opacity="0.996078431372549" d="M 132.5 404.0 L 134.0 406.5 L 132.5 407.0 L 132.5 404.0 Z" /><path desc="l 10 p 98" fill="rgb(208,184,58)" stroke="rgb(208,184,58)" stroke-width="1" opacity="0.996078431372549" d="M 121.5 405.0 L 120.5 407.0 L 121.5 405.0 Z" /><path desc="l 10 p 99" fill="rgb(208,184,58)" stroke="rgb(208,184,58)" stroke-width="1" opacity="0.996078431372549" d="M 135.5 405.0 L 138.0 406.5 L 135.5 407.0 L 135.5 405.0 Z" /><path desc="l 6 p 25" fill="rgb(227,215,152)" stroke="rgb(227,215,152)" stroke-width="1" opacity="0.4196078431372549" d="M 432.5 405.0 L 433.0 409.5 L 432.0 409.5 L 432.5 405.0 Z" /><path desc="l 10 p 100" fill="rgb(208,184,58)" stroke="rgb(208,184,58)" stroke-width="1" opacity="0.996078431372549" d="M 113.5 406.0 L 116.0 406.5 L 113.5 407.0 L 113.5 406.0 Z" /><path desc="l 10 p 101" fill="rgb(208,184,58)" stroke="rgb(208,184,58)" stroke-width="1" opacity="0.996078431372549" d="M 140.5 406.0 L 144.5 408.0 L 146.5 408.0 L 149.5 409.0 L 151.5 409.0 L 154.5 410.0 L 156.5 409.0 L 159.0 410.5 L 154.5 411.0 L 145.5 409.0 L 143.5 409.0 L 140.0 407.5 L 140.5 406.0 Z" /><path desc="l 6 p 26" fill="rgb(227,215,152)" stroke="rgb(227,215,152)" stroke-width="1" opacity="0.4196078431372549" d="M 36.5 407.0 L 37.0 410.5 L 36.0 410.5 L 36.5 407.0 Z" /><path desc="l 10 p 102" fill="rgb(208,184,58)" stroke="rgb(208,184,58)" stroke-width="1" opacity="0.996078431372549" d="M 128.5 410.0 L 130.0 410.5 L 129.5 412.0 L 128.5 410.0 Z" /><path desc="l 10 p 103" fill="rgb(208,184,58)" stroke="rgb(208,184,58)" stroke-width="1" opacity="0.996078431372549" d="M 161.5 410.0 L 165.5 412.0 L 167.5 412.0 L 169.0 412.5 L 164.5 413.0 Q 163.3 410.8 162.0 413.5 L 161.5 415.0 L 159.0 413.5 L 162.0 411.5 L 161.5 410.0 Z" /><path desc="l 12 p 26" fill="rgb(201,182,86)" stroke="rgb(201,182,86)" stroke-width="1" opacity="0.8431372549019608" d="M 37.5 411.0 L 38.0 415.5 L 37.0 415.5 L 37.5 411.0 Z" /><path desc="l 10 p 104" fill="rgb(208,184,58)" stroke="rgb(208,184,58)" stroke-width="1" opacity="0.996078431372549" d="M 137.5 411.0 L 140.0 411.5 L 136.5 414.0 L 134.5 413.0 L 133.0 413.5 L 137.5 411.0 Z" /><path desc="l 12 p 27" fill="rgb(201,182,86)" stroke="rgb(201,182,86)" stroke-width="1" opacity="0.8431372549019608" d="M 431.5 411.0 L 432.0 414.5 L 431.0 414.5 L 431.5 411.0 Z" /><path desc="l 10 p 105" fill="rgb(208,184,58)" stroke="rgb(208,184,58)" stroke-width="1" opacity="0.996078431372549" d="M 125.5 412.0 L 128.0 412.5 Q 125.9 415.8 125.5 412.0 Z" /><path desc="l 10 p 106" fill="rgb(208,184,58)" stroke="rgb(208,184,58)" stroke-width="1" opacity="0.996078431372549" d="M 152.5 412.0 L 150.5 415.0 L 149.0 414.5 L 152.5 412.0 Z" /><path desc="l 10 p 107" fill="rgb(208,184,58)" stroke="rgb(208,184,58)" stroke-width="1" opacity="0.996078431372549" d="M 171.5 412.0 L 175.5 414.0 L 177.5 414.0 L 179.0 414.5 L 172.5 415.0 L 171.5 412.0 Z" /><path desc="l 10 p 108" fill="rgb(208,184,58)" stroke="rgb(208,184,58)" stroke-width="1" opacity="0.996078431372549" d="M 164.5 414.0 L 163.5 416.0 L 164.5 414.0 Z" /><path desc="l 10 p 109" fill="rgb(208,184,58)" stroke="rgb(208,184,58)" stroke-width="1" opacity="0.996078431372549" d="M 181.5 414.0 L 185.5 416.0 L 187.5 416.0 L 190.5 417.0 L 192.5 417.0 L 195.5 418.0 L 197.5 418.0 L 200.5 419.0 L 202.5 419.0 L 205.5 420.0 L 207.5 420.0 L 210.0 420.5 L 206.5 422.0 L 204.5 421.0 L 202.5 421.0 L 199.5 419.0 L 197.5 419.0 L 194.0 420.5 L 194.5 422.0 L 191.5 417.0 L 189.5 417.0 Q 182.7 418.3 180.0 415.5 L 181.5 414.0 Z" /><path desc="l 10 p 110" fill="rgb(208,184,58)" stroke="rgb(208,184,58)" stroke-width="1" opacity="0.996078431372549" d="M 430.5 415.0 L 431.0 421.5 L 430.0 425.5 L 429.5 434.0 L 428.0 430.5 Q 430.8 428.8 429.0 422.5 Q 428.1 417.1 430.5 415.0 Z" /><path desc="l 10 p 111" fill="rgb(208,184,58)" stroke="rgb(208,184,58)" stroke-width="1" opacity="0.996078431372549" d="M 47.5 416.0 L 48.0 419.5 L 47.0 419.5 L 47.5 416.0 Z" /><path desc="l 10 p 112" fill="rgb(208,184,58)" stroke="rgb(208,184,58)" stroke-width="1" opacity="0.996078431372549" d="M 426.5 416.0 L 427.0 421.5 L 426.0 421.5 L 426.5 416.0 Z" /><path desc="l 10 p 113" fill="rgb(208,184,58)" stroke="rgb(208,184,58)" stroke-width="1" opacity="0.996078431372549" d="M 418.5 417.0 L 420.0 417.5 L 419.5 419.0 L 418.5 417.0 Z" /><path desc="l 9 p 11" fill="rgb(232,220,155)" stroke="rgb(232,220,155)" stroke-width="1" opacity="0.2549019607843137" d="M 431.5 417.0 L 432.0 420.5 L 431.0 420.5 L 431.5 417.0 Z" /><path desc="l 9 p 12" fill="rgb(232,220,155)" stroke="rgb(232,220,155)" stroke-width="1" opacity="0.2549019607843137" d="M 37.5 419.0 L 38.0 421.5 L 37.0 421.5 L 37.5 419.0 Z" /><path desc="l 15 p 38" fill="rgb(249,243,199)" stroke="rgb(249,243,199)" stroke-width="1" opacity="0.07058823529411765" d="M 37.5 423.0 L 38.0 425.5 L 37.0 425.5 L 37.5 423.0 Z" /><path desc="l 13 p 19" fill="rgb(198,182,91)" stroke="rgb(198,182,91)" stroke-width="1" opacity="0.6941176470588235" d="M 38.5 423.0 L 39.0 426.5 L 38.0 426.5 L 38.5 423.0 Z" /><path desc="l 13 p 20" fill="rgb(198,182,91)" stroke="rgb(198,182,91)" stroke-width="1" opacity="0.6941176470588235" d="M 430.5 423.0 L 431.0 425.5 L 430.0 425.5 L 430.5 423.0 Z" /><path desc="l 10 p 114" fill="rgb(208,184,58)" stroke="rgb(208,184,58)" stroke-width="1" opacity="0.996078431372549" d="M 39.5 426.0 Q 41.8 427.8 41.0 432.5 L 41.0 444.5 L 40.0 444.5 L 39.5 426.0 Z" /><path desc="l 10 p 115" fill="rgb(208,184,58)" stroke="rgb(208,184,58)" stroke-width="1" opacity="0.996078431372549" d="M 196.5 426.0 Q 200.3 425.3 201.0 427.5 L 198.5 428.0 L 196.5 426.0 Z" /><path desc="l 10 p 116" fill="rgb(208,184,58)" stroke="rgb(208,184,58)" stroke-width="1" opacity="0.996078431372549" d="M 213.5 427.0 L 217.0 427.5 L 214.5 429.0 L 213.5 427.0 Z" /><path desc="l 10 p 117" fill="rgb(208,184,58)" stroke="rgb(208,184,58)" stroke-width="1" opacity="0.996078431372549" d="M 219.5 428.0 L 221.0 428.5 L 220.5 431.0 L 219.5 428.0 Z" /><path desc="l 10 p 118" fill="rgb(208,184,58)" stroke="rgb(208,184,58)" stroke-width="1" opacity="0.996078431372549" d="M 423.5 430.0 L 426.0 430.5 L 425.5 432.0 L 423.5 430.0 Z" /><path desc="l 12 p 28" fill="rgb(201,182,86)" stroke="rgb(201,182,86)" stroke-width="1" opacity="0.8431372549019608" d="M 429.5 434.0 L 430.0 437.5 L 429.0 437.5 L 429.5 434.0 Z" /><path desc="l 12 p 29" fill="rgb(201,182,86)" stroke="rgb(201,182,86)" stroke-width="1" opacity="0.8431372549019608" d="M 39.5 436.0 L 40.0 438.5 L 39.0 438.5 L 39.5 436.0 Z" /><path desc="l 10 p 119" fill="rgb(208,184,58)" stroke="rgb(208,184,58)" stroke-width="1" opacity="0.996078431372549" d="M 428.5 437.0 L 429.0 443.5 Q 426.3 445.3 428.0 451.5 L 425.5 478.0 L 420.5 479.0 L 421.5 477.0 L 425.0 476.5 L 424.0 472.5 L 426.0 461.5 L 427.0 449.5 Q 425.1 440.6 428.5 437.0 Z" /><path desc="l 9 p 13" fill="rgb(232,220,155)" stroke="rgb(232,220,155)" stroke-width="1" opacity="0.2549019607843137" d="M 429.5 440.0 L 430.0 443.5 L 429.0 443.5 L 429.5 440.0 Z" /><path desc="l 9 p 14" fill="rgb(232,220,155)" stroke="rgb(232,220,155)" stroke-width="1" opacity="0.2549019607843137" d="M 39.5 441.0 L 40.0 444.5 L 39.0 444.5 L 39.5 441.0 Z" /><path desc="l 13 p 21" fill="rgb(198,182,91)" stroke="rgb(198,182,91)" stroke-width="1" opacity="0.6941176470588235" d="M 428.5 445.0 L 429.0 449.5 L 428.0 449.5 L 428.5 445.0 Z" /><path desc="l 13 p 22" fill="rgb(198,182,91)" stroke="rgb(198,182,91)" stroke-width="1" opacity="0.6941176470588235" d="M 40.5 446.0 L 41.0 449.5 L 40.0 449.5 L 40.5 446.0 Z" /><path desc="l 10 p 120" fill="rgb(208,184,58)" stroke="rgb(208,184,58)" stroke-width="1" opacity="0.996078431372549" d="M 41.5 447.0 L 43.0 455.5 L 43.0 467.5 L 42.0 467.5 L 41.5 447.0 Z" /><path desc="l 10 p 121" fill="rgb(208,184,58)" stroke="rgb(208,184,58)" stroke-width="1" opacity="0.996078431372549" d="M 424.5 452.0 L 424.0 453.5 Q 424.8 457.3 422.5 458.0 L 422.0 453.5 L 424.5 452.0 Z" /><path desc="l 15 p 39" fill="rgb(249,243,199)" stroke="rgb(249,243,199)" stroke-width="1" opacity="0.07058823529411765" d="M 40.5 453.0 L 41.0 462.5 L 40.0 462.5 L 40.5 453.0 Z" /><path desc="l 15 p 40" fill="rgb(249,243,199)" stroke="rgb(249,243,199)" stroke-width="1" opacity="0.07058823529411765" d="M 428.5 453.0 L 429.0 462.5 L 428.0 462.5 L 428.5 453.0 Z" /><path desc="l 6 p 27" fill="rgb(227,215,152)" stroke="rgb(227,215,152)" stroke-width="1" opacity="0.4196078431372549" d="M 41.5 463.0 L 42.0 465.5 L 41.0 465.5 L 41.5 463.0 Z" /><path desc="l 6 p 28" fill="rgb(227,215,152)" stroke="rgb(227,215,152)" stroke-width="1" opacity="0.4196078431372549" d="M 427.5 463.0 L 428.0 466.5 L 427.0 466.5 L 427.5 463.0 Z" /><path desc="l 10 p 122" fill="rgb(208,184,58)" stroke="rgb(208,184,58)" stroke-width="1" opacity="0.996078431372549" d="M 419.5 465.0 L 420.0 469.5 L 418.5 470.0 L 418.0 466.5 L 419.5 465.0 Z" /><path desc="l 15 p 41" fill="rgb(249,243,199)" stroke="rgb(249,243,199)" stroke-width="1" opacity="0.07058823529411765" d="M 41.5 468.0 L 42.0 470.5 L 41.0 470.5 L 41.5 468.0 Z" /><path desc="l 13 p 23" fill="rgb(198,182,91)" stroke="rgb(198,182,91)" stroke-width="1" opacity="0.6941176470588235" d="M 426.5 468.0 L 427.0 472.5 L 426.0 472.5 L 426.5 468.0 Z" /><path desc="l 13 p 24" fill="rgb(198,182,91)" stroke="rgb(198,182,91)" stroke-width="1" opacity="0.6941176470588235" d="M 42.5 470.0 L 43.0 473.5 L 42.0 473.5 L 42.5 470.0 Z" /><path desc="l 10 p 123" fill="rgb(208,184,58)" stroke="rgb(208,184,58)" stroke-width="1" opacity="0.996078431372549" d="M 45.5 470.0 L 48.0 470.5 L 47.5 473.0 L 45.0 471.5 L 45.5 470.0 Z" /><path desc="l 10 p 124" fill="rgb(208,184,58)" stroke="rgb(208,184,58)" stroke-width="1" opacity="0.996078431372549" d="M 418.5 472.0 L 420.0 472.5 L 421.0 474.5 L 419.5 475.0 L 418.5 472.0 Z" /><path desc="l 10 p 125" fill="rgb(208,184,58)" stroke="rgb(208,184,58)" stroke-width="1" opacity="0.996078431372549" d="M 43.5 474.0 Q 45.8 478.3 48.0 476.5 L 49.0 478.5 L 46.5 479.0 L 43.0 477.5 L 43.5 474.0 Z" /><path desc="l 10 p 126" fill="rgb(208,184,58)" stroke="rgb(208,184,58)" stroke-width="1" opacity="0.996078431372549" d="M 300.5 475.0 L 301.5 477.0 L 300.0 476.5 L 300.5 475.0 Z" /><path desc="l 15 p 42" fill="rgb(249,243,199)" stroke="rgb(249,243,199)" stroke-width="1" opacity="0.07058823529411765" d="M 42.5 476.0 L 44.0 479.5 L 42.0 478.5 L 42.5 476.0 Z" /><path desc="l 15 p 43" fill="rgb(249,243,199)" stroke="rgb(249,243,199)" stroke-width="1" opacity="0.07058823529411765" d="M 426.5 476.0 L 427.0 478.5 L 426.0 478.5 L 426.5 476.0 Z" /><path desc="l 1 p 10" fill="rgb(238,226,166)" stroke="rgb(238,226,166)" stroke-width="1" opacity="0.18823529411764706" d="M 44.5 479.0 L 47.0 479.5 L 44.5 480.0 L 44.5 479.0 Z" /><path desc="l 10 p 127" fill="rgb(208,184,58)" stroke="rgb(208,184,58)" stroke-width="1" opacity="0.996078431372549" d="M 50.5 479.0 L 55.5 480.0 L 60.5 482.0 Q 61.8 479.8 63.0 482.5 L 60.5 483.0 L 53.5 481.0 L 51.5 480.0 L 50.5 479.0 Z" /><path desc="l 10 p 128" fill="rgb(208,184,58)" stroke="rgb(208,184,58)" stroke-width="1" opacity="0.996078431372549" d="M 415.5 479.0 L 419.0 479.5 L 413.5 481.0 L 413.5 480.0 L 415.5 479.0 Z" /><path desc="l 10 p 129" fill="rgb(208,184,58)" stroke="rgb(208,184,58)" stroke-width="1" opacity="0.996078431372549" d="M 63.5 480.0 L 66.0 480.5 L 63.5 481.0 L 63.5 480.0 Z" /><path desc="l 10 p 130" fill="rgb(208,184,58)" stroke="rgb(208,184,58)" stroke-width="1" opacity="0.996078431372549" d="M 359.5 480.0 L 362.0 480.5 L 361.5 482.0 L 359.5 480.0 Z" /><path desc="l 10 p 131" fill="rgb(208,184,58)" stroke="rgb(208,184,58)" stroke-width="1" opacity="0.996078431372549" d="M 381.5 480.0 L 384.0 480.5 Q 381.9 483.8 381.5 480.0 Z" /><path desc="l 10 p 132" fill="rgb(208,184,58)" stroke="rgb(208,184,58)" stroke-width="1" opacity="0.996078431372549" d="M 407.5 481.0 L 411.0 481.5 L 406.5 483.0 L 407.5 481.0 Z" /><path desc="l 10 p 133" fill="rgb(208,184,58)" stroke="rgb(208,184,58)" stroke-width="1" opacity="0.996078431372549" d="M 371.5 482.0 L 377.0 482.5 Q 375.8 485.3 370.5 484.0 L 371.5 482.0 Z" /><path desc="l 10 p 134" fill="rgb(208,184,58)" stroke="rgb(208,184,58)" stroke-width="1" opacity="0.996078431372549" d="M 399.5 482.0 L 404.0 483.5 L 398.5 485.0 L 398.0 483.5 L 399.5 482.0 Z" /><path desc="l 10 p 135" fill="rgb(208,184,58)" stroke="rgb(208,184,58)" stroke-width="1" opacity="0.996078431372549" d="M 65.5 483.0 L 69.0 484.5 L 67.5 485.0 L 65.5 483.0 Z" /><path desc="l 15 p 44" fill="rgb(249,243,199)" stroke="rgb(249,243,199)" stroke-width="1" opacity="0.07058823529411765" d="M 63.5 484.0 L 67.0 485.5 L 65.5 486.0 L 63.5 484.0 Z" /><path desc="l 10 p 136" fill="rgb(208,184,58)" stroke="rgb(208,184,58)" stroke-width="1" opacity="0.996078431372549" d="M 97.5 484.0 L 100.0 484.5 L 97.5 485.0 L 97.5 484.0 Z" /><path desc="l 10 p 137" fill="rgb(208,184,58)" stroke="rgb(208,184,58)" stroke-width="1" opacity="0.996078431372549" d="M 71.5 485.0 L 76.5 486.0 L 83.5 488.0 L 89.5 489.0 L 92.5 488.0 L 93.5 491.0 L 99.5 492.0 L 106.0 494.5 L 103.5 495.0 L 80.5 488.0 L 73.5 486.0 Q 70.5 486.5 71.5 485.0 Z" /><path desc="l 10 p 138" fill="rgb(208,184,58)" stroke="rgb(208,184,58)" stroke-width="1" opacity="0.996078431372549" d="M 353.5 485.0 L 355.0 485.5 L 354.5 487.0 L 353.0 486.5 L 353.5 485.0 Z" /><path desc="l 10 p 139" fill="rgb(208,184,58)" stroke="rgb(208,184,58)" stroke-width="1" opacity="0.996078431372549" d="M 390.5 485.0 L 397.0 485.5 L 391.5 487.0 L 390.5 485.0 Z" /><path desc="l 10 p 140" fill="rgb(208,184,58)" stroke="rgb(208,184,58)" stroke-width="1" opacity="0.996078431372549" d="M 385.5 487.0 L 390.0 487.5 L 384.5 489.0 L 385.5 487.0 Z" /><path desc="l 10 p 141" fill="rgb(208,184,58)" stroke="rgb(208,184,58)" stroke-width="1" opacity="0.996078431372549" d="M 378.5 489.0 L 383.0 489.5 L 370.5 493.0 L 369.5 491.0 Q 376.2 492.2 378.5 489.0 Z" /><path desc="l 10 p 142" fill="rgb(208,184,58)" stroke="rgb(208,184,58)" stroke-width="1" opacity="0.996078431372549" d="M 109.5 490.0 L 112.0 490.5 L 111.5 492.0 L 109.0 491.5 L 109.5 490.0 Z" /><path desc="l 10 p 143" fill="rgb(208,184,58)" stroke="rgb(208,184,58)" stroke-width="1" opacity="0.996078431372549" d="M 352.5 492.0 L 354.0 492.5 L 353.5 494.0 L 352.0 493.5 L 352.5 492.0 Z" /><path desc="l 10 p 144" fill="rgb(208,184,58)" stroke="rgb(208,184,58)" stroke-width="1" opacity="0.996078431372549" d="M 365.5 492.0 L 368.0 493.5 L 355.5 497.0 L 355.5 496.0 L 361.5 494.0 L 365.5 492.0 Z" /><path desc="l 10 p 145" fill="rgb(208,184,58)" stroke="rgb(208,184,58)" stroke-width="1" opacity="0.996078431372549" d="M 108.5 495.0 Q 112.3 494.3 113.0 496.5 L 111.5 497.0 L 109.5 496.0 L 108.5 495.0 Z" /><path desc="l 10 p 146" fill="rgb(208,184,58)" stroke="rgb(208,184,58)" stroke-width="1" opacity="0.996078431372549" d="M 322.5 496.0 L 326.0 496.5 Q 324.8 499.3 323.5 497.0 L 322.5 496.0 Z" /><path desc="l 10 p 147" fill="rgb(208,184,58)" stroke="rgb(208,184,58)" stroke-width="1" opacity="0.996078431372549" d="M 115.5 497.0 L 127.5 500.0 L 130.0 498.5 L 129.0 500.5 L 139.5 503.0 L 143.5 504.0 L 148.0 506.5 L 146.5 506.0 L 138.5 504.0 L 126.0 500.5 L 118.5 499.0 L 116.5 498.0 L 115.5 497.0 Z" /><path desc="l 10 p 148" fill="rgb(208,184,58)" stroke="rgb(208,184,58)" stroke-width="1" opacity="0.996078431372549" d="M 350.5 497.0 L 354.0 497.5 L 322.5 506.0 L 322.5 505.0 L 325.0 504.5 L 324.0 502.5 L 325.5 502.0 L 330.5 503.0 L 340.0 499.5 L 340.5 498.0 L 345.5 499.0 L 350.5 497.0 Z" /><path desc="l 15 p 45" fill="rgb(249,243,199)" stroke="rgb(249,243,199)" stroke-width="1" opacity="0.07058823529411765" d="M 111.5 498.0 L 115.0 498.5 L 111.5 499.0 L 111.5 498.0 Z" /><path desc="l 15 p 46" fill="rgb(249,243,199)" stroke="rgb(249,243,199)" stroke-width="1" opacity="0.07058823529411765" d="M 353.5 498.0 L 357.0 498.5 L 353.5 499.0 L 353.5 498.0 Z" /><path desc="l 15 p 47" fill="rgb(249,243,199)" stroke="rgb(249,243,199)" stroke-width="1" opacity="0.07058823529411765" d="M 119.5 500.0 L 122.0 500.5 L 119.5 501.0 L 119.5 500.0 Z" /><path desc="l 10 p 149" fill="rgb(208,184,58)" stroke="rgb(208,184,58)" stroke-width="1" opacity="0.996078431372549" d="M 146.5 500.0 L 150.0 501.5 L 149.5 503.0 L 146.0 502.5 L 146.5 500.0 Z" /><path desc="l 15 p 48" fill="rgb(249,243,199)" stroke="rgb(249,243,199)" stroke-width="1" opacity="0.07058823529411765" d="M 346.5 500.0 L 349.0 500.5 L 346.5 501.0 L 346.5 500.0 Z" /><path desc="l 15 p 49" fill="rgb(249,243,199)" stroke="rgb(249,243,199)" stroke-width="1" opacity="0.07058823529411765" d="M 126.5 502.0 L 129.0 502.5 L 126.5 503.0 L 126.5 502.0 Z" /><path desc="l 10 p 150" fill="rgb(208,184,58)" stroke="rgb(208,184,58)" stroke-width="1" opacity="0.996078431372549" d="M 305.5 504.0 L 308.0 505.5 L 305.5 506.0 L 305.5 504.0 Z" /><path desc="l 10 p 151" fill="rgb(208,184,58)" stroke="rgb(208,184,58)" stroke-width="1" opacity="0.996078431372549" d="M 319.5 505.0 L 321.0 505.5 L 320.5 507.0 L 319.0 506.5 L 319.5 505.0 Z" /><path desc="l 10 p 152" fill="rgb(208,184,58)" stroke="rgb(208,184,58)" stroke-width="1" opacity="0.996078431372549" d="M 151.5 507.0 Q 155.3 506.3 156.0 508.5 L 154.5 509.0 L 152.5 508.0 L 151.5 507.0 Z" /><path desc="l 10 p 153" fill="rgb(208,184,58)" stroke="rgb(208,184,58)" stroke-width="1" opacity="0.996078431372549" d="M 162.5 507.0 L 165.0 510.5 L 161.5 511.0 L 158.0 509.5 L 162.5 507.0 Z" /><path desc="l 10 p 154" fill="rgb(208,184,58)" stroke="rgb(208,184,58)" stroke-width="1" opacity="0.996078431372549" d="M 315.5 507.0 L 318.0 507.5 L 312.5 509.0 L 312.5 508.0 L 315.5 507.0 Z" /><path desc="l 10 p 155" fill="rgb(208,184,58)" stroke="rgb(208,184,58)" stroke-width="1" opacity="0.996078431372549" d="M 307.5 509.0 L 310.0 509.5 L 305.5 511.0 L 305.5 510.0 L 307.5 509.0 Z" /><path desc="l 10 p 156" fill="rgb(208,184,58)" stroke="rgb(208,184,58)" stroke-width="1" opacity="0.996078431372549" d="M 166.5 511.0 L 180.0 514.5 L 185.0 516.5 L 182.5 517.0 L 172.0 513.5 L 168.5 513.0 L 166.5 511.0 Z" /><path desc="l 10 p 157" fill="rgb(208,184,58)" stroke="rgb(208,184,58)" stroke-width="1" opacity="0.996078431372549" d="M 298.5 511.0 L 303.0 511.5 L 297.5 513.0 L 298.5 511.0 Z" /><path desc="l 10 p 158" fill="rgb(208,184,58)" stroke="rgb(208,184,58)" stroke-width="1" opacity="0.996078431372549" d="M 293.5 513.0 L 296.0 513.5 L 290.5 515.0 L 290.5 514.0 L 293.5 513.0 Z" /><path desc="l 10 p 159" fill="rgb(208,184,58)" stroke="rgb(208,184,58)" stroke-width="1" opacity="0.996078431372549" d="M 196.5 514.0 L 203.0 514.5 L 202.5 516.0 L 196.0 515.5 L 196.5 514.0 Z" /><path desc="l 10 p 160" fill="rgb(208,184,58)" stroke="rgb(208,184,58)" stroke-width="1" opacity="0.996078431372549" d="M 284.5 515.0 L 289.0 515.5 L 276.5 519.0 L 276.5 518.0 L 284.5 515.0 Z" /><path desc="l 10 p 161" fill="rgb(208,184,58)" stroke="rgb(208,184,58)" stroke-width="1" opacity="0.996078431372549" d="M 248.5 516.0 L 258.0 516.5 L 257.5 518.0 L 248.0 517.5 L 248.5 516.0 Z" /><path desc="l 15 p 50" fill="rgb(249,243,199)" stroke="rgb(249,243,199)" stroke-width="1" opacity="0.07058823529411765" d="M 180.5 517.0 L 184.0 517.5 L 180.5 518.0 L 180.5 517.0 Z" /><path desc="l 10 p 162" fill="rgb(208,184,58)" stroke="rgb(208,184,58)" stroke-width="1" opacity="0.996078431372549" d="M 186.5 517.0 Q 191.8 515.8 193.0 518.5 L 190.5 519.0 L 188.5 518.0 Q 185.5 518.5 186.5 517.0 Z" /><path desc="l 15 p 51" fill="rgb(249,243,199)" stroke="rgb(249,243,199)" stroke-width="1" opacity="0.07058823529411765" d="M 285.5 517.0 L 288.0 517.5 L 285.5 518.0 L 285.5 517.0 Z" /><path desc="l 10 p 163" fill="rgb(208,184,58)" stroke="rgb(208,184,58)" stroke-width="1" opacity="0.996078431372549" d="M 194.5 519.0 Q 199.0 518.0 200.0 520.5 L 197.5 521.0 L 195.5 520.0 L 194.5 519.0 Z" /><path desc="l 10 p 164" fill="rgb(208,184,58)" stroke="rgb(208,184,58)" stroke-width="1" opacity="0.996078431372549" d="M 272.5 519.0 L 274.0 519.5 L 261.5 523.0 L 260.0 520.5 L 261.5 520.0 L 266.5 521.0 L 272.5 519.0 Z" /><path desc="l 10 p 165" fill="rgb(208,184,58)" stroke="rgb(208,184,58)" stroke-width="1" opacity="0.996078431372549" d="M 222.5 520.0 L 224.0 520.5 L 221.5 522.0 L 222.5 520.0 Z" /><path desc="l 10 p 166" fill="rgb(208,184,58)" stroke="rgb(208,184,58)" stroke-width="1" opacity="0.996078431372549" d="M 201.5 521.0 L 206.5 522.0 L 208.0 521.5 L 207.5 523.0 L 202.5 522.0 L 201.5 521.0 Z" /><path desc="l 10 p 167" fill="rgb(208,184,58)" stroke="rgb(208,184,58)" stroke-width="1" opacity="0.996078431372549" d="M 210.5 521.0 L 211.5 523.0 L 218.0 525.5 L 215.5 526.0 L 209.0 523.5 L 210.5 521.0 Z" /><path desc="l 10 p 168" fill="rgb(208,184,58)" stroke="rgb(208,184,58)" stroke-width="1" opacity="0.996078431372549" d="M 253.5 523.0 L 260.0 523.5 L 244.5 528.0 Q 239.1 531.1 229.5 530.0 L 219.0 525.5 L 220.5 526.0 L 228.5 528.0 Q 229.8 530.3 234.5 529.0 L 239.5 528.0 Q 248.3 527.3 253.5 523.0 Z" /><path desc="l 15 p 52" fill="rgb(249,243,199)" stroke="rgb(249,243,199)" stroke-width="1" opacity="0.07058823529411765" d="M 213.5 526.0 L 216.0 526.5 L 213.5 527.0 L 213.5 526.0 Z" /><path desc="l 15 p 53" fill="rgb(249,243,199)" stroke="rgb(249,243,199)" stroke-width="1" opacity="0.07058823529411765" d="M 252.5 526.0 L 255.0 526.5 L 252.5 527.0 L 252.5 526.0 Z" /><path desc="l 13 p 25" fill="rgb(198,182,91)" stroke="rgb(198,182,91)" stroke-width="1" opacity="0.6941176470588235" d="M 232.5 530.0 L 236.0 530.5 L 232.5 531.0 L 232.5 530.0 Z" /></svg>