<svg width="860" height="612" version="1.1" xmlns="http://www.w3.org/2000/svg" desc="Created with ImageTracer.java version 1.1.2" ><path desc="l 0 p 0" fill="rgb(246,246,246)" stroke="rgb(246,246,246)" stroke-width="1" opacity="1.0" d="M 0.5 0.0 L 860.0 0.5 L 859.5 612.0 L 0.0 611.5 L 0.5 0.0 Z" /><path desc="l 12 p 0" fill="rgb(140,126,155)" stroke="rgb(140,126,155)" stroke-width="1" opacity="1.0" d="M 632.5 41.0 L 638.0 41.5 L 632.5 42.0 L 632.5 41.0 Z" /><path desc="l 6 p 0" fill="rgb(40,39,37)" stroke="rgb(40,39,37)" stroke-width="1" opacity="1.0" d="M 638.5 41.0 L 647.5 42.0 L 653.5 43.0 L 662.5 47.0 Q 673.3 51.3 679.0 60.5 L 685.5 75.0 L 687.0 83.5 L 687.0 95.5 Q 682.5 116.0 667.5 126.0 L 659.5 130.0 L 649.5 133.0 Q 644.4 135.4 635.5 134.0 Q 616.2 130.8 606.0 118.5 L 598.0 104.5 Q 594.8 100.2 595.0 92.5 L 595.0 78.5 Q 598.8 63.3 608.5 54.0 Q 615.8 46.3 627.5 43.0 L 638.5 41.0 Z" /><path desc="l 12 p 1" fill="rgb(140,126,155)" stroke="rgb(140,126,155)" stroke-width="1" opacity="1.0" d="M 644.5 41.0 L 650.0 41.5 L 644.5 42.0 L 644.5 41.0 Z" /><path desc="l 12 p 2" fill="rgb(140,126,155)" stroke="rgb(140,126,155)" stroke-width="1" opacity="1.0" d="M 622.5 44.0 L 624.0 44.5 L 620.5 46.0 L 620.5 45.0 L 622.5 44.0 Z" /><path desc="l 12 p 3" fill="rgb(140,126,155)" stroke="rgb(140,126,155)" stroke-width="1" opacity="1.0" d="M 658.5 44.0 L 665.0 47.5 L 663.5 47.0 L 660.0 45.5 L 658.5 44.0 Z" /><path desc="l 12 p 4" fill="rgb(140,126,155)" stroke="rgb(140,126,155)" stroke-width="1" opacity="1.0" d="M 618.5 46.0 L 617.5 48.0 L 615.5 49.0 L 616.5 47.0 L 618.5 46.0 Z" /><path desc="l 12 p 5" fill="rgb(140,126,155)" stroke="rgb(140,126,155)" stroke-width="1" opacity="1.0" d="M 666.5 48.0 L 667.5 50.0 L 666.5 48.0 Z" /><path desc="l 12 p 6" fill="rgb(140,126,155)" stroke="rgb(140,126,155)" stroke-width="1" opacity="1.0" d="M 613.5 49.0 L 609.5 54.0 L 608.0 53.5 L 613.5 49.0 Z" /><path desc="l 12 p 7" fill="rgb(140,126,155)" stroke="rgb(140,126,155)" stroke-width="1" opacity="1.0" d="M 635.5 49.0 Q 653.1 47.9 662.0 55.5 L 673.0 65.5 L 677.0 74.5 Q 679.6 77.4 679.0 83.5 L 679.0 95.5 Q 675.2 111.2 663.5 119.0 Q 654.0 127.5 634.5 126.0 Q 620.9 123.1 613.0 114.5 Q 602.5 105.0 602.0 85.5 L 604.0 75.5 Q 608.4 62.9 618.5 56.0 Q 625.1 50.6 635.5 49.0 Z" /><path desc="l 12 p 8" fill="rgb(140,126,155)" stroke="rgb(140,126,155)" stroke-width="1" opacity="1.0" d="M 669.5 50.0 L 678.5 60.0 L 669.5 50.0 Z" /><path desc="l 12 p 9" fill="rgb(140,126,155)" stroke="rgb(140,126,155)" stroke-width="1" opacity="1.0" d="M 606.5 56.0 L 603.0 60.5 L 601.5 63.0 L 602.0 61.5 L 606.5 56.0 Z" /><path desc="l 12 p 10" fill="rgb(140,126,155)" stroke="rgb(140,126,155)" stroke-width="1" opacity="1.0" d="M 679.5 61.0 L 680.5 63.0 L 679.5 61.0 Z" /><path desc="l 12 p 11" fill="rgb(140,126,155)" stroke="rgb(140,126,155)" stroke-width="1" opacity="1.0" d="M 600.5 64.0 L 600.0 65.5 L 597.5 71.0 L 597.0 69.5 L 600.5 64.0 Z" /><path desc="l 12 p 12" fill="rgb(140,126,155)" stroke="rgb(140,126,155)" stroke-width="1" opacity="1.0" d="M 596.5 72.0 L 597.0 74.5 L 595.5 78.0 L 595.0 75.5 L 596.5 72.0 Z" /><path desc="l 12 p 13" fill="rgb(140,126,155)" stroke="rgb(140,126,155)" stroke-width="1" opacity="1.0" d="M 686.5 76.0 L 687.0 78.5 L 686.0 78.5 L 686.5 76.0 Z" /><path desc="l 12 p 14" fill="rgb(140,126,155)" stroke="rgb(140,126,155)" stroke-width="1" opacity="1.0" d="M 594.5 80.0 L 595.0 94.5 L 594.0 94.5 L 594.5 80.0 Z" /><path desc="l 12 p 15" fill="rgb(140,126,155)" stroke="rgb(140,126,155)" stroke-width="1" opacity="1.0" d="M 687.5 81.0 L 688.0 93.5 L 687.0 93.5 L 687.5 81.0 Z" /><path desc="l 12 p 16" fill="rgb(140,126,155)" stroke="rgb(140,126,155)" stroke-width="1" opacity="1.0" d="M 686.5 96.0 L 687.0 98.5 L 686.0 98.5 L 686.5 96.0 Z" /><path desc="l 12 p 17" fill="rgb(140,126,155)" stroke="rgb(140,126,155)" stroke-width="1" opacity="1.0" d="M 595.5 97.0 L 596.0 99.5 L 595.0 99.5 L 595.5 97.0 Z" /><path desc="l 12 p 18" fill="rgb(140,126,155)" stroke="rgb(140,126,155)" stroke-width="1" opacity="1.0" d="M 685.5 100.0 L 686.0 102.5 L 684.5 105.0 L 684.0 103.5 L 685.5 100.0 Z" /><path desc="l 12 p 19" fill="rgb(140,126,155)" stroke="rgb(140,126,155)" stroke-width="1" opacity="1.0" d="M 597.5 104.0 L 601.0 110.5 L 599.0 109.5 L 597.5 104.0 Z" /><path desc="l 12 p 20" fill="rgb(140,126,155)" stroke="rgb(140,126,155)" stroke-width="1" opacity="1.0" d="M 682.5 108.0 L 683.0 109.5 L 681.0 110.5 L 682.5 108.0 Z" /><path desc="l 12 p 21" fill="rgb(140,126,155)" stroke="rgb(140,126,155)" stroke-width="1" opacity="1.0" d="M 601.5 112.0 L 606.0 117.5 L 602.0 114.5 L 601.5 112.0 Z" /><path desc="l 12 p 22" fill="rgb(140,126,155)" stroke="rgb(140,126,155)" stroke-width="1" opacity="1.0" d="M 680.5 112.0 L 679.5 114.0 L 680.5 112.0 Z" /><path desc="l 12 p 23" fill="rgb(140,126,155)" stroke="rgb(140,126,155)" stroke-width="1" opacity="1.0" d="M 678.5 115.0 L 668.5 126.0 L 678.5 115.0 Z" /><path desc="l 12 p 24" fill="rgb(140,126,155)" stroke="rgb(140,126,155)" stroke-width="1" opacity="1.0" d="M 607.5 120.0 L 614.0 125.5 L 609.5 122.0 L 607.5 120.0 Z" /><path desc="l 12 p 25" fill="rgb(140,126,155)" stroke="rgb(140,126,155)" stroke-width="1" opacity="1.0" d="M 615.5 126.0 L 616.5 128.0 L 615.5 126.0 Z" /><path desc="l 12 p 26" fill="rgb(140,126,155)" stroke="rgb(140,126,155)" stroke-width="1" opacity="1.0" d="M 666.5 126.0 L 665.5 128.0 L 661.5 130.0 L 662.5 128.0 L 666.5 126.0 Z" /><path desc="l 12 p 27" fill="rgb(140,126,155)" stroke="rgb(140,126,155)" stroke-width="1" opacity="1.0" d="M 622.5 130.0 L 626.0 131.5 L 624.5 132.0 L 622.5 130.0 Z" /><path desc="l 12 p 28" fill="rgb(140,126,155)" stroke="rgb(140,126,155)" stroke-width="1" opacity="1.0" d="M 627.5 132.0 L 630.0 132.5 L 627.5 133.0 L 627.5 132.0 Z" /><path desc="l 12 p 29" fill="rgb(140,126,155)" stroke="rgb(140,126,155)" stroke-width="1" opacity="1.0" d="M 651.5 132.0 L 654.0 132.5 L 647.5 134.0 L 647.5 133.0 L 651.5 132.0 Z" /><path desc="l 12 p 30" fill="rgb(140,126,155)" stroke="rgb(140,126,155)" stroke-width="1" opacity="1.0" d="M 631.5 133.0 L 635.0 133.5 L 631.5 134.0 L 631.5 133.0 Z" /><path desc="l 12 p 31" fill="rgb(140,126,155)" stroke="rgb(140,126,155)" stroke-width="1" opacity="1.0" d="M 143.5 137.0 L 159.0 137.5 Q 167.6 137.9 172.5 142.0 Q 182.2 146.3 188.0 154.5 L 195.0 167.5 L 197.5 177.0 L 198.0 189.5 Q 194.0 210.5 179.5 221.0 Q 173.6 226.6 164.0 228.5 L 155.5 230.0 L 142.5 230.0 Q 122.9 225.6 113.0 211.5 L 107.5 201.0 L 104.5 190.0 L 104.0 177.5 Q 108.0 156.5 122.5 146.0 Q 130.8 139.3 143.5 137.0 Z" /><path desc="l 12 p 32" fill="rgb(140,126,155)" stroke="rgb(140,126,155)" stroke-width="1" opacity="1.0" d="M 576.5 137.0 L 582.0 137.5 L 572.5 139.0 L 572.5 138.0 L 576.5 137.0 Z" /><path desc="l 6 p 1" fill="rgb(40,39,37)" stroke="rgb(40,39,37)" stroke-width="1" opacity="1.0" d="M 582.5 137.0 Q 609.5 138.0 621.0 154.5 Q 631.8 166.2 631.0 189.5 L 630.0 194.5 Q 628.7 202.7 624.0 207.5 L 613.5 220.0 L 600.5 227.0 L 591.5 229.0 L 582.5 230.0 L 568.5 227.0 Q 554.6 221.9 547.0 210.5 L 542.5 202.0 L 540.0 194.5 L 539.0 188.5 L 539.0 174.5 Q 543.7 155.7 557.5 146.0 Q 564.8 140.3 576.0 138.5 L 582.5 137.0 Z" /><path desc="l 12 p 33" fill="rgb(140,126,155)" stroke="rgb(140,126,155)" stroke-width="1" opacity="1.0" d="M 588.5 137.0 L 598.0 138.5 L 594.5 139.0 L 590.5 138.0 Q 587.5 138.5 588.5 137.0 Z" /><path desc="l 12 p 34" fill="rgb(140,126,155)" stroke="rgb(140,126,155)" stroke-width="1" opacity="1.0" d="M 689.5 137.0 Q 710.5 135.0 721.0 143.5 Q 729.9 147.6 735.0 155.5 L 741.0 167.5 L 743.5 177.0 L 744.0 189.5 Q 740.0 210.5 725.5 221.0 Q 719.6 226.6 710.0 228.5 L 701.5 230.0 L 688.5 230.0 Q 669.7 225.8 660.0 212.5 L 653.0 199.5 L 650.5 189.0 L 650.0 178.5 Q 653.4 157.4 667.5 147.0 Q 675.9 139.4 689.5 137.0 Z" /><path desc="l 12 p 35" fill="rgb(140,126,155)" stroke="rgb(140,126,155)" stroke-width="1" opacity="1.0" d="M 569.5 139.0 L 571.0 139.5 Q 555.4 144.4 547.0 156.5 L 545.5 159.0 L 546.0 157.5 L 557.5 145.0 L 569.5 139.0 Z" /><path desc="l 12 p 36" fill="rgb(140,126,155)" stroke="rgb(140,126,155)" stroke-width="1" opacity="1.0" d="M 599.5 139.0 L 603.0 140.5 L 601.5 141.0 L 599.5 139.0 Z" /><path desc="l 6 p 2" fill="rgb(40,39,37)" stroke="rgb(40,39,37)" stroke-width="1" opacity="1.0" d="M 516.5 140.0 Q 519.3 141.3 518.0 146.5 L 518.0 161.5 L 518.0 224.5 L 518.0 475.5 Q 517.0 478.0 512.5 477.0 L 500.5 477.0 L 450.5 477.0 L 450.0 159.5 L 456.5 157.0 L 469.0 153.5 L 516.5 140.0 Z" /><path desc="l 12 p 37" fill="rgb(140,126,155)" stroke="rgb(140,126,155)" stroke-width="1" opacity="1.0" d="M 510.5 141.0 L 513.0 141.5 L 510.5 142.0 L 510.5 141.0 Z" /><path desc="l 12 p 38" fill="rgb(140,126,155)" stroke="rgb(140,126,155)" stroke-width="1" opacity="1.0" d="M 604.5 141.0 L 607.0 142.5 L 605.5 142.0 L 604.5 141.0 Z" /><path desc="l 12 p 39" fill="rgb(140,126,155)" stroke="rgb(140,126,155)" stroke-width="1" opacity="1.0" d="M 608.5 143.0 L 622.0 154.5 Q 629.6 162.4 631.0 176.5 L 630.0 176.5 Q 627.0 156.5 613.5 147.0 Q 608.9 145.8 608.5 143.0 Z" /><path desc="l 12 p 40" fill="rgb(140,126,155)" stroke="rgb(140,126,155)" stroke-width="1" opacity="1.0" d="M 577.5 145.0 Q 592.9 143.1 601.5 148.0 L 615.0 158.5 L 622.0 171.5 L 623.5 179.0 L 624.0 187.5 Q 621.1 205.1 609.5 214.0 L 595.5 221.0 L 589.5 222.0 L 576.5 222.0 Q 561.2 217.8 553.0 206.5 L 547.0 193.5 Q 544.3 187.3 546.0 176.5 Q 549.8 160.3 561.5 152.0 Q 567.9 146.9 577.5 145.0 Z" /><path desc="l 12 p 41" fill="rgb(140,126,155)" stroke="rgb(140,126,155)" stroke-width="1" opacity="1.0" d="M 492.5 146.0 L 495.0 146.5 L 492.5 147.0 L 492.5 146.0 Z" /><path desc="l 12 p 42" fill="rgb(140,126,155)" stroke="rgb(140,126,155)" stroke-width="1" opacity="1.0" d="M 485.5 148.0 L 488.0 148.5 L 485.5 149.0 L 485.5 148.0 Z" /><path desc="l 12 p 43" fill="rgb(140,126,155)" stroke="rgb(140,126,155)" stroke-width="1" opacity="1.0" d="M 463.5 154.0 L 466.0 154.5 L 463.5 155.0 L 463.5 154.0 Z" /><path desc="l 12 p 44" fill="rgb(140,126,155)" stroke="rgb(140,126,155)" stroke-width="1" opacity="1.0" d="M 450.5 158.0 L 450.0 159.5 L 449.5 477.0 L 449.0 159.5 L 450.5 158.0 Z" /><path desc="l 12 p 45" fill="rgb(140,126,155)" stroke="rgb(140,126,155)" stroke-width="1" opacity="1.0" d="M 544.5 160.0 L 544.0 161.5 L 541.5 167.0 L 541.0 165.5 L 544.5 160.0 Z" /><path desc="l 12 p 46" fill="rgb(140,126,155)" stroke="rgb(140,126,155)" stroke-width="1" opacity="1.0" d="M 540.5 168.0 L 541.0 170.5 L 539.5 174.0 L 539.0 171.5 L 540.5 168.0 Z" /><path desc="l 12 p 47" fill="rgb(140,126,155)" stroke="rgb(140,126,155)" stroke-width="1" opacity="1.0" d="M 538.5 176.0 L 539.0 191.5 L 538.0 191.5 L 538.5 176.0 Z" /><path desc="l 12 p 48" fill="rgb(140,126,155)" stroke="rgb(140,126,155)" stroke-width="1" opacity="1.0" d="M 631.5 178.0 L 632.0 188.5 L 631.0 188.5 L 631.5 178.0 Z" /><path desc="l 12 p 49" fill="rgb(140,126,155)" stroke="rgb(140,126,155)" stroke-width="1" opacity="1.0" d="M 630.5 190.0 L 631.0 194.5 L 629.5 198.0 L 629.0 195.5 L 630.5 190.0 Z" /><path desc="l 12 p 50" fill="rgb(140,126,155)" stroke="rgb(140,126,155)" stroke-width="1" opacity="1.0" d="M 539.5 193.0 L 541.0 198.5 L 540.0 198.5 L 539.5 193.0 Z" /><path desc="l 12 p 51" fill="rgb(140,126,155)" stroke="rgb(140,126,155)" stroke-width="1" opacity="1.0" d="M 628.5 199.0 L 629.0 200.5 L 627.5 203.0 L 627.0 201.5 L 628.5 199.0 Z" /><path desc="l 12 p 52" fill="rgb(140,126,155)" stroke="rgb(140,126,155)" stroke-width="1" opacity="1.0" d="M 541.5 200.0 Q 546.8 213.7 558.0 221.5 L 553.5 218.0 L 550.0 215.5 Q 543.2 209.1 541.5 200.0 Z" /><path desc="l 12 p 53" fill="rgb(140,126,155)" stroke="rgb(140,126,155)" stroke-width="1" opacity="1.0" d="M 626.5 204.0 L 626.0 205.5 Q 622.1 215.6 613.5 221.0 L 599.5 228.0 L 599.5 227.0 Q 613.3 222.8 621.0 212.5 L 626.5 204.0 Z" /><path desc="l 12 p 54" fill="rgb(140,126,155)" stroke="rgb(140,126,155)" stroke-width="1" opacity="1.0" d="M 559.5 222.0 Q 567.7 228.8 582.0 229.5 L 575.5 230.0 L 564.0 225.5 Q 559.7 224.6 559.5 222.0 Z" /><path desc="l 12 p 55" fill="rgb(140,126,155)" stroke="rgb(140,126,155)" stroke-width="1" opacity="1.0" d="M 595.5 228.0 L 598.0 228.5 L 595.5 229.0 L 595.5 228.0 Z" /><path desc="l 12 p 56" fill="rgb(140,126,155)" stroke="rgb(140,126,155)" stroke-width="1" opacity="1.0" d="M 588.5 229.0 L 594.0 229.5 L 588.5 230.0 L 588.5 229.0 Z" /><path desc="l 12 p 57" fill="rgb(140,126,155)" stroke="rgb(140,126,155)" stroke-width="1" opacity="1.0" d="M 185.5 243.0 Q 187.8 243.8 187.0 247.5 L 187.0 259.5 L 187.0 305.5 L 187.0 488.5 L 186.0 488.5 L 186.0 305.5 L 186.0 260.5 L 186.0 248.5 L 185.5 243.0 Z" /><path desc="l 12 p 58" fill="rgb(140,126,155)" stroke="rgb(140,126,155)" stroke-width="1" opacity="1.0" d="M 613.5 243.0 L 615.0 243.5 L 614.5 477.0 L 614.0 303.5 L 614.0 259.5 L 614.0 248.5 L 613.5 243.0 Z" /><path desc="l 6 p 3" fill="rgb(40,39,37)" stroke="rgb(40,39,37)" stroke-width="1" opacity="1.0" d="M 183.5 244.0 L 186.0 244.5 L 186.0 431.5 L 186.0 491.5 L 185.0 499.5 L 181.5 519.0 Q 175.6 543.1 158.5 556.0 L 141.5 565.0 L 134.5 567.0 L 122.5 569.0 L 117.5 570.0 L 104.5 571.0 L 89.5 572.0 Q 87.8 569.3 81.5 571.0 L 74.0 570.5 L 66.5 569.0 Q 44.6 565.9 34.0 551.5 L 31.0 541.5 L 32.5 534.0 Q 35.0 526.0 41.5 522.0 Q 50.5 515.0 67.5 516.0 L 78.0 520.5 L 88.0 529.5 L 98.5 542.0 Q 101.5 545.0 108.5 544.0 L 112.0 541.5 Q 116.3 536.8 116.5 528.0 L 117.0 510.5 L 117.0 459.5 L 117.0 312.5 L 117.0 275.5 L 117.0 266.5 Q 116.3 262.8 118.5 262.0 L 163.5 250.0 L 183.5 244.0 Z" /><path desc="l 12 p 59" fill="rgb(140,126,155)" stroke="rgb(140,126,155)" stroke-width="1" opacity="1.0" d="M 609.5 244.0 L 612.0 244.5 L 609.5 245.0 L 609.5 244.0 Z" /><path desc="l 6 p 4" fill="rgb(40,39,37)" stroke="rgb(40,39,37)" stroke-width="1" opacity="1.0" d="M 612.5 244.0 L 614.0 244.5 L 613.5 477.0 L 546.0 476.5 L 546.5 262.0 L 568.0 256.5 L 612.5 244.0 Z" /><path desc="l 12 p 60" fill="rgb(140,126,155)" stroke="rgb(140,126,155)" stroke-width="1" opacity="1.0" d="M 726.5 244.0 L 747.0 244.5 L 726.5 245.0 L 726.5 244.0 Z" /><path desc="l 12 p 61" fill="rgb(140,126,155)" stroke="rgb(140,126,155)" stroke-width="1" opacity="1.0" d="M 716.5 245.0 L 721.0 245.5 L 716.5 246.0 L 716.5 245.0 Z" /><path desc="l 6 p 5" fill="rgb(40,39,37)" stroke="rgb(40,39,37)" stroke-width="1" opacity="1.0" d="M 721.5 245.0 L 752.0 245.5 L 768.5 247.0 L 780.5 250.0 L 785.5 252.0 Q 806.5 257.0 818.0 271.5 L 826.0 285.5 L 828.5 297.0 L 829.0 308.5 L 829.0 341.5 L 829.0 476.5 L 761.5 477.0 L 761.0 465.5 Q 762.3 460.3 759.5 459.0 Q 750.7 467.7 739.0 473.5 L 730.5 477.0 L 715.5 480.0 L 711.0 480.5 L 693.5 481.0 L 678.5 478.0 Q 658.4 473.1 647.0 459.5 L 642.0 452.5 L 638.0 443.5 L 634.5 431.0 L 634.0 414.5 Q 639.6 387.6 658.5 374.0 Q 684.0 355.0 718.0 344.5 L 747.5 335.0 L 756.0 332.5 L 761.0 330.5 L 760.5 307.0 L 760.0 301.5 Q 760.0 284.0 750.5 276.0 Q 742.0 266.5 721.5 269.0 Q 710.2 270.7 705.0 278.5 Q 699.1 286.6 700.0 301.5 Q 699.3 316.3 690.5 323.0 Q 685.1 327.6 675.5 328.0 L 668.5 329.0 Q 667.0 326.5 661.5 328.0 Q 648.6 325.4 642.0 316.5 Q 638.3 312.3 637.5 305.0 L 637.0 294.5 Q 641.3 276.8 654.5 268.0 Q 667.8 257.3 686.5 252.0 L 698.5 249.0 L 710.5 247.0 L 721.5 245.0 Z" /><path desc="l 12 p 62" fill="rgb(140,126,155)" stroke="rgb(140,126,155)" stroke-width="1" opacity="1.0" d="M 752.5 245.0 L 759.0 245.5 L 752.5 246.0 L 752.5 245.0 Z" /><path desc="l 12 p 63" fill="rgb(140,126,155)" stroke="rgb(140,126,155)" stroke-width="1" opacity="1.0" d="M 708.5 246.0 L 712.0 246.5 L 708.5 247.0 L 708.5 246.0 Z" /><path desc="l 12 p 64" fill="rgb(140,126,155)" stroke="rgb(140,126,155)" stroke-width="1" opacity="1.0" d="M 763.5 246.0 L 767.0 246.5 L 763.5 247.0 L 763.5 246.0 Z" /><path desc="l 12 p 65" fill="rgb(140,126,155)" stroke="rgb(140,126,155)" stroke-width="1" opacity="1.0" d="M 170.5 247.0 L 173.0 247.5 L 170.5 248.0 L 170.5 247.0 Z" /><path desc="l 12 p 66" fill="rgb(140,126,155)" stroke="rgb(140,126,155)" stroke-width="1" opacity="1.0" d="M 703.5 247.0 L 706.0 247.5 L 703.5 248.0 L 703.5 247.0 Z" /><path desc="l 12 p 67" fill="rgb(140,126,155)" stroke="rgb(140,126,155)" stroke-width="1" opacity="1.0" d="M 769.5 247.0 L 772.0 247.5 L 769.5 248.0 L 769.5 247.0 Z" /><path desc="l 12 p 68" fill="rgb(140,126,155)" stroke="rgb(140,126,155)" stroke-width="1" opacity="1.0" d="M 694.5 249.0 L 697.0 249.5 L 694.5 250.0 L 694.5 249.0 Z" /><path desc="l 12 p 69" fill="rgb(140,126,155)" stroke="rgb(140,126,155)" stroke-width="1" opacity="1.0" d="M 778.5 249.0 L 781.0 249.5 L 778.5 250.0 L 778.5 249.0 Z" /><path desc="l 6 p 6" fill="rgb(40,39,37)" stroke="rgb(40,39,37)" stroke-width="1" opacity="1.0" d="M 214.5 250.0 L 264.5 250.0 L 277.5 250.0 Q 282.0 249.0 283.0 251.5 L 283.0 375.5 L 283.0 406.5 Q 281.4 418.6 286.0 424.5 L 294.5 435.0 L 303.0 439.5 Q 309.0 443.5 320.5 442.0 Q 338.3 434.8 349.0 420.5 L 352.0 415.5 L 353.0 412.5 L 353.0 404.5 L 353.0 373.5 L 353.5 250.0 L 422.0 250.5 L 421.5 477.0 L 371.5 477.0 L 359.5 477.0 Q 354.3 478.3 353.0 475.5 L 352.5 456.0 Q 340.2 466.7 324.5 474.0 L 312.5 478.0 L 300.0 480.5 L 286.5 481.0 L 271.5 478.0 Q 248.3 472.3 234.0 457.5 L 233.5 456.0 L 232.0 455.5 L 221.5 440.0 Q 214.0 429.0 214.0 410.5 L 214.0 374.5 L 214.5 250.0 Z" /><path desc="l 12 p 70" fill="rgb(140,126,155)" stroke="rgb(140,126,155)" stroke-width="1" opacity="1.0" d="M 213.5 251.0 L 214.0 409.5 L 213.0 409.5 L 213.5 251.0 Z" /><path desc="l 12 p 71" fill="rgb(140,126,155)" stroke="rgb(140,126,155)" stroke-width="1" opacity="1.0" d="M 785.5 251.0 L 788.0 251.5 L 785.5 252.0 L 785.5 251.0 Z" /><path desc="l 12 p 72" fill="rgb(140,126,155)" stroke="rgb(140,126,155)" stroke-width="1" opacity="1.0" d="M 148.5 253.0 L 151.0 253.5 L 148.5 254.0 L 148.5 253.0 Z" /><path desc="l 12 p 73" fill="rgb(140,126,155)" stroke="rgb(140,126,155)" stroke-width="1" opacity="1.0" d="M 569.5 255.0 L 572.0 255.5 L 569.5 256.0 L 569.5 255.0 Z" /><path desc="l 12 p 74" fill="rgb(140,126,155)" stroke="rgb(140,126,155)" stroke-width="1" opacity="1.0" d="M 671.5 257.0 L 673.0 257.5 L 666.5 261.0 L 667.5 259.0 L 671.5 257.0 Z" /><path desc="l 12 p 75" fill="rgb(140,126,155)" stroke="rgb(140,126,155)" stroke-width="1" opacity="1.0" d="M 126.5 259.0 L 129.0 259.5 L 126.5 260.0 L 126.5 259.0 Z" /><path desc="l 12 p 76" fill="rgb(140,126,155)" stroke="rgb(140,126,155)" stroke-width="1" opacity="1.0" d="M 804.5 259.0 L 805.5 261.0 L 804.5 259.0 Z" /><path desc="l 12 p 77" fill="rgb(140,126,155)" stroke="rgb(140,126,155)" stroke-width="1" opacity="1.0" d="M 551.5 260.0 L 554.0 260.5 L 551.5 261.0 L 551.5 260.0 Z" /><path desc="l 12 p 78" fill="rgb(140,126,155)" stroke="rgb(140,126,155)" stroke-width="1" opacity="1.0" d="M 547.5 261.0 L 550.0 261.5 L 547.5 262.0 L 547.5 261.0 Z" /><path desc="l 12 p 79" fill="rgb(140,126,155)" stroke="rgb(140,126,155)" stroke-width="1" opacity="1.0" d="M 807.5 261.0 L 809.5 264.0 L 807.5 261.0 Z" /><path desc="l 12 p 80" fill="rgb(140,126,155)" stroke="rgb(140,126,155)" stroke-width="1" opacity="1.0" d="M 545.5 262.0 L 546.0 476.5 L 545.0 476.5 L 545.5 262.0 Z" /><path desc="l 12 p 81" fill="rgb(140,126,155)" stroke="rgb(140,126,155)" stroke-width="1" opacity="1.0" d="M 660.5 263.0 L 659.5 265.0 L 660.5 263.0 Z" /><path desc="l 12 p 82" fill="rgb(140,126,155)" stroke="rgb(140,126,155)" stroke-width="1" opacity="1.0" d="M 657.5 265.0 L 655.5 268.0 L 657.5 265.0 Z" /><path desc="l 12 p 83" fill="rgb(140,126,155)" stroke="rgb(140,126,155)" stroke-width="1" opacity="1.0" d="M 812.5 265.0 L 816.5 270.0 L 812.5 265.0 Z" /><path desc="l 12 p 84" fill="rgb(140,126,155)" stroke="rgb(140,126,155)" stroke-width="1" opacity="1.0" d="M 653.5 268.0 L 645.5 277.0 L 653.5 268.0 Z" /><path desc="l 12 p 85" fill="rgb(140,126,155)" stroke="rgb(140,126,155)" stroke-width="1" opacity="1.0" d="M 721.5 269.0 L 725.0 269.5 L 721.5 270.0 L 721.5 269.0 Z" /><path desc="l 12 p 86" fill="rgb(140,126,155)" stroke="rgb(140,126,155)" stroke-width="1" opacity="1.0" d="M 733.5 269.0 L 737.0 269.5 L 733.5 270.0 L 733.5 269.0 Z" /><path desc="l 12 p 87" fill="rgb(140,126,155)" stroke="rgb(140,126,155)" stroke-width="1" opacity="1.0" d="M 716.5 270.0 L 719.0 270.5 L 716.5 271.0 L 716.5 270.0 Z" /><path desc="l 12 p 88" fill="rgb(140,126,155)" stroke="rgb(140,126,155)" stroke-width="1" opacity="1.0" d="M 818.5 272.0 L 820.5 275.0 L 818.5 272.0 Z" /><path desc="l 12 p 89" fill="rgb(140,126,155)" stroke="rgb(140,126,155)" stroke-width="1" opacity="1.0" d="M 710.5 273.0 L 705.5 279.0 L 710.5 273.0 Z" /><path desc="l 12 p 90" fill="rgb(140,126,155)" stroke="rgb(140,126,155)" stroke-width="1" opacity="1.0" d="M 746.5 273.0 L 748.5 276.0 L 746.5 273.0 Z" /><path desc="l 12 p 91" fill="rgb(140,126,155)" stroke="rgb(140,126,155)" stroke-width="1" opacity="1.0" d="M 750.5 276.0 L 752.5 279.0 L 750.5 276.0 Z" /><path desc="l 12 p 92" fill="rgb(140,126,155)" stroke="rgb(140,126,155)" stroke-width="1" opacity="1.0" d="M 822.5 278.0 L 825.0 282.5 L 824.0 282.5 L 822.5 278.0 Z" /><path desc="l 12 p 93" fill="rgb(140,126,155)" stroke="rgb(140,126,155)" stroke-width="1" opacity="1.0" d="M 643.5 279.0 L 642.5 281.0 L 643.5 279.0 Z" /><path desc="l 12 p 94" fill="rgb(140,126,155)" stroke="rgb(140,126,155)" stroke-width="1" opacity="1.0" d="M 753.5 280.0 L 754.5 282.0 L 753.5 280.0 Z" /><path desc="l 12 p 95" fill="rgb(140,126,155)" stroke="rgb(140,126,155)" stroke-width="1" opacity="1.0" d="M 637.5 291.0 L 638.0 293.5 L 637.0 293.5 L 637.5 291.0 Z" /><path desc="l 12 p 96" fill="rgb(140,126,155)" stroke="rgb(140,126,155)" stroke-width="1" opacity="1.0" d="M 700.5 292.0 L 701.0 301.5 L 700.0 301.5 L 700.5 292.0 Z" /><path desc="l 12 p 97" fill="rgb(140,126,155)" stroke="rgb(140,126,155)" stroke-width="1" opacity="1.0" d="M 828.5 294.0 L 829.0 296.5 L 828.0 296.5 L 828.5 294.0 Z" /><path desc="l 12 p 98" fill="rgb(140,126,155)" stroke="rgb(140,126,155)" stroke-width="1" opacity="1.0" d="M 636.5 296.0 L 637.0 302.5 L 636.0 302.5 L 636.5 296.0 Z" /><path desc="l 12 p 99" fill="rgb(140,126,155)" stroke="rgb(140,126,155)" stroke-width="1" opacity="1.0" d="M 759.5 296.0 L 760.0 300.5 L 759.0 300.5 L 759.5 296.0 Z" /><path desc="l 12 p 100" fill="rgb(140,126,155)" stroke="rgb(140,126,155)" stroke-width="1" opacity="1.0" d="M 829.5 300.0 L 830.0 476.5 L 829.0 476.5 L 829.5 300.0 Z" /><path desc="l 12 p 101" fill="rgb(140,126,155)" stroke="rgb(140,126,155)" stroke-width="1" opacity="1.0" d="M 637.5 305.0 L 638.0 307.5 L 637.0 307.5 L 637.5 305.0 Z" /><path desc="l 12 p 102" fill="rgb(140,126,155)" stroke="rgb(140,126,155)" stroke-width="1" opacity="1.0" d="M 699.5 305.0 L 700.0 307.5 L 699.0 307.5 L 699.5 305.0 Z" /><path desc="l 12 p 103" fill="rgb(140,126,155)" stroke="rgb(140,126,155)" stroke-width="1" opacity="1.0" d="M 760.5 307.0 L 761.0 330.5 L 758.5 332.0 L 758.5 331.0 L 760.0 330.5 L 760.5 307.0 Z" /><path desc="l 12 p 104" fill="rgb(140,126,155)" stroke="rgb(140,126,155)" stroke-width="1" opacity="1.0" d="M 640.5 314.0 L 641.5 316.0 L 640.5 314.0 Z" /><path desc="l 12 p 105" fill="rgb(140,126,155)" stroke="rgb(140,126,155)" stroke-width="1" opacity="1.0" d="M 695.5 317.0 L 694.5 319.0 L 695.5 317.0 Z" /><path desc="l 12 p 106" fill="rgb(140,126,155)" stroke="rgb(140,126,155)" stroke-width="1" opacity="1.0" d="M 643.5 318.0 L 645.5 321.0 L 643.5 318.0 Z" /><path desc="l 12 p 107" fill="rgb(140,126,155)" stroke="rgb(140,126,155)" stroke-width="1" opacity="1.0" d="M 648.5 322.0 L 649.5 324.0 L 648.5 322.0 Z" /><path desc="l 12 p 108" fill="rgb(140,126,155)" stroke="rgb(140,126,155)" stroke-width="1" opacity="1.0" d="M 689.5 323.0 L 688.5 325.0 L 689.5 323.0 Z" /><path desc="l 12 p 109" fill="rgb(140,126,155)" stroke="rgb(140,126,155)" stroke-width="1" opacity="1.0" d="M 661.5 328.0 L 668.0 328.5 L 661.5 329.0 L 661.5 328.0 Z" /><path desc="l 12 p 110" fill="rgb(140,126,155)" stroke="rgb(140,126,155)" stroke-width="1" opacity="1.0" d="M 671.5 328.0 L 678.0 328.5 L 671.5 329.0 L 671.5 328.0 Z" /><path desc="l 12 p 111" fill="rgb(140,126,155)" stroke="rgb(140,126,155)" stroke-width="1" opacity="1.0" d="M 757.5 360.0 L 759.0 360.5 L 756.5 362.0 L 757.5 360.0 Z" /><path desc="l 0 p 1" fill="rgb(246,246,246)" stroke="rgb(246,246,246)" stroke-width="1" opacity="1.0" d="M 759.5 360.0 L 760.0 424.5 L 741.5 438.0 L 731.5 442.0 Q 728.0 444.5 720.5 443.0 Q 713.0 440.0 709.0 433.5 Q 702.5 424.5 703.0 408.5 Q 705.2 397.2 712.5 391.0 L 722.5 381.0 Q 738.9 368.4 759.5 360.0 Z" /><path desc="l 12 p 112" fill="rgb(140,126,155)" stroke="rgb(140,126,155)" stroke-width="1" opacity="1.0" d="M 760.5 360.0 L 761.0 424.5 L 757.0 427.5 Q 761.0 426.5 760.0 420.5 L 760.0 408.5 L 760.5 360.0 Z" /><path desc="l 12 p 113" fill="rgb(140,126,155)" stroke="rgb(140,126,155)" stroke-width="1" opacity="1.0" d="M 677.5 361.0 L 676.5 363.0 L 674.5 364.0 L 675.5 362.0 L 677.5 361.0 Z" /><path desc="l 12 p 114" fill="rgb(140,126,155)" stroke="rgb(140,126,155)" stroke-width="1" opacity="1.0" d="M 670.5 365.0 L 669.5 367.0 L 670.5 365.0 Z" /><path desc="l 12 p 115" fill="rgb(140,126,155)" stroke="rgb(140,126,155)" stroke-width="1" opacity="1.0" d="M 741.5 368.0 L 740.5 370.0 L 741.5 368.0 Z" /><path desc="l 12 p 116" fill="rgb(140,126,155)" stroke="rgb(140,126,155)" stroke-width="1" opacity="1.0" d="M 664.5 369.0 L 663.5 371.0 L 664.5 369.0 Z" /><path desc="l 12 p 117" fill="rgb(140,126,155)" stroke="rgb(140,126,155)" stroke-width="1" opacity="1.0" d="M 661.5 371.0 L 659.5 374.0 L 661.5 371.0 Z" /><path desc="l 12 p 118" fill="rgb(140,126,155)" stroke="rgb(140,126,155)" stroke-width="1" opacity="1.0" d="M 734.5 372.0 L 733.5 374.0 L 734.5 372.0 Z" /><path desc="l 12 p 119" fill="rgb(140,126,155)" stroke="rgb(140,126,155)" stroke-width="1" opacity="1.0" d="M 731.5 374.0 L 730.5 376.0 L 731.5 374.0 Z" /><path desc="l 12 p 120" fill="rgb(140,126,155)" stroke="rgb(140,126,155)" stroke-width="1" opacity="1.0" d="M 656.5 375.0 L 647.5 385.0 L 656.5 375.0 Z" /><path desc="l 12 p 121" fill="rgb(140,126,155)" stroke="rgb(140,126,155)" stroke-width="1" opacity="1.0" d="M 728.5 376.0 L 727.5 378.0 L 728.5 376.0 Z" /><path desc="l 12 p 122" fill="rgb(140,126,155)" stroke="rgb(140,126,155)" stroke-width="1" opacity="1.0" d="M 725.5 378.0 L 723.5 381.0 L 725.5 378.0 Z" /><path desc="l 12 p 123" fill="rgb(140,126,155)" stroke="rgb(140,126,155)" stroke-width="1" opacity="1.0" d="M 720.5 382.0 L 710.5 393.0 L 720.5 382.0 Z" /><path desc="l 12 p 124" fill="rgb(140,126,155)" stroke="rgb(140,126,155)" stroke-width="1" opacity="1.0" d="M 646.5 386.0 L 644.5 389.0 L 646.5 386.0 Z" /><path desc="l 12 p 125" fill="rgb(140,126,155)" stroke="rgb(140,126,155)" stroke-width="1" opacity="1.0" d="M 643.5 390.0 L 642.5 392.0 L 643.5 390.0 Z" /><path desc="l 12 p 126" fill="rgb(140,126,155)" stroke="rgb(140,126,155)" stroke-width="1" opacity="1.0" d="M 641.5 393.0 L 641.0 394.5 L 638.5 400.0 L 638.0 398.5 L 641.5 393.0 Z" /><path desc="l 12 p 127" fill="rgb(140,126,155)" stroke="rgb(140,126,155)" stroke-width="1" opacity="1.0" d="M 708.5 395.0 L 707.5 397.0 L 708.5 395.0 Z" /><path desc="l 12 p 128" fill="rgb(140,126,155)" stroke="rgb(140,126,155)" stroke-width="1" opacity="1.0" d="M 703.5 405.0 L 704.0 407.5 L 703.0 407.5 L 703.5 405.0 Z" /><path desc="l 12 p 129" fill="rgb(140,126,155)" stroke="rgb(140,126,155)" stroke-width="1" opacity="1.0" d="M 635.5 406.0 L 636.0 408.5 L 635.0 408.5 L 635.5 406.0 Z" /><path desc="l 12 p 130" fill="rgb(140,126,155)" stroke="rgb(140,126,155)" stroke-width="1" opacity="1.0" d="M 634.5 410.0 L 635.0 413.5 L 634.0 413.5 L 634.5 410.0 Z" /><path desc="l 12 p 131" fill="rgb(140,126,155)" stroke="rgb(140,126,155)" stroke-width="1" opacity="1.0" d="M 352.5 414.0 L 351.5 416.0 L 352.5 414.0 Z" /><path desc="l 12 p 132" fill="rgb(140,126,155)" stroke="rgb(140,126,155)" stroke-width="1" opacity="1.0" d="M 283.5 415.0 L 284.0 417.5 L 283.0 417.5 L 283.5 415.0 Z" /><path desc="l 12 p 133" fill="rgb(140,126,155)" stroke="rgb(140,126,155)" stroke-width="1" opacity="1.0" d="M 703.5 416.0 L 704.0 420.5 L 703.0 420.5 L 703.5 416.0 Z" /><path desc="l 12 p 134" fill="rgb(140,126,155)" stroke="rgb(140,126,155)" stroke-width="1" opacity="1.0" d="M 214.5 417.0 L 215.0 421.5 L 214.0 421.5 L 214.5 417.0 Z" /><path desc="l 12 p 135" fill="rgb(140,126,155)" stroke="rgb(140,126,155)" stroke-width="1" opacity="1.0" d="M 350.5 417.0 L 349.5 419.0 L 350.5 417.0 Z" /><path desc="l 12 p 136" fill="rgb(140,126,155)" stroke="rgb(140,126,155)" stroke-width="1" opacity="1.0" d="M 633.5 419.0 L 634.0 425.5 L 633.0 425.5 L 633.5 419.0 Z" /><path desc="l 12 p 137" fill="rgb(140,126,155)" stroke="rgb(140,126,155)" stroke-width="1" opacity="1.0" d="M 348.5 420.0 L 342.5 427.0 L 348.5 420.0 Z" /><path desc="l 12 p 138" fill="rgb(140,126,155)" stroke="rgb(140,126,155)" stroke-width="1" opacity="1.0" d="M 287.5 426.0 L 288.5 428.0 L 287.5 426.0 Z" /><path desc="l 12 p 139" fill="rgb(140,126,155)" stroke="rgb(140,126,155)" stroke-width="1" opacity="1.0" d="M 340.5 428.0 L 336.5 433.0 L 340.5 428.0 Z" /><path desc="l 12 p 140" fill="rgb(140,126,155)" stroke="rgb(140,126,155)" stroke-width="1" opacity="1.0" d="M 706.5 428.0 L 709.0 432.5 L 707.0 431.5 L 706.5 428.0 Z" /><path desc="l 12 p 141" fill="rgb(140,126,155)" stroke="rgb(140,126,155)" stroke-width="1" opacity="1.0" d="M 755.5 428.0 L 754.5 430.0 L 755.5 428.0 Z" /><path desc="l 12 p 142" fill="rgb(140,126,155)" stroke="rgb(140,126,155)" stroke-width="1" opacity="1.0" d="M 289.5 429.0 L 294.5 435.0 L 289.5 429.0 Z" /><path desc="l 12 p 143" fill="rgb(140,126,155)" stroke="rgb(140,126,155)" stroke-width="1" opacity="1.0" d="M 752.5 430.0 L 751.5 432.0 L 752.5 430.0 Z" /><path desc="l 12 p 144" fill="rgb(140,126,155)" stroke="rgb(140,126,155)" stroke-width="1" opacity="1.0" d="M 634.5 431.0 L 635.0 434.5 L 634.0 434.5 L 634.5 431.0 Z" /><path desc="l 12 p 145" fill="rgb(140,126,155)" stroke="rgb(140,126,155)" stroke-width="1" opacity="1.0" d="M 748.5 433.0 L 747.5 435.0 L 745.5 436.0 L 746.5 434.0 L 748.5 433.0 Z" /><path desc="l 12 p 146" fill="rgb(140,126,155)" stroke="rgb(140,126,155)" stroke-width="1" opacity="1.0" d="M 333.5 434.0 L 332.5 436.0 L 333.5 434.0 Z" /><path desc="l 12 p 147" fill="rgb(140,126,155)" stroke="rgb(140,126,155)" stroke-width="1" opacity="1.0" d="M 709.5 434.0 L 715.5 441.0 L 709.5 434.0 Z" /><path desc="l 12 p 148" fill="rgb(140,126,155)" stroke="rgb(140,126,155)" stroke-width="1" opacity="1.0" d="M 296.5 435.0 L 297.5 437.0 L 296.5 435.0 Z" /><path desc="l 12 p 149" fill="rgb(140,126,155)" stroke="rgb(140,126,155)" stroke-width="1" opacity="1.0" d="M 330.5 436.0 L 329.5 438.0 L 330.5 436.0 Z" /><path desc="l 12 p 150" fill="rgb(140,126,155)" stroke="rgb(140,126,155)" stroke-width="1" opacity="1.0" d="M 743.5 436.0 L 742.5 438.0 L 743.5 436.0 Z" /><path desc="l 12 p 151" fill="rgb(140,126,155)" stroke="rgb(140,126,155)" stroke-width="1" opacity="1.0" d="M 305.5 440.0 L 308.0 440.5 L 305.5 441.0 L 305.5 440.0 Z" /><path desc="l 12 p 152" fill="rgb(140,126,155)" stroke="rgb(140,126,155)" stroke-width="1" opacity="1.0" d="M 309.5 441.0 L 313.0 441.5 L 309.5 442.0 L 309.5 441.0 Z" /><path desc="l 12 p 153" fill="rgb(140,126,155)" stroke="rgb(140,126,155)" stroke-width="1" opacity="1.0" d="M 318.5 441.0 L 321.0 441.5 L 318.5 442.0 L 318.5 441.0 Z" /><path desc="l 12 p 154" fill="rgb(140,126,155)" stroke="rgb(140,126,155)" stroke-width="1" opacity="1.0" d="M 717.5 441.0 L 720.0 442.5 L 718.5 443.0 L 717.5 441.0 Z" /><path desc="l 12 p 155" fill="rgb(140,126,155)" stroke="rgb(140,126,155)" stroke-width="1" opacity="1.0" d="M 722.5 443.0 L 726.0 443.5 L 722.5 444.0 L 722.5 443.0 Z" /><path desc="l 12 p 156" fill="rgb(140,126,155)" stroke="rgb(140,126,155)" stroke-width="1" opacity="1.0" d="M 223.5 444.0 L 224.5 446.0 L 223.5 444.0 Z" /><path desc="l 12 p 157" fill="rgb(140,126,155)" stroke="rgb(140,126,155)" stroke-width="1" opacity="1.0" d="M 638.5 445.0 L 640.0 448.5 L 639.0 448.5 L 638.5 445.0 Z" /><path desc="l 12 p 158" fill="rgb(140,126,155)" stroke="rgb(140,126,155)" stroke-width="1" opacity="1.0" d="M 225.5 447.0 L 226.5 449.0 L 225.5 447.0 Z" /><path desc="l 12 p 159" fill="rgb(140,126,155)" stroke="rgb(140,126,155)" stroke-width="1" opacity="1.0" d="M 640.5 450.0 L 641.5 452.0 L 640.5 450.0 Z" /><path desc="l 12 p 160" fill="rgb(140,126,155)" stroke="rgb(140,126,155)" stroke-width="1" opacity="1.0" d="M 228.5 451.0 L 231.5 455.0 L 228.5 451.0 Z" /><path desc="l 12 p 161" fill="rgb(140,126,155)" stroke="rgb(140,126,155)" stroke-width="1" opacity="1.0" d="M 642.5 453.0 L 643.5 455.0 L 642.5 453.0 Z" /><path desc="l 12 p 162" fill="rgb(140,126,155)" stroke="rgb(140,126,155)" stroke-width="1" opacity="1.0" d="M 644.5 456.0 L 646.5 459.0 L 644.5 456.0 Z" /><path desc="l 12 p 163" fill="rgb(140,126,155)" stroke="rgb(140,126,155)" stroke-width="1" opacity="1.0" d="M 349.5 458.0 L 348.5 460.0 L 349.5 458.0 Z" /><path desc="l 12 p 164" fill="rgb(140,126,155)" stroke="rgb(140,126,155)" stroke-width="1" opacity="1.0" d="M 236.5 459.0 L 239.5 463.0 L 236.5 459.0 Z" /><path desc="l 12 p 165" fill="rgb(140,126,155)" stroke="rgb(140,126,155)" stroke-width="1" opacity="1.0" d="M 759.5 459.0 Q 762.0 460.0 761.0 464.5 L 761.0 476.5 L 760.0 476.5 L 759.5 460.0 L 758.0 460.5 L 759.5 459.0 Z" /><path desc="l 12 p 166" fill="rgb(140,126,155)" stroke="rgb(140,126,155)" stroke-width="1" opacity="1.0" d="M 345.5 461.0 L 344.5 463.0 L 345.5 461.0 Z" /><path desc="l 12 p 167" fill="rgb(140,126,155)" stroke="rgb(140,126,155)" stroke-width="1" opacity="1.0" d="M 756.5 461.0 L 753.5 465.0 L 756.5 461.0 Z" /><path desc="l 12 p 168" fill="rgb(140,126,155)" stroke="rgb(140,126,155)" stroke-width="1" opacity="1.0" d="M 342.5 463.0 L 341.5 465.0 L 342.5 463.0 Z" /><path desc="l 12 p 169" fill="rgb(140,126,155)" stroke="rgb(140,126,155)" stroke-width="1" opacity="1.0" d="M 242.5 464.0 L 243.5 466.0 L 242.5 464.0 Z" /><path desc="l 12 p 170" fill="rgb(140,126,155)" stroke="rgb(140,126,155)" stroke-width="1" opacity="1.0" d="M 652.5 464.0 L 655.5 468.0 L 652.5 464.0 Z" /><path desc="l 12 p 171" fill="rgb(140,126,155)" stroke="rgb(140,126,155)" stroke-width="1" opacity="1.0" d="M 339.5 465.0 L 338.5 467.0 L 339.5 465.0 Z" /><path desc="l 12 p 172" fill="rgb(140,126,155)" stroke="rgb(140,126,155)" stroke-width="1" opacity="1.0" d="M 751.5 465.0 L 749.5 468.0 L 751.5 465.0 Z" /><path desc="l 12 p 173" fill="rgb(140,126,155)" stroke="rgb(140,126,155)" stroke-width="1" opacity="1.0" d="M 245.5 466.0 L 246.5 468.0 L 245.5 466.0 Z" /><path desc="l 12 p 174" fill="rgb(140,126,155)" stroke="rgb(140,126,155)" stroke-width="1" opacity="1.0" d="M 336.5 467.0 L 335.5 469.0 L 331.5 471.0 L 332.5 469.0 L 336.5 467.0 Z" /><path desc="l 12 p 175" fill="rgb(140,126,155)" stroke="rgb(140,126,155)" stroke-width="1" opacity="1.0" d="M 248.5 468.0 L 249.5 470.0 L 248.5 468.0 Z" /><path desc="l 12 p 176" fill="rgb(140,126,155)" stroke="rgb(140,126,155)" stroke-width="1" opacity="1.0" d="M 657.5 468.0 L 658.5 470.0 L 657.5 468.0 Z" /><path desc="l 12 p 177" fill="rgb(140,126,155)" stroke="rgb(140,126,155)" stroke-width="1" opacity="1.0" d="M 747.5 468.0 L 745.5 471.0 L 743.5 472.0 L 744.5 470.0 L 747.5 468.0 Z" /><path desc="l 12 p 178" fill="rgb(140,126,155)" stroke="rgb(140,126,155)" stroke-width="1" opacity="1.0" d="M 662.5 471.0 L 663.5 473.0 L 662.5 471.0 Z" /><path desc="l 12 p 179" fill="rgb(140,126,155)" stroke="rgb(140,126,155)" stroke-width="1" opacity="1.0" d="M 322.5 474.0 L 324.0 474.5 L 320.5 476.0 L 320.5 475.0 L 322.5 474.0 Z" /><path desc="l 12 p 180" fill="rgb(140,126,155)" stroke="rgb(140,126,155)" stroke-width="1" opacity="1.0" d="M 678.5 478.0 L 681.0 478.5 L 678.5 479.0 L 678.5 478.0 Z" /><path desc="l 12 p 181" fill="rgb(140,126,155)" stroke="rgb(140,126,155)" stroke-width="1" opacity="1.0" d="M 724.5 478.0 L 727.0 478.5 L 724.5 479.0 L 724.5 478.0 Z" /><path desc="l 12 p 182" fill="rgb(140,126,155)" stroke="rgb(140,126,155)" stroke-width="1" opacity="1.0" d="M 275.5 479.0 L 278.0 479.5 L 275.5 480.0 L 275.5 479.0 Z" /><path desc="l 12 p 183" fill="rgb(140,126,155)" stroke="rgb(140,126,155)" stroke-width="1" opacity="1.0" d="M 307.5 479.0 L 310.0 479.5 L 307.5 480.0 L 307.5 479.0 Z" /><path desc="l 12 p 184" fill="rgb(140,126,155)" stroke="rgb(140,126,155)" stroke-width="1" opacity="1.0" d="M 682.5 479.0 L 685.0 479.5 L 682.5 480.0 L 682.5 479.0 Z" /><path desc="l 12 p 185" fill="rgb(140,126,155)" stroke="rgb(140,126,155)" stroke-width="1" opacity="1.0" d="M 720.5 479.0 L 723.0 479.5 L 720.5 480.0 L 720.5 479.0 Z" /><path desc="l 12 p 186" fill="rgb(140,126,155)" stroke="rgb(140,126,155)" stroke-width="1" opacity="1.0" d="M 281.5 480.0 L 286.0 480.5 L 281.5 481.0 L 281.5 480.0 Z" /><path desc="l 12 p 187" fill="rgb(140,126,155)" stroke="rgb(140,126,155)" stroke-width="1" opacity="1.0" d="M 300.5 480.0 L 305.0 480.5 L 300.5 481.0 L 300.5 480.0 Z" /><path desc="l 12 p 188" fill="rgb(140,126,155)" stroke="rgb(140,126,155)" stroke-width="1" opacity="1.0" d="M 688.5 480.0 L 693.0 480.5 L 688.5 481.0 L 688.5 480.0 Z" /><path desc="l 12 p 189" fill="rgb(140,126,155)" stroke="rgb(140,126,155)" stroke-width="1" opacity="1.0" d="M 711.5 480.0 L 717.0 480.5 L 711.5 481.0 L 711.5 480.0 Z" /><path desc="l 12 p 190" fill="rgb(140,126,155)" stroke="rgb(140,126,155)" stroke-width="1" opacity="1.0" d="M 185.5 495.0 L 186.0 499.5 L 185.0 499.5 L 185.5 495.0 Z" /><path desc="l 12 p 191" fill="rgb(140,126,155)" stroke="rgb(140,126,155)" stroke-width="1" opacity="1.0" d="M 184.5 504.0 L 185.0 507.5 L 184.0 507.5 L 184.5 504.0 Z" /><path desc="l 12 p 192" fill="rgb(140,126,155)" stroke="rgb(140,126,155)" stroke-width="1" opacity="1.0" d="M 183.5 510.0 L 184.0 512.5 L 183.0 512.5 L 183.5 510.0 Z" /><path desc="l 12 p 193" fill="rgb(140,126,155)" stroke="rgb(140,126,155)" stroke-width="1" opacity="1.0" d="M 54.5 516.0 L 57.0 516.5 L 54.5 517.0 L 54.5 516.0 Z" /><path desc="l 12 p 194" fill="rgb(140,126,155)" stroke="rgb(140,126,155)" stroke-width="1" opacity="1.0" d="M 68.5 516.0 L 71.0 516.5 L 68.5 517.0 L 68.5 516.0 Z" /><path desc="l 12 p 195" fill="rgb(140,126,155)" stroke="rgb(140,126,155)" stroke-width="1" opacity="1.0" d="M 77.5 519.0 L 79.5 522.0 L 77.5 519.0 Z" /><path desc="l 12 p 196" fill="rgb(140,126,155)" stroke="rgb(140,126,155)" stroke-width="1" opacity="1.0" d="M 43.5 520.0 L 42.5 522.0 L 35.5 528.0 L 41.5 521.0 L 43.5 520.0 Z" /><path desc="l 12 p 197" fill="rgb(140,126,155)" stroke="rgb(140,126,155)" stroke-width="1" opacity="1.0" d="M 82.5 523.0 L 85.5 527.0 L 82.5 523.0 Z" /><path desc="l 12 p 198" fill="rgb(140,126,155)" stroke="rgb(140,126,155)" stroke-width="1" opacity="1.0" d="M 116.5 523.0 L 117.0 527.5 L 116.0 527.5 L 116.5 523.0 Z" /><path desc="l 12 p 199" fill="rgb(140,126,155)" stroke="rgb(140,126,155)" stroke-width="1" opacity="1.0" d="M 34.5 529.0 L 34.0 530.5 L 32.5 534.0 L 32.0 532.5 L 34.5 529.0 Z" /><path desc="l 12 p 200" fill="rgb(140,126,155)" stroke="rgb(140,126,155)" stroke-width="1" opacity="1.0" d="M 88.5 530.0 L 91.5 534.0 L 88.5 530.0 Z" /><path desc="l 12 p 201" fill="rgb(140,126,155)" stroke="rgb(140,126,155)" stroke-width="1" opacity="1.0" d="M 115.5 531.0 L 116.0 533.5 L 115.0 533.5 L 115.5 531.0 Z" /><path desc="l 12 p 202" fill="rgb(140,126,155)" stroke="rgb(140,126,155)" stroke-width="1" opacity="1.0" d="M 92.5 535.0 L 98.5 542.0 L 92.5 535.0 Z" /><path desc="l 12 p 203" fill="rgb(140,126,155)" stroke="rgb(140,126,155)" stroke-width="1" opacity="1.0" d="M 175.5 535.0 L 175.0 536.5 L 173.5 539.0 L 174.0 537.5 L 175.5 535.0 Z" /><path desc="l 12 p 204" fill="rgb(140,126,155)" stroke="rgb(140,126,155)" stroke-width="1" opacity="1.0" d="M 31.5 536.0 L 32.0 540.5 L 31.0 540.5 L 31.5 536.0 Z" /><path desc="l 12 p 205" fill="rgb(140,126,155)" stroke="rgb(140,126,155)" stroke-width="1" opacity="1.0" d="M 113.5 538.0 L 112.5 540.0 L 113.5 538.0 Z" /><path desc="l 12 p 206" fill="rgb(140,126,155)" stroke="rgb(140,126,155)" stroke-width="1" opacity="1.0" d="M 31.5 542.0 L 32.0 545.5 L 31.0 545.5 L 31.5 542.0 Z" /><path desc="l 12 p 207" fill="rgb(140,126,155)" stroke="rgb(140,126,155)" stroke-width="1" opacity="1.0" d="M 171.5 542.0 L 169.5 545.0 L 171.5 542.0 Z" /><path desc="l 12 p 208" fill="rgb(140,126,155)" stroke="rgb(140,126,155)" stroke-width="1" opacity="1.0" d="M 167.5 547.0 L 159.5 556.0 L 167.5 547.0 Z" /><path desc="l 12 p 209" fill="rgb(140,126,155)" stroke="rgb(140,126,155)" stroke-width="1" opacity="1.0" d="M 34.5 552.0 L 41.5 560.0 L 34.5 552.0 Z" /><path desc="l 12 p 210" fill="rgb(140,126,155)" stroke="rgb(140,126,155)" stroke-width="1" opacity="1.0" d="M 157.5 556.0 L 156.5 558.0 L 157.5 556.0 Z" /><path desc="l 12 p 211" fill="rgb(140,126,155)" stroke="rgb(140,126,155)" stroke-width="1" opacity="1.0" d="M 154.5 558.0 L 153.5 560.0 L 154.5 558.0 Z" /><path desc="l 12 p 212" fill="rgb(140,126,155)" stroke="rgb(140,126,155)" stroke-width="1" opacity="1.0" d="M 43.5 560.0 L 44.5 562.0 L 43.5 560.0 Z" /><path desc="l 12 p 213" fill="rgb(140,126,155)" stroke="rgb(140,126,155)" stroke-width="1" opacity="1.0" d="M 46.5 562.0 L 53.0 565.5 L 51.5 566.0 Q 46.9 564.8 46.5 562.0 Z" /><path desc="l 12 p 214" fill="rgb(140,126,155)" stroke="rgb(140,126,155)" stroke-width="1" opacity="1.0" d="M 60.5 568.0 L 63.0 568.5 L 60.5 569.0 L 60.5 568.0 Z" /><path desc="l 12 p 215" fill="rgb(140,126,155)" stroke="rgb(140,126,155)" stroke-width="1" opacity="1.0" d="M 127.5 568.0 L 131.0 568.5 L 127.5 569.0 L 127.5 568.0 Z" /><path desc="l 12 p 216" fill="rgb(140,126,155)" stroke="rgb(140,126,155)" stroke-width="1" opacity="1.0" d="M 64.5 569.0 L 67.0 569.5 L 64.5 570.0 L 64.5 569.0 Z" /><path desc="l 12 p 217" fill="rgb(140,126,155)" stroke="rgb(140,126,155)" stroke-width="1" opacity="1.0" d="M 122.5 569.0 L 125.0 569.5 L 122.5 570.0 L 122.5 569.0 Z" /><path desc="l 12 p 218" fill="rgb(140,126,155)" stroke="rgb(140,126,155)" stroke-width="1" opacity="1.0" d="M 69.5 570.0 L 74.0 570.5 L 69.5 571.0 L 69.5 570.0 Z" /><path desc="l 12 p 219" fill="rgb(140,126,155)" stroke="rgb(140,126,155)" stroke-width="1" opacity="1.0" d="M 112.5 570.0 L 118.0 570.5 L 112.5 571.0 L 112.5 570.0 Z" /><path desc="l 12 p 220" fill="rgb(140,126,155)" stroke="rgb(140,126,155)" stroke-width="1" opacity="1.0" d="M 77.5 571.0 L 89.0 571.5 L 77.5 572.0 L 77.5 571.0 Z" /><path desc="l 12 p 221" fill="rgb(140,126,155)" stroke="rgb(140,126,155)" stroke-width="1" opacity="1.0" d="M 96.5 571.0 L 108.0 571.5 L 96.5 572.0 L 96.5 571.0 Z" /></svg>